<svg xmlns="http://www.w3.org/2000/svg" width="1055" height="588" viewBox="0 0 1055 588">
<rect width="100%" height="100%" fill="white"/>
<path d="M 38.537 36.500 L 35.651 41.500 L 44.311 46.500 L 52.971 41.500 L 55.858 46.500 L 61.631 46.500 L 61.631 56.500 L 52.971 61.500 L 55.858 66.500 L 52.971 71.500 L 61.631 76.500 L 70.292 71.500 L 73.178 76.500 L 78.952 76.500 L 78.952 66.500 L 70.292 61.500 L 73.178 56.500 L 70.292 51.500 L 78.952 46.500 L 87.612 51.500 L 90.499 46.500 L 96.272 46.500 L 96.272 36.500 L 87.612 31.500 L 90.499 26.500 L 87.612 21.500 L 78.952 26.500 L 78.952 36.500 L 73.178 36.500 L 70.292 41.500 L 61.631 36.500 L 61.631 26.500 L 55.858 26.500 L 52.971 21.500 L 44.311 26.500 L 44.311 36.500 Z " fill="#dddddd" stroke="black" stroke-width="1.50" fill-rule="evenodd"/>
<path d="M 96.272 36.500 L 96.272 46.500 L 90.499 46.500 L 87.612 51.500 L 78.952 46.500 L 70.292 51.500 L 67.405 46.500 L 70.292 41.500 L 73.178 36.500 L 78.952 36.500 L 78.952 26.500 L 87.612 21.500 L 90.499 26.500 L 87.612 31.500 Z " fill="#d9e9f7" stroke="#666666" stroke-width="0.80" fill-rule="evenodd"/>
<path d="M 73.178 76.500 L 70.292 71.500 L 61.631 76.500 L 52.971 71.500 L 55.858 66.500 L 52.971 61.500 L 61.631 56.500 L 61.631 46.500 L 67.405 46.500 L 70.292 51.500 L 73.178 56.500 L 70.292 61.500 L 78.952 66.500 L 78.952 76.500 Z " fill="#d9e9f7" stroke="#666666" stroke-width="0.80" fill-rule="evenodd"/>
<path d="M 55.858 46.500 L 52.971 41.500 L 44.311 46.500 L 35.651 41.500 L 38.537 36.500 L 44.311 36.500 L 44.311 26.500 L 52.971 21.500 L 55.858 26.500 L 61.631 26.500 L 61.631 36.500 L 70.292 41.500 L 67.405 46.500 L 61.631 46.500 Z " fill="#d9e9f7" stroke="#666666" stroke-width="0.80" fill-rule="evenodd"/>
<circle cx="67.405" cy="46.500" r="2.1" fill="#000000" stroke="none"/>
<circle cx="67.405" cy="46.500" r="2.8" fill="#d60000" stroke="none"/>
<path d="M 170.460 49.000 L 173.347 54.000 L 176.234 59.000 L 182.007 59.000 L 182.007 69.000 L 190.668 74.000 L 193.554 69.000 L 190.668 64.000 L 199.328 59.000 L 199.328 49.000 L 205.101 49.000 L 207.988 44.000 L 216.648 49.000 L 225.309 44.000 L 222.422 39.000 L 216.648 39.000 L 216.648 29.000 L 207.988 24.000 L 205.101 29.000 L 199.328 29.000 L 199.328 39.000 L 190.668 44.000 L 182.007 49.000 L 173.347 44.000 Z " fill="#dddddd" stroke="black" stroke-width="1.50" fill-rule="evenodd"/>
<path d="M 216.648 29.000 L 207.988 24.000 L 205.101 29.000 L 199.328 29.000 L 199.328 39.000 L 190.668 44.000 L 193.554 49.000 L 199.328 49.000 L 205.101 49.000 L 207.988 44.000 L 216.648 49.000 L 225.309 44.000 L 222.422 39.000 L 216.648 39.000 Z " fill="#d9e9f7" stroke="#666666" stroke-width="0.80" fill-rule="evenodd"/>
<path d="M 170.460 49.000 L 173.347 54.000 L 176.234 59.000 L 182.007 59.000 L 182.007 69.000 L 190.668 74.000 L 193.554 69.000 L 190.668 64.000 L 199.328 59.000 L 199.328 49.000 L 193.554 49.000 L 190.668 44.000 L 182.007 49.000 L 173.347 44.000 Z " fill="#d9e9f7" stroke="#666666" stroke-width="0.80" fill-rule="evenodd"/>
<circle cx="193.554" cy="49.000" r="2.1" fill="#000000" stroke="none"/>
<circle cx="193.554" cy="49.000" r="2.8" fill="#d60000" stroke="none"/>
<path d="M 306.714 41.500 L 303.827 46.500 L 312.487 51.500 L 321.147 46.500 L 324.034 51.500 L 329.808 51.500 L 329.808 61.500 L 321.147 66.500 L 324.034 71.500 L 329.808 71.500 L 335.581 71.500 L 338.468 66.500 L 347.128 71.500 L 355.788 66.500 L 352.902 61.500 L 347.128 61.500 L 347.128 51.500 L 338.468 46.500 L 329.808 41.500 L 329.808 31.500 L 324.034 31.500 L 321.147 26.500 L 312.487 31.500 L 312.487 41.500 Z " fill="#dddddd" stroke="black" stroke-width="1.50" fill-rule="evenodd"/>
<path d="M 312.487 31.500 L 321.147 26.500 L 324.034 31.500 L 329.808 31.500 L 329.808 41.500 L 338.468 46.500 L 335.581 51.500 L 329.808 51.500 L 324.034 51.500 L 321.147 46.500 L 312.487 51.500 L 303.827 46.500 L 306.714 41.500 L 312.487 41.500 Z " fill="#d9e9f7" stroke="#666666" stroke-width="0.80" fill-rule="evenodd"/>
<path d="M 352.902 61.500 L 355.788 66.500 L 347.128 71.500 L 338.468 66.500 L 335.581 71.500 L 329.808 71.500 L 324.034 71.500 L 321.147 66.500 L 329.808 61.500 L 329.808 51.500 L 335.581 51.500 L 338.468 46.500 L 347.128 51.500 L 347.128 61.500 Z " fill="#bcd0e2" stroke="#666666" stroke-width="0.80" fill-rule="evenodd"/>
<circle cx="335.581" cy="51.500" r="2.1" fill="#000000" stroke="none"/>
<circle cx="335.581" cy="51.500" r="2.8" fill="#d60000" stroke="none"/>
<path d="M 437.193 36.500 L 434.307 41.500 L 442.967 46.500 L 451.627 41.500 L 454.514 46.500 L 460.287 46.500 L 460.287 56.500 L 451.627 61.500 L 454.514 66.500 L 451.627 71.500 L 460.287 76.500 L 468.948 71.500 L 471.834 76.500 L 477.608 76.500 L 477.608 66.500 L 468.948 61.500 L 471.834 56.500 L 468.948 51.500 L 477.608 46.500 L 477.608 36.500 L 483.381 36.500 L 486.268 31.500 L 489.155 26.500 L 486.268 21.500 L 477.608 26.500 L 468.948 21.500 L 466.061 26.500 L 460.287 26.500 L 454.514 26.500 L 451.627 21.500 L 442.967 26.500 L 442.967 36.500 Z " fill="#dddddd" stroke="black" stroke-width="1.50" fill-rule="evenodd"/>
<path d="M 460.287 76.500 L 451.627 71.500 L 454.514 66.500 L 451.627 61.500 L 460.287 56.500 L 460.287 46.500 L 466.061 46.500 L 468.948 51.500 L 471.834 56.500 L 468.948 61.500 L 477.608 66.500 L 477.608 76.500 L 471.834 76.500 L 468.948 71.500 Z " fill="#d9e9f7" stroke="#666666" stroke-width="0.80" fill-rule="evenodd"/>
<path d="M 437.193 36.500 L 442.967 36.500 L 442.967 26.500 L 451.627 21.500 L 454.514 26.500 L 460.287 26.500 L 460.287 36.500 L 468.948 41.500 L 466.061 46.500 L 460.287 46.500 L 454.514 46.500 L 451.627 41.500 L 442.967 46.500 L 434.307 41.500 Z " fill="#d9e9f7" stroke="#666666" stroke-width="0.80" fill-rule="evenodd"/>
<path d="M 466.061 26.500 L 468.948 21.500 L 477.608 26.500 L 486.268 21.500 L 489.155 26.500 L 486.268 31.500 L 483.381 36.500 L 477.608 36.500 L 477.608 46.500 L 468.948 51.500 L 466.061 46.500 L 468.948 41.500 L 460.287 36.500 L 460.287 26.500 Z " fill="#d9e9f7" stroke="#666666" stroke-width="0.80" fill-rule="evenodd"/>
<circle cx="466.061" cy="46.500" r="2.1" fill="#000000" stroke="none"/>
<circle cx="468.948" cy="41.500" r="2.1" fill="#000000" stroke="none"/>
<circle cx="460.287" cy="36.500" r="2.1" fill="#000000" stroke="none"/>
<circle cx="466.061" cy="46.500" r="2.8" fill="#d60000" stroke="none"/>
<path d="M 566.230 39.000 L 563.343 44.000 L 572.003 49.000 L 580.663 44.000 L 583.550 49.000 L 580.663 54.000 L 589.324 59.000 L 589.324 69.000 L 595.097 69.000 L 597.984 74.000 L 606.644 69.000 L 606.644 59.000 L 612.418 59.000 L 615.304 54.000 L 618.191 49.000 L 623.965 49.000 L 623.965 39.000 L 615.304 34.000 L 618.191 29.000 L 615.304 24.000 L 606.644 29.000 L 606.644 39.000 L 600.871 39.000 L 597.984 44.000 L 589.324 39.000 L 589.324 29.000 L 583.550 29.000 L 580.663 24.000 L 572.003 29.000 L 572.003 39.000 Z " fill="#dddddd" stroke="black" stroke-width="1.50" fill-rule="evenodd"/>
<path d="M 623.965 39.000 L 623.965 49.000 L 618.191 49.000 L 615.304 54.000 L 606.644 49.000 L 597.984 54.000 L 595.097 49.000 L 597.984 44.000 L 600.871 39.000 L 606.644 39.000 L 606.644 29.000 L 615.304 24.000 L 618.191 29.000 L 615.304 34.000 Z " fill="#d9e9f7" stroke="#666666" stroke-width="0.80" fill-rule="evenodd"/>
<path d="M 595.097 69.000 L 589.324 69.000 L 589.324 59.000 L 580.663 54.000 L 583.550 49.000 L 589.324 49.000 L 595.097 49.000 L 597.984 54.000 L 606.644 49.000 L 615.304 54.000 L 612.418 59.000 L 606.644 59.000 L 606.644 69.000 L 597.984 74.000 Z " fill="#d9e9f7" stroke="#666666" stroke-width="0.80" fill-rule="evenodd"/>
<path d="M 583.550 49.000 L 580.663 44.000 L 572.003 49.000 L 563.343 44.000 L 566.230 39.000 L 572.003 39.000 L 572.003 29.000 L 580.663 24.000 L 583.550 29.000 L 589.324 29.000 L 589.324 39.000 L 597.984 44.000 L 595.097 49.000 L 589.324 49.000 Z " fill="#d9e9f7" stroke="#666666" stroke-width="0.80" fill-rule="evenodd"/>
<circle cx="595.097" cy="49.000" r="2.1" fill="#000000" stroke="none"/>
<circle cx="589.324" cy="49.000" r="2.1" fill="#000000" stroke="none"/>
<circle cx="597.984" cy="54.000" r="2.1" fill="#000000" stroke="none"/>
<circle cx="606.644" cy="49.000" r="2.1" fill="#000000" stroke="none"/>
<circle cx="595.097" cy="49.000" r="2.8" fill="#d60000" stroke="none"/>
<path d="M 701.039 36.500 L 698.153 41.500 L 706.813 46.500 L 715.473 41.500 L 718.360 46.500 L 724.133 46.500 L 724.133 56.500 L 732.794 61.500 L 729.907 66.500 L 732.794 71.500 L 735.680 76.500 L 741.454 76.500 L 741.454 66.500 L 750.114 61.500 L 747.227 56.500 L 750.114 51.500 L 741.454 46.500 L 741.454 36.500 L 747.227 36.500 L 750.114 31.500 L 753.001 26.500 L 750.114 21.500 L 741.454 26.500 L 732.794 21.500 L 729.907 26.500 L 724.133 26.500 L 718.360 26.500 L 715.473 21.500 L 706.813 26.500 L 706.813 36.500 Z " fill="#dddddd" stroke="black" stroke-width="1.50" fill-rule="evenodd"/>
<path d="M 706.813 26.500 L 715.473 21.500 L 718.360 26.500 L 724.133 26.500 L 724.133 36.500 L 732.794 41.500 L 729.907 46.500 L 724.133 46.500 L 718.360 46.500 L 715.473 41.500 L 706.813 46.500 L 698.153 41.500 L 701.039 36.500 L 706.813 36.500 Z " fill="#d9e9f7" stroke="#666666" stroke-width="0.80" fill-rule="evenodd"/>
<path d="M 753.001 26.500 L 750.114 31.500 L 747.227 36.500 L 741.454 36.500 L 741.454 46.500 L 732.794 51.500 L 729.907 46.500 L 732.794 41.500 L 724.133 36.500 L 724.133 26.500 L 729.907 26.500 L 732.794 21.500 L 741.454 26.500 L 750.114 21.500 Z " fill="#d9e9f7" stroke="#666666" stroke-width="0.80" fill-rule="evenodd"/>
<path d="M 747.227 56.500 L 750.114 61.500 L 741.454 66.500 L 741.454 76.500 L 735.680 76.500 L 732.794 71.500 L 729.907 66.500 L 732.794 61.500 L 724.133 56.500 L 724.133 46.500 L 729.907 46.500 L 732.794 51.500 L 741.454 46.500 L 750.114 51.500 Z " fill="#d9e9f7" stroke="#666666" stroke-width="0.80" fill-rule="evenodd"/>
<circle cx="729.907" cy="46.500" r="2.1" fill="#000000" stroke="none"/>
<circle cx="732.794" cy="41.500" r="2.1" fill="#000000" stroke="none"/>
<circle cx="732.794" cy="51.500" r="2.1" fill="#000000" stroke="none"/>
<circle cx="724.133" cy="36.500" r="2.1" fill="#000000" stroke="none"/>
<circle cx="729.907" cy="46.500" r="2.8" fill="#d60000" stroke="none"/>
<path d="M 832.962 39.000 L 830.076 44.000 L 838.736 49.000 L 847.396 44.000 L 850.283 49.000 L 847.396 54.000 L 856.056 59.000 L 856.056 69.000 L 861.830 69.000 L 864.717 74.000 L 873.377 69.000 L 873.377 59.000 L 879.150 59.000 L 882.037 54.000 L 873.377 49.000 L 873.377 39.000 L 879.150 39.000 L 882.037 34.000 L 884.924 29.000 L 882.037 24.000 L 873.377 29.000 L 864.717 24.000 L 861.830 29.000 L 856.056 29.000 L 850.283 29.000 L 847.396 24.000 L 838.736 29.000 L 838.736 39.000 Z " fill="#dddddd" stroke="black" stroke-width="1.50" fill-rule="evenodd"/>
<path d="M 838.736 29.000 L 847.396 24.000 L 850.283 29.000 L 856.056 29.000 L 856.056 39.000 L 864.717 44.000 L 861.830 49.000 L 856.056 49.000 L 850.283 49.000 L 847.396 44.000 L 838.736 49.000 L 830.076 44.000 L 832.962 39.000 L 838.736 39.000 Z " fill="#d9e9f7" stroke="#666666" stroke-width="0.80" fill-rule="evenodd"/>
<path d="M 884.924 29.000 L 882.037 34.000 L 879.150 39.000 L 873.377 39.000 L 873.377 49.000 L 864.717 54.000 L 861.830 49.000 L 864.717 44.000 L 856.056 39.000 L 856.056 29.000 L 861.830 29.000 L 864.717 24.000 L 873.377 29.000 L 882.037 24.000 Z " fill="#d9e9f7" stroke="#666666" stroke-width="0.80" fill-rule="evenodd"/>
<path d="M 879.150 59.000 L 873.377 59.000 L 873.377 69.000 L 864.717 74.000 L 861.830 69.000 L 856.056 69.000 L 856.056 59.000 L 847.396 54.000 L 850.283 49.000 L 856.056 49.000 L 861.830 49.000 L 864.717 54.000 L 873.377 49.000 L 882.037 54.000 Z " fill="#d9e9f7" stroke="#666666" stroke-width="0.80" fill-rule="evenodd"/>
<circle cx="861.830" cy="49.000" r="2.1" fill="#000000" stroke="none"/>
<circle cx="856.056" cy="49.000" r="2.1" fill="#000000" stroke="none"/>
<circle cx="864.717" cy="44.000" r="2.1" fill="#000000" stroke="none"/>
<circle cx="864.717" cy="54.000" r="2.1" fill="#000000" stroke="none"/>
<circle cx="856.056" cy="39.000" r="2.1" fill="#000000" stroke="none"/>
<circle cx="861.830" cy="49.000" r="2.8" fill="#d60000" stroke="none"/>
<path d="M 966.329 44.000 L 969.216 49.000 L 972.102 54.000 L 977.876 54.000 L 977.876 64.000 L 986.536 69.000 L 989.423 64.000 L 986.536 59.000 L 995.196 54.000 L 1003.857 59.000 L 1006.743 54.000 L 1003.857 49.000 L 1012.517 44.000 L 1012.517 34.000 L 1006.743 34.000 L 1003.857 29.000 L 995.196 34.000 L 986.536 29.000 L 983.649 34.000 L 986.536 39.000 L 977.876 44.000 L 969.216 39.000 Z " fill="#dddddd" stroke="black" stroke-width="1.50" fill-rule="evenodd"/>
<path d="M 995.196 54.000 L 995.196 44.000 L 989.423 44.000 L 986.536 39.000 L 977.876 44.000 L 969.216 39.000 L 966.329 44.000 L 969.216 49.000 L 972.102 54.000 L 977.876 54.000 L 977.876 64.000 L 986.536 69.000 L 989.423 64.000 L 986.536 59.000 Z " fill="#d9e9f7" stroke="#666666" stroke-width="0.80" fill-rule="evenodd"/>
<path d="M 983.649 34.000 L 986.536 39.000 L 989.423 44.000 L 995.196 44.000 L 995.196 54.000 L 1003.857 59.000 L 1006.743 54.000 L 1003.857 49.000 L 1012.517 44.000 L 1012.517 34.000 L 1006.743 34.000 L 1003.857 29.000 L 995.196 34.000 L 986.536 29.000 Z " fill="#d9e9f7" stroke="#666666" stroke-width="0.80" fill-rule="evenodd"/>
<circle cx="989.423" cy="44.000" r="2.1" fill="#000000" stroke="none"/>
<circle cx="995.196" cy="44.000" r="2.1" fill="#000000" stroke="none"/>
<circle cx="989.423" cy="44.000" r="2.8" fill="#d60000" stroke="none"/>
<path d="M 38.537 139.500 L 41.424 144.500 L 44.311 149.500 L 50.084 149.500 L 50.084 159.500 L 58.745 164.500 L 61.631 159.500 L 58.745 154.500 L 67.405 149.500 L 76.065 154.500 L 78.952 149.500 L 84.725 149.500 L 84.725 139.500 L 93.386 134.500 L 90.499 129.500 L 84.725 129.500 L 78.952 129.500 L 76.065 134.500 L 67.405 129.500 L 58.745 134.500 L 50.084 139.500 L 41.424 134.500 Z " fill="#dddddd" stroke="black" stroke-width="1.50" fill-rule="evenodd"/>
<path d="M 67.405 149.500 L 67.405 139.500 L 61.631 139.500 L 58.745 134.500 L 50.084 139.500 L 41.424 134.500 L 38.537 139.500 L 41.424 144.500 L 44.311 149.500 L 50.084 149.500 L 50.084 159.500 L 58.745 164.500 L 61.631 159.500 L 58.745 154.500 Z " fill="#d9e9f7" stroke="#666666" stroke-width="0.80" fill-rule="evenodd"/>
<path d="M 78.952 129.500 L 76.065 134.500 L 67.405 129.500 L 58.745 134.500 L 61.631 139.500 L 67.405 139.500 L 67.405 149.500 L 76.065 154.500 L 78.952 149.500 L 84.725 149.500 L 84.725 139.500 L 93.386 134.500 L 90.499 129.500 L 84.725 129.500 Z " fill="#d9e9f7" stroke="#666666" stroke-width="0.80" fill-rule="evenodd"/>
<circle cx="61.631" cy="139.500" r="2.1" fill="#000000" stroke="none"/>
<circle cx="67.405" cy="139.500" r="2.1" fill="#000000" stroke="none"/>
<circle cx="61.631" cy="139.500" r="2.8" fill="#d60000" stroke="none"/>
<path d="M 174.791 152.000 L 171.904 157.000 L 180.564 162.000 L 189.224 157.000 L 192.111 162.000 L 197.885 162.000 L 203.658 162.000 L 206.545 157.000 L 209.432 152.000 L 215.205 152.000 L 215.205 142.000 L 223.865 137.000 L 220.979 132.000 L 215.205 132.000 L 209.432 132.000 L 206.545 137.000 L 197.885 132.000 L 189.224 137.000 L 180.564 142.000 L 180.564 152.000 Z " fill="#dddddd" stroke="black" stroke-width="1.50" fill-rule="evenodd"/>
<path d="M 180.564 142.000 L 189.224 137.000 L 192.111 142.000 L 197.885 142.000 L 197.885 152.000 L 206.545 157.000 L 203.658 162.000 L 197.885 162.000 L 192.111 162.000 L 189.224 157.000 L 180.564 162.000 L 171.904 157.000 L 174.791 152.000 L 180.564 152.000 Z " fill="#d9e9f7" stroke="#666666" stroke-width="0.80" fill-rule="evenodd"/>
<path d="M 220.979 132.000 L 223.865 137.000 L 215.205 142.000 L 215.205 152.000 L 209.432 152.000 L 206.545 157.000 L 197.885 152.000 L 197.885 142.000 L 192.111 142.000 L 189.224 137.000 L 197.885 132.000 L 206.545 137.000 L 209.432 132.000 L 215.205 132.000 Z " fill="#bcd0e2" stroke="#666666" stroke-width="0.80" fill-rule="evenodd"/>
<circle cx="192.111" cy="142.000" r="2.1" fill="#000000" stroke="none"/>
<circle cx="197.885" cy="142.000" r="2.1" fill="#000000" stroke="none"/>
<circle cx="197.885" cy="152.000" r="2.1" fill="#000000" stroke="none"/>
<circle cx="192.111" cy="142.000" r="2.8" fill="#d60000" stroke="none"/>
<path d="M 311.044 147.000 L 313.930 152.000 L 316.817 157.000 L 322.591 157.000 L 322.591 167.000 L 331.251 172.000 L 334.138 167.000 L 331.251 162.000 L 339.911 157.000 L 339.911 147.000 L 345.685 147.000 L 348.572 142.000 L 339.911 137.000 L 339.911 127.000 L 334.138 127.000 L 331.251 122.000 L 322.591 127.000 L 322.591 137.000 L 316.817 137.000 L 313.930 142.000 Z " fill="#dddddd" stroke="black" stroke-width="1.50" fill-rule="evenodd"/>
<path d="M 339.911 157.000 L 339.911 147.000 L 334.138 147.000 L 331.251 142.000 L 322.591 147.000 L 313.930 142.000 L 311.044 147.000 L 313.930 152.000 L 316.817 157.000 L 322.591 157.000 L 322.591 167.000 L 331.251 172.000 L 334.138 167.000 L 331.251 162.000 Z " fill="#d9e9f7" stroke="#666666" stroke-width="0.80" fill-rule="evenodd"/>
<path d="M 334.138 127.000 L 331.251 122.000 L 322.591 127.000 L 322.591 137.000 L 316.817 137.000 L 313.930 142.000 L 322.591 147.000 L 331.251 142.000 L 334.138 147.000 L 339.911 147.000 L 345.685 147.000 L 348.572 142.000 L 339.911 137.000 L 339.911 127.000 Z " fill="#bcd0e2" stroke="#666666" stroke-width="0.80" fill-rule="evenodd"/>
<circle cx="334.138" cy="147.000" r="2.1" fill="#000000" stroke="none"/>
<circle cx="331.251" cy="142.000" r="2.1" fill="#000000" stroke="none"/>
<circle cx="322.591" cy="147.000" r="2.1" fill="#000000" stroke="none"/>
<circle cx="334.138" cy="147.000" r="2.8" fill="#d60000" stroke="none"/>
<path d="M 437.193 134.500 L 434.307 139.500 L 442.967 144.500 L 442.967 154.500 L 448.740 154.500 L 451.627 159.500 L 460.287 154.500 L 468.948 159.500 L 466.061 164.500 L 468.948 169.500 L 471.834 174.500 L 477.608 174.500 L 477.608 164.500 L 486.268 159.500 L 483.381 154.500 L 486.268 149.500 L 477.608 144.500 L 477.608 134.500 L 483.381 134.500 L 486.268 129.500 L 489.155 124.500 L 486.268 119.500 L 477.608 124.500 L 468.948 119.500 L 466.061 124.500 L 460.287 124.500 L 460.287 134.500 L 451.627 139.500 L 448.740 134.500 L 442.967 134.500 Z " fill="#dddddd" stroke="black" stroke-width="1.50" fill-rule="evenodd"/>
<path d="M 460.287 154.500 L 451.627 159.500 L 448.740 154.500 L 442.967 154.500 L 442.967 144.500 L 434.307 139.500 L 437.193 134.500 L 442.967 134.500 L 448.740 134.500 L 451.627 139.500 L 460.287 134.500 L 468.948 139.500 L 466.061 144.500 L 460.287 144.500 Z " fill="#d9e9f7" stroke="#666666" stroke-width="0.80" fill-rule="evenodd"/>
<path d="M 466.061 144.500 L 468.948 139.500 L 460.287 134.500 L 460.287 124.500 L 466.061 124.500 L 468.948 119.500 L 477.608 124.500 L 486.268 119.500 L 489.155 124.500 L 486.268 129.500 L 483.381 134.500 L 477.608 134.500 L 477.608 144.500 L 468.948 149.500 Z " fill="#d9e9f7" stroke="#666666" stroke-width="0.80" fill-rule="evenodd"/>
<path d="M 466.061 164.500 L 468.948 159.500 L 460.287 154.500 L 460.287 144.500 L 466.061 144.500 L 468.948 149.500 L 477.608 144.500 L 486.268 149.500 L 483.381 154.500 L 486.268 159.500 L 477.608 164.500 L 477.608 174.500 L 471.834 174.500 L 468.948 169.500 Z " fill="#d9e9f7" stroke="#666666" stroke-width="0.80" fill-rule="evenodd"/>
<circle cx="466.061" cy="144.500" r="2.1" fill="#000000" stroke="none"/>
<circle cx="460.287" cy="144.500" r="2.1" fill="#000000" stroke="none"/>
<circle cx="468.948" cy="139.500" r="2.1" fill="#000000" stroke="none"/>
<circle cx="468.948" cy="149.500" r="2.1" fill="#000000" stroke="none"/>
<circle cx="466.061" cy="144.500" r="2.8" fill="#d60000" stroke="none"/>
<path d="M 570.560 152.000 L 567.673 157.000 L 576.333 162.000 L 584.993 157.000 L 587.880 162.000 L 593.654 162.000 L 599.427 162.000 L 602.314 157.000 L 605.201 152.000 L 610.974 152.000 L 610.974 142.000 L 619.634 137.000 L 616.748 132.000 L 610.974 132.000 L 605.201 132.000 L 602.314 137.000 L 593.654 132.000 L 584.993 137.000 L 576.333 142.000 L 576.333 152.000 Z " fill="#dddddd" stroke="black" stroke-width="1.50" fill-rule="evenodd"/>
<path d="M 576.333 142.000 L 584.993 137.000 L 587.880 142.000 L 593.654 142.000 L 593.654 152.000 L 602.314 157.000 L 599.427 162.000 L 593.654 162.000 L 587.880 162.000 L 584.993 157.000 L 576.333 162.000 L 567.673 157.000 L 570.560 152.000 L 576.333 152.000 Z " fill="#d9e9f7" stroke="#666666" stroke-width="0.80" fill-rule="evenodd"/>
<path d="M 616.748 132.000 L 619.634 137.000 L 610.974 142.000 L 610.974 152.000 L 605.201 152.000 L 602.314 157.000 L 593.654 152.000 L 593.654 142.000 L 587.880 142.000 L 584.993 137.000 L 593.654 132.000 L 602.314 137.000 L 605.201 132.000 L 610.974 132.000 Z " fill="#bcd0e2" stroke="#666666" stroke-width="0.80" fill-rule="evenodd"/>
<circle cx="587.880" cy="142.000" r="2.1" fill="#000000" stroke="none"/>
<circle cx="593.654" cy="142.000" r="2.1" fill="#000000" stroke="none"/>
<circle cx="593.654" cy="152.000" r="2.1" fill="#000000" stroke="none"/>
<circle cx="593.654" cy="142.000" r="2.8" fill="#d60000" stroke="none"/>
<path d="M 706.813 147.000 L 709.700 152.000 L 712.586 157.000 L 718.360 157.000 L 718.360 167.000 L 727.020 172.000 L 729.907 167.000 L 727.020 162.000 L 735.680 157.000 L 735.680 147.000 L 741.454 147.000 L 744.341 142.000 L 735.680 137.000 L 735.680 127.000 L 729.907 127.000 L 727.020 122.000 L 718.360 127.000 L 718.360 137.000 L 712.586 137.000 L 709.700 142.000 Z " fill="#dddddd" stroke="black" stroke-width="1.50" fill-rule="evenodd"/>
<path d="M 735.680 157.000 L 735.680 147.000 L 729.907 147.000 L 727.020 142.000 L 718.360 147.000 L 709.700 142.000 L 706.813 147.000 L 709.700 152.000 L 712.586 157.000 L 718.360 157.000 L 718.360 167.000 L 727.020 172.000 L 729.907 167.000 L 727.020 162.000 Z " fill="#d9e9f7" stroke="#666666" stroke-width="0.80" fill-rule="evenodd"/>
<path d="M 729.907 127.000 L 727.020 122.000 L 718.360 127.000 L 718.360 137.000 L 712.586 137.000 L 709.700 142.000 L 718.360 147.000 L 727.020 142.000 L 729.907 147.000 L 735.680 147.000 L 741.454 147.000 L 744.341 142.000 L 735.680 137.000 L 735.680 127.000 Z " fill="#bcd0e2" stroke="#666666" stroke-width="0.80" fill-rule="evenodd"/>
<circle cx="729.907" cy="147.000" r="2.1" fill="#000000" stroke="none"/>
<circle cx="727.020" cy="142.000" r="2.1" fill="#000000" stroke="none"/>
<circle cx="718.360" cy="147.000" r="2.1" fill="#000000" stroke="none"/>
<circle cx="727.020" cy="142.000" r="2.8" fill="#d60000" stroke="none"/>
<path d="M 834.406 134.500 L 831.519 139.500 L 840.179 144.500 L 840.179 154.500 L 834.406 154.500 L 831.519 159.500 L 840.179 164.500 L 848.840 159.500 L 851.726 164.500 L 857.500 164.500 L 863.273 164.500 L 866.160 169.500 L 869.047 174.500 L 874.820 174.500 L 874.820 164.500 L 883.481 159.500 L 880.594 154.500 L 883.481 149.500 L 874.820 144.500 L 866.160 149.500 L 863.273 144.500 L 866.160 139.500 L 857.500 134.500 L 857.500 124.500 L 851.726 124.500 L 848.840 119.500 L 840.179 124.500 L 840.179 134.500 Z " fill="#dddddd" stroke="black" stroke-width="1.50" fill-rule="evenodd"/>
<path d="M 840.179 144.500 L 848.840 139.500 L 851.726 144.500 L 857.500 144.500 L 857.500 154.500 L 866.160 159.500 L 863.273 164.500 L 857.500 164.500 L 851.726 164.500 L 848.840 159.500 L 840.179 164.500 L 831.519 159.500 L 834.406 154.500 L 840.179 154.500 Z " fill="#d9e9f7" stroke="#666666" stroke-width="0.80" fill-rule="evenodd"/>
<path d="M 863.273 144.500 L 857.500 144.500 L 851.726 144.500 L 848.840 139.500 L 840.179 144.500 L 831.519 139.500 L 834.406 134.500 L 840.179 134.500 L 840.179 124.500 L 848.840 119.500 L 851.726 124.500 L 857.500 124.500 L 857.500 134.500 L 866.160 139.500 Z " fill="#d9e9f7" stroke="#666666" stroke-width="0.80" fill-rule="evenodd"/>
<path d="M 880.594 154.500 L 883.481 159.500 L 874.820 164.500 L 874.820 174.500 L 869.047 174.500 L 866.160 169.500 L 863.273 164.500 L 866.160 159.500 L 857.500 154.500 L 857.500 144.500 L 863.273 144.500 L 866.160 149.500 L 874.820 144.500 L 883.481 149.500 Z " fill="#d9e9f7" stroke="#666666" stroke-width="0.80" fill-rule="evenodd"/>
<circle cx="851.726" cy="144.500" r="2.1" fill="#000000" stroke="none"/>
<circle cx="848.840" cy="139.500" r="2.1" fill="#000000" stroke="none"/>
<circle cx="857.500" cy="144.500" r="2.1" fill="#000000" stroke="none"/>
<circle cx="866.160" cy="159.500" r="2.1" fill="#000000" stroke="none"/>
<circle cx="857.500" cy="154.500" r="2.1" fill="#000000" stroke="none"/>
<circle cx="857.500" cy="144.500" r="2.8" fill="#d60000" stroke="none"/>
<path d="M 961.999 147.000 L 964.885 152.000 L 967.772 157.000 L 973.546 157.000 L 973.546 167.000 L 982.206 172.000 L 985.093 167.000 L 990.866 167.000 L 996.640 167.000 L 999.526 162.000 L 1008.187 167.000 L 1016.847 162.000 L 1013.960 157.000 L 1008.187 157.000 L 1008.187 147.000 L 1016.847 142.000 L 1013.960 137.000 L 1008.187 137.000 L 1008.187 127.000 L 999.526 122.000 L 996.640 127.000 L 990.866 127.000 L 990.866 137.000 L 982.206 142.000 L 973.546 147.000 L 964.885 142.000 Z " fill="#dddddd" stroke="black" stroke-width="1.50" fill-rule="evenodd"/>
<path d="M 1008.187 147.000 L 999.526 142.000 L 996.640 147.000 L 990.866 147.000 L 990.866 157.000 L 982.206 162.000 L 985.093 167.000 L 990.866 167.000 L 996.640 167.000 L 999.526 162.000 L 1008.187 167.000 L 1016.847 162.000 L 1013.960 157.000 L 1008.187 157.000 Z " fill="#d9e9f7" stroke="#666666" stroke-width="0.80" fill-rule="evenodd"/>
<path d="M 985.093 147.000 L 990.866 147.000 L 996.640 147.000 L 999.526 142.000 L 1008.187 147.000 L 1016.847 142.000 L 1013.960 137.000 L 1008.187 137.000 L 1008.187 127.000 L 999.526 122.000 L 996.640 127.000 L 990.866 127.000 L 990.866 137.000 L 982.206 142.000 Z " fill="#d9e9f7" stroke="#666666" stroke-width="0.80" fill-rule="evenodd"/>
<path d="M 961.999 147.000 L 964.885 152.000 L 967.772 157.000 L 973.546 157.000 L 973.546 167.000 L 982.206 172.000 L 985.093 167.000 L 982.206 162.000 L 990.866 157.000 L 990.866 147.000 L 985.093 147.000 L 982.206 142.000 L 973.546 147.000 L 964.885 142.000 Z " fill="#d9e9f7" stroke="#666666" stroke-width="0.80" fill-rule="evenodd"/>
<circle cx="985.093" cy="147.000" r="2.1" fill="#000000" stroke="none"/>
<circle cx="996.640" cy="147.000" r="2.1" fill="#000000" stroke="none"/>
<circle cx="990.866" cy="147.000" r="2.1" fill="#000000" stroke="none"/>
<circle cx="999.526" cy="142.000" r="2.1" fill="#000000" stroke="none"/>
<circle cx="982.206" cy="162.000" r="2.1" fill="#000000" stroke="none"/>
<circle cx="990.866" cy="157.000" r="2.1" fill="#000000" stroke="none"/>
<circle cx="990.866" cy="147.000" r="2.8" fill="#d60000" stroke="none"/>
<path d="M 38.537 245.000 L 41.424 250.000 L 44.311 255.000 L 50.084 255.000 L 50.084 265.000 L 58.745 270.000 L 61.631 265.000 L 67.405 265.000 L 73.178 265.000 L 76.065 260.000 L 84.725 265.000 L 93.386 260.000 L 90.499 255.000 L 84.725 255.000 L 84.725 245.000 L 76.065 240.000 L 67.405 235.000 L 67.405 225.000 L 61.631 225.000 L 58.745 220.000 L 50.084 225.000 L 50.084 235.000 L 44.311 235.000 L 41.424 240.000 Z " fill="#dddddd" stroke="black" stroke-width="1.50" fill-rule="evenodd"/>
<path d="M 84.725 245.000 L 76.065 240.000 L 73.178 245.000 L 67.405 245.000 L 67.405 255.000 L 58.745 260.000 L 61.631 265.000 L 67.405 265.000 L 73.178 265.000 L 76.065 260.000 L 84.725 265.000 L 93.386 260.000 L 90.499 255.000 L 84.725 255.000 Z " fill="#d9e9f7" stroke="#666666" stroke-width="0.80" fill-rule="evenodd"/>
<path d="M 44.311 235.000 L 41.424 240.000 L 50.084 245.000 L 58.745 240.000 L 61.631 245.000 L 67.405 245.000 L 73.178 245.000 L 76.065 240.000 L 67.405 235.000 L 67.405 225.000 L 61.631 225.000 L 58.745 220.000 L 50.084 225.000 L 50.084 235.000 Z " fill="#bcd0e2" stroke="#666666" stroke-width="0.80" fill-rule="evenodd"/>
<path d="M 38.537 245.000 L 41.424 250.000 L 44.311 255.000 L 50.084 255.000 L 50.084 265.000 L 58.745 270.000 L 61.631 265.000 L 58.745 260.000 L 67.405 255.000 L 67.405 245.000 L 61.631 245.000 L 58.745 240.000 L 50.084 245.000 L 41.424 240.000 Z " fill="#d9e9f7" stroke="#666666" stroke-width="0.80" fill-rule="evenodd"/>
<circle cx="61.631" cy="245.000" r="2.1" fill="#000000" stroke="none"/>
<circle cx="73.178" cy="245.000" r="2.1" fill="#000000" stroke="none"/>
<circle cx="58.745" cy="240.000" r="2.1" fill="#000000" stroke="none"/>
<circle cx="67.405" cy="245.000" r="2.1" fill="#000000" stroke="none"/>
<circle cx="58.745" cy="260.000" r="2.1" fill="#000000" stroke="none"/>
<circle cx="50.084" cy="245.000" r="2.1" fill="#000000" stroke="none"/>
<circle cx="67.405" cy="255.000" r="2.1" fill="#000000" stroke="none"/>
<circle cx="67.405" cy="245.000" r="2.8" fill="#d60000" stroke="none"/>
<path d="M 166.130 240.000 L 163.244 245.000 L 171.904 250.000 L 171.904 260.000 L 177.677 260.000 L 180.564 265.000 L 189.224 260.000 L 189.224 250.000 L 194.998 250.000 L 197.885 255.000 L 200.771 260.000 L 206.545 260.000 L 206.545 270.000 L 215.205 275.000 L 218.092 270.000 L 215.205 265.000 L 223.865 260.000 L 223.865 250.000 L 229.639 250.000 L 232.526 245.000 L 223.865 240.000 L 223.865 230.000 L 218.092 230.000 L 215.205 225.000 L 206.545 230.000 L 197.885 225.000 L 200.771 220.000 L 197.885 215.000 L 189.224 220.000 L 189.224 230.000 L 183.451 230.000 L 180.564 235.000 L 177.677 240.000 L 171.904 240.000 Z " fill="#dddddd" stroke="black" stroke-width="1.50" fill-rule="evenodd"/>
<path d="M 206.545 230.000 L 206.545 240.000 L 200.771 240.000 L 197.885 245.000 L 189.224 240.000 L 180.564 245.000 L 177.677 240.000 L 180.564 235.000 L 183.451 230.000 L 189.224 230.000 L 189.224 220.000 L 197.885 215.000 L 200.771 220.000 L 197.885 225.000 Z " fill="#d9e9f7" stroke="#666666" stroke-width="0.80" fill-rule="evenodd"/>
<path d="M 218.092 250.000 L 215.205 245.000 L 206.545 250.000 L 197.885 245.000 L 200.771 240.000 L 206.545 240.000 L 206.545 230.000 L 215.205 225.000 L 218.092 230.000 L 223.865 230.000 L 223.865 240.000 L 232.526 245.000 L 229.639 250.000 L 223.865 250.000 Z " fill="#d9e9f7" stroke="#666666" stroke-width="0.80" fill-rule="evenodd"/>
<path d="M 218.092 270.000 L 215.205 275.000 L 206.545 270.000 L 206.545 260.000 L 200.771 260.000 L 197.885 255.000 L 194.998 250.000 L 197.885 245.000 L 206.545 250.000 L 215.205 245.000 L 218.092 250.000 L 223.865 250.000 L 223.865 260.000 L 215.205 265.000 Z " fill="#bcd0e2" stroke="#666666" stroke-width="0.80" fill-rule="evenodd"/>
<path d="M 177.677 260.000 L 171.904 260.000 L 171.904 250.000 L 163.244 245.000 L 166.130 240.000 L 171.904 240.000 L 177.677 240.000 L 180.564 245.000 L 189.224 240.000 L 197.885 245.000 L 194.998 250.000 L 189.224 250.000 L 189.224 260.000 L 180.564 265.000 Z " fill="#d9e9f7" stroke="#666666" stroke-width="0.80" fill-rule="evenodd"/>
<circle cx="200.771" cy="240.000" r="2.1" fill="#000000" stroke="none"/>
<circle cx="218.092" cy="250.000" r="2.1" fill="#000000" stroke="none"/>
<circle cx="180.564" cy="245.000" r="2.1" fill="#000000" stroke="none"/>
<circle cx="197.885" cy="245.000" r="2.1" fill="#000000" stroke="none"/>
<circle cx="206.545" cy="240.000" r="2.1" fill="#000000" stroke="none"/>
<circle cx="215.205" cy="245.000" r="2.1" fill="#000000" stroke="none"/>
<circle cx="189.224" cy="240.000" r="2.1" fill="#000000" stroke="none"/>
<circle cx="206.545" cy="250.000" r="2.1" fill="#000000" stroke="none"/>
<circle cx="197.885" cy="245.000" r="2.8" fill="#d60000" stroke="none"/>
<path d="M 298.053 240.000 L 295.167 245.000 L 303.827 250.000 L 303.827 260.000 L 309.600 260.000 L 312.487 265.000 L 321.147 260.000 L 329.808 265.000 L 326.921 270.000 L 329.808 275.000 L 338.468 270.000 L 338.468 260.000 L 344.241 260.000 L 347.128 255.000 L 350.015 250.000 L 355.788 250.000 L 361.562 250.000 L 364.449 245.000 L 355.788 240.000 L 355.788 230.000 L 350.015 230.000 L 347.128 225.000 L 338.468 230.000 L 329.808 225.000 L 332.694 220.000 L 329.808 215.000 L 321.147 220.000 L 321.147 230.000 L 315.374 230.000 L 312.487 235.000 L 309.600 240.000 L 303.827 240.000 Z " fill="#dddddd" stroke="black" stroke-width="1.50" fill-rule="evenodd"/>
<path d="M 338.468 230.000 L 338.468 240.000 L 332.694 240.000 L 329.808 245.000 L 321.147 240.000 L 312.487 245.000 L 309.600 240.000 L 312.487 235.000 L 315.374 230.000 L 321.147 230.000 L 321.147 220.000 L 329.808 215.000 L 332.694 220.000 L 329.808 225.000 Z " fill="#d9e9f7" stroke="#666666" stroke-width="0.80" fill-rule="evenodd"/>
<path d="M 350.015 250.000 L 347.128 245.000 L 338.468 250.000 L 329.808 245.000 L 332.694 240.000 L 338.468 240.000 L 338.468 230.000 L 347.128 225.000 L 350.015 230.000 L 355.788 230.000 L 355.788 240.000 L 364.449 245.000 L 361.562 250.000 L 355.788 250.000 Z " fill="#d9e9f7" stroke="#666666" stroke-width="0.80" fill-rule="evenodd"/>
<path d="M 326.921 270.000 L 329.808 265.000 L 321.147 260.000 L 321.147 250.000 L 326.921 250.000 L 329.808 245.000 L 338.468 250.000 L 347.128 245.000 L 350.015 250.000 L 347.128 255.000 L 344.241 260.000 L 338.468 260.000 L 338.468 270.000 L 329.808 275.000 Z " fill="#d9e9f7" stroke="#666666" stroke-width="0.80" fill-rule="evenodd"/>
<path d="M 309.600 260.000 L 303.827 260.000 L 303.827 250.000 L 295.167 245.000 L 298.053 240.000 L 303.827 240.000 L 309.600 240.000 L 312.487 245.000 L 321.147 240.000 L 329.808 245.000 L 326.921 250.000 L 321.147 250.000 L 321.147 260.000 L 312.487 265.000 Z " fill="#d9e9f7" stroke="#666666" stroke-width="0.80" fill-rule="evenodd"/>
<circle cx="326.921" cy="250.000" r="2.1" fill="#000000" stroke="none"/>
<circle cx="332.694" cy="240.000" r="2.1" fill="#000000" stroke="none"/>
<circle cx="312.487" cy="245.000" r="2.1" fill="#000000" stroke="none"/>
<circle cx="321.147" cy="250.000" r="2.1" fill="#000000" stroke="none"/>
<circle cx="329.808" cy="245.000" r="2.1" fill="#000000" stroke="none"/>
<circle cx="338.468" cy="240.000" r="2.1" fill="#000000" stroke="none"/>
<circle cx="347.128" cy="245.000" r="2.1" fill="#000000" stroke="none"/>
<circle cx="321.147" cy="240.000" r="2.1" fill="#000000" stroke="none"/>
<circle cx="338.468" cy="250.000" r="2.1" fill="#000000" stroke="none"/>
<circle cx="329.808" cy="245.000" r="2.8" fill="#d60000" stroke="none"/>
<path d="M 437.193 232.500 L 431.420 232.500 L 431.420 242.500 L 440.080 247.500 L 437.193 252.500 L 440.080 257.500 L 442.967 262.500 L 440.080 267.500 L 448.740 272.500 L 457.401 267.500 L 460.287 272.500 L 466.061 272.500 L 471.834 272.500 L 474.721 267.500 L 466.061 262.500 L 466.061 252.500 L 471.834 252.500 L 474.721 247.500 L 483.381 252.500 L 492.042 247.500 L 489.155 242.500 L 483.381 242.500 L 483.381 232.500 L 474.721 227.500 L 477.608 222.500 L 474.721 217.500 L 466.061 222.500 L 457.401 217.500 L 454.514 222.500 L 448.740 222.500 L 448.740 232.500 L 440.080 237.500 Z " fill="#dddddd" stroke="black" stroke-width="1.50" fill-rule="evenodd"/>
<path d="M 448.740 232.500 L 457.401 237.500 L 454.514 242.500 L 457.401 247.500 L 448.740 252.500 L 448.740 262.500 L 442.967 262.500 L 440.080 257.500 L 437.193 252.500 L 440.080 247.500 L 431.420 242.500 L 431.420 232.500 L 437.193 232.500 L 440.080 237.500 Z " fill="#d9e9f7" stroke="#666666" stroke-width="0.80" fill-rule="evenodd"/>
<path d="M 471.834 232.500 L 466.061 232.500 L 466.061 242.500 L 457.401 247.500 L 454.514 242.500 L 457.401 237.500 L 448.740 232.500 L 448.740 222.500 L 454.514 222.500 L 457.401 217.500 L 466.061 222.500 L 474.721 217.500 L 477.608 222.500 L 474.721 227.500 Z " fill="#d9e9f7" stroke="#666666" stroke-width="0.80" fill-rule="evenodd"/>
<path d="M 489.155 242.500 L 492.042 247.500 L 483.381 252.500 L 474.721 247.500 L 471.834 252.500 L 466.061 252.500 L 460.287 252.500 L 457.401 247.500 L 466.061 242.500 L 466.061 232.500 L 471.834 232.500 L 474.721 227.500 L 483.381 232.500 L 483.381 242.500 Z " fill="#bcd0e2" stroke="#666666" stroke-width="0.80" fill-rule="evenodd"/>
<path d="M 471.834 272.500 L 466.061 272.500 L 460.287 272.500 L 457.401 267.500 L 448.740 272.500 L 440.080 267.500 L 442.967 262.500 L 448.740 262.500 L 448.740 252.500 L 457.401 247.500 L 460.287 252.500 L 466.061 252.500 L 466.061 262.500 L 474.721 267.500 Z " fill="#d9e9f7" stroke="#666666" stroke-width="0.80" fill-rule="evenodd"/>
<circle cx="454.514" cy="242.500" r="2.1" fill="#000000" stroke="none"/>
<circle cx="460.287" cy="252.500" r="2.1" fill="#000000" stroke="none"/>
<circle cx="471.834" cy="232.500" r="2.1" fill="#000000" stroke="none"/>
<circle cx="457.401" cy="237.500" r="2.1" fill="#000000" stroke="none"/>
<circle cx="466.061" cy="232.500" r="2.1" fill="#000000" stroke="none"/>
<circle cx="457.401" cy="247.500" r="2.1" fill="#000000" stroke="none"/>
<circle cx="448.740" cy="262.500" r="2.1" fill="#000000" stroke="none"/>
<circle cx="448.740" cy="252.500" r="2.1" fill="#000000" stroke="none"/>
<circle cx="466.061" cy="242.500" r="2.1" fill="#000000" stroke="none"/>
<circle cx="457.401" cy="247.500" r="2.8" fill="#d60000" stroke="none"/>
<path d="M 561.899 237.500 L 559.013 242.500 L 567.673 247.500 L 576.333 242.500 L 579.220 247.500 L 584.993 247.500 L 584.993 257.500 L 593.654 262.500 L 590.767 267.500 L 593.654 272.500 L 602.314 267.500 L 602.314 257.500 L 608.087 257.500 L 610.974 252.500 L 613.861 247.500 L 619.634 247.500 L 625.408 247.500 L 628.295 242.500 L 619.634 237.500 L 619.634 227.500 L 613.861 227.500 L 610.974 222.500 L 608.087 217.500 L 602.314 217.500 L 596.540 217.500 L 593.654 222.500 L 584.993 217.500 L 576.333 222.500 L 567.673 227.500 L 567.673 237.500 Z " fill="#dddddd" stroke="black" stroke-width="1.50" fill-rule="evenodd"/>
<path d="M 584.993 257.500 L 584.993 247.500 L 590.767 247.500 L 593.654 242.500 L 602.314 247.500 L 610.974 242.500 L 613.861 247.500 L 610.974 252.500 L 608.087 257.500 L 602.314 257.500 L 602.314 267.500 L 593.654 272.500 L 590.767 267.500 L 593.654 262.500 Z " fill="#d9e9f7" stroke="#666666" stroke-width="0.80" fill-rule="evenodd"/>
<path d="M 579.220 227.500 L 584.993 227.500 L 584.993 237.500 L 593.654 242.500 L 590.767 247.500 L 584.993 247.500 L 579.220 247.500 L 576.333 242.500 L 567.673 247.500 L 559.013 242.500 L 561.899 237.500 L 567.673 237.500 L 567.673 227.500 L 576.333 222.500 Z " fill="#d9e9f7" stroke="#666666" stroke-width="0.80" fill-rule="evenodd"/>
<path d="M 608.087 217.500 L 610.974 222.500 L 602.314 227.500 L 602.314 237.500 L 596.540 237.500 L 593.654 242.500 L 584.993 237.500 L 584.993 227.500 L 579.220 227.500 L 576.333 222.500 L 584.993 217.500 L 593.654 222.500 L 596.540 217.500 L 602.314 217.500 Z " fill="#bcd0e2" stroke="#666666" stroke-width="0.80" fill-rule="evenodd"/>
<path d="M 613.861 227.500 L 619.634 227.500 L 619.634 237.500 L 628.295 242.500 L 625.408 247.500 L 619.634 247.500 L 613.861 247.500 L 610.974 242.500 L 602.314 247.500 L 593.654 242.500 L 596.540 237.500 L 602.314 237.500 L 602.314 227.500 L 610.974 222.500 Z " fill="#d9e9f7" stroke="#666666" stroke-width="0.80" fill-rule="evenodd"/>
<circle cx="579.220" cy="227.500" r="2.1" fill="#000000" stroke="none"/>
<circle cx="590.767" cy="247.500" r="2.1" fill="#000000" stroke="none"/>
<circle cx="596.540" cy="237.500" r="2.1" fill="#000000" stroke="none"/>
<circle cx="584.993" cy="227.500" r="2.1" fill="#000000" stroke="none"/>
<circle cx="593.654" cy="242.500" r="2.1" fill="#000000" stroke="none"/>
<circle cx="602.314" cy="237.500" r="2.1" fill="#000000" stroke="none"/>
<circle cx="610.974" cy="242.500" r="2.1" fill="#000000" stroke="none"/>
<circle cx="584.993" cy="237.500" r="2.1" fill="#000000" stroke="none"/>
<circle cx="602.314" cy="227.500" r="2.1" fill="#000000" stroke="none"/>
<circle cx="602.314" cy="247.500" r="2.1" fill="#000000" stroke="none"/>
<circle cx="593.654" cy="242.500" r="2.8" fill="#d60000" stroke="none"/>
<path d="M 701.039 232.500 L 695.266 232.500 L 695.266 242.500 L 703.926 247.500 L 701.039 252.500 L 703.926 257.500 L 706.813 262.500 L 703.926 267.500 L 712.586 272.500 L 721.247 267.500 L 724.133 272.500 L 729.907 272.500 L 735.680 272.500 L 738.567 267.500 L 741.454 262.500 L 747.227 262.500 L 747.227 252.500 L 755.888 247.500 L 753.001 242.500 L 747.227 242.500 L 747.227 232.500 L 738.567 227.500 L 741.454 222.500 L 738.567 217.500 L 729.907 222.500 L 729.907 232.500 L 724.133 232.500 L 721.247 237.500 L 712.586 232.500 L 703.926 237.500 Z " fill="#dddddd" stroke="black" stroke-width="1.50" fill-rule="evenodd"/>
<path d="M 712.586 232.500 L 721.247 237.500 L 718.360 242.500 L 721.247 247.500 L 712.586 252.500 L 712.586 262.500 L 706.813 262.500 L 703.926 257.500 L 701.039 252.500 L 703.926 247.500 L 695.266 242.500 L 695.266 232.500 L 701.039 232.500 L 703.926 237.500 Z " fill="#d9e9f7" stroke="#666666" stroke-width="0.80" fill-rule="evenodd"/>
<path d="M 741.454 242.500 L 738.567 247.500 L 729.907 242.500 L 721.247 247.500 L 718.360 242.500 L 721.247 237.500 L 724.133 232.500 L 729.907 232.500 L 729.907 222.500 L 738.567 217.500 L 741.454 222.500 L 738.567 227.500 L 747.227 232.500 L 747.227 242.500 Z " fill="#d9e9f7" stroke="#666666" stroke-width="0.80" fill-rule="evenodd"/>
<path d="M 741.454 262.500 L 738.567 267.500 L 729.907 262.500 L 729.907 252.500 L 724.133 252.500 L 721.247 247.500 L 729.907 242.500 L 738.567 247.500 L 741.454 242.500 L 747.227 242.500 L 753.001 242.500 L 755.888 247.500 L 747.227 252.500 L 747.227 262.500 Z " fill="#bcd0e2" stroke="#666666" stroke-width="0.80" fill-rule="evenodd"/>
<path d="M 735.680 272.500 L 729.907 272.500 L 724.133 272.500 L 721.247 267.500 L 712.586 272.500 L 703.926 267.500 L 706.813 262.500 L 712.586 262.500 L 712.586 252.500 L 721.247 247.500 L 724.133 252.500 L 729.907 252.500 L 729.907 262.500 L 738.567 267.500 Z " fill="#d9e9f7" stroke="#666666" stroke-width="0.80" fill-rule="evenodd"/>
<circle cx="718.360" cy="242.500" r="2.1" fill="#000000" stroke="none"/>
<circle cx="724.133" cy="252.500" r="2.1" fill="#000000" stroke="none"/>
<circle cx="741.454" cy="242.500" r="2.1" fill="#000000" stroke="none"/>
<circle cx="721.247" cy="247.500" r="2.1" fill="#000000" stroke="none"/>
<circle cx="712.586" cy="262.500" r="2.1" fill="#000000" stroke="none"/>
<circle cx="729.907" cy="252.500" r="2.1" fill="#000000" stroke="none"/>
<circle cx="738.567" cy="247.500" r="2.1" fill="#000000" stroke="none"/>
<circle cx="712.586" cy="252.500" r="2.1" fill="#000000" stroke="none"/>
<circle cx="729.907" cy="242.500" r="2.1" fill="#000000" stroke="none"/>
<circle cx="729.907" cy="262.500" r="2.1" fill="#000000" stroke="none"/>
<circle cx="721.247" cy="247.500" r="2.8" fill="#d60000" stroke="none"/>
<path d="M 834.406 240.000 L 837.293 245.000 L 840.179 250.000 L 845.953 250.000 L 845.953 260.000 L 854.613 265.000 L 857.500 260.000 L 854.613 255.000 L 863.273 250.000 L 871.934 255.000 L 874.820 250.000 L 871.934 245.000 L 880.594 240.000 L 880.594 230.000 L 874.820 230.000 L 871.934 225.000 L 863.273 230.000 L 854.613 225.000 L 851.726 230.000 L 854.613 235.000 L 845.953 240.000 L 837.293 235.000 Z " fill="#dddddd" stroke="black" stroke-width="1.50" fill-rule="evenodd"/>
<path d="M 863.273 250.000 L 863.273 240.000 L 857.500 240.000 L 854.613 235.000 L 845.953 240.000 L 837.293 235.000 L 834.406 240.000 L 837.293 245.000 L 840.179 250.000 L 845.953 250.000 L 845.953 260.000 L 854.613 265.000 L 857.500 260.000 L 854.613 255.000 Z " fill="#d9e9f7" stroke="#666666" stroke-width="0.80" fill-rule="evenodd"/>
<path d="M 851.726 230.000 L 854.613 235.000 L 857.500 240.000 L 863.273 240.000 L 863.273 250.000 L 871.934 255.000 L 874.820 250.000 L 871.934 245.000 L 880.594 240.000 L 880.594 230.000 L 874.820 230.000 L 871.934 225.000 L 863.273 230.000 L 854.613 225.000 Z " fill="#d9e9f7" stroke="#666666" stroke-width="0.80" fill-rule="evenodd"/>
<circle cx="857.500" cy="240.000" r="2.1" fill="#000000" stroke="none"/>
<circle cx="863.273" cy="240.000" r="2.1" fill="#000000" stroke="none"/>
<circle cx="863.273" cy="240.000" r="2.8" fill="#d60000" stroke="none"/>
<path d="M 961.999 237.500 L 964.885 242.500 L 967.772 247.500 L 973.546 247.500 L 973.546 257.500 L 982.206 262.500 L 985.093 257.500 L 982.206 252.500 L 990.866 247.500 L 999.526 252.500 L 1002.413 247.500 L 1008.187 247.500 L 1008.187 237.500 L 1016.847 232.500 L 1013.960 227.500 L 1008.187 227.500 L 1002.413 227.500 L 999.526 232.500 L 990.866 227.500 L 982.206 232.500 L 973.546 237.500 L 964.885 232.500 Z " fill="#dddddd" stroke="black" stroke-width="1.50" fill-rule="evenodd"/>
<path d="M 990.866 247.500 L 990.866 237.500 L 985.093 237.500 L 982.206 232.500 L 973.546 237.500 L 964.885 232.500 L 961.999 237.500 L 964.885 242.500 L 967.772 247.500 L 973.546 247.500 L 973.546 257.500 L 982.206 262.500 L 985.093 257.500 L 982.206 252.500 Z " fill="#d9e9f7" stroke="#666666" stroke-width="0.80" fill-rule="evenodd"/>
<path d="M 1002.413 227.500 L 999.526 232.500 L 990.866 227.500 L 982.206 232.500 L 985.093 237.500 L 990.866 237.500 L 990.866 247.500 L 999.526 252.500 L 1002.413 247.500 L 1008.187 247.500 L 1008.187 237.500 L 1016.847 232.500 L 1013.960 227.500 L 1008.187 227.500 Z " fill="#d9e9f7" stroke="#666666" stroke-width="0.80" fill-rule="evenodd"/>
<circle cx="985.093" cy="237.500" r="2.1" fill="#000000" stroke="none"/>
<circle cx="990.866" cy="237.500" r="2.1" fill="#000000" stroke="none"/>
<circle cx="990.866" cy="237.500" r="2.8" fill="#d60000" stroke="none"/>
<path d="M 38.537 340.500 L 41.424 345.500 L 44.311 350.500 L 50.084 350.500 L 50.084 360.500 L 58.745 365.500 L 67.405 370.500 L 76.065 365.500 L 78.952 370.500 L 84.725 370.500 L 84.725 360.500 L 76.065 355.500 L 78.952 350.500 L 76.065 345.500 L 73.178 340.500 L 76.065 335.500 L 84.725 340.500 L 93.386 335.500 L 90.499 330.500 L 84.725 330.500 L 84.725 320.500 L 76.065 315.500 L 73.178 320.500 L 67.405 320.500 L 67.405 330.500 L 58.745 335.500 L 50.084 340.500 L 41.424 335.500 Z " fill="#dddddd" stroke="black" stroke-width="1.50" fill-rule="evenodd"/>
<path d="M 67.405 350.500 L 67.405 340.500 L 61.631 340.500 L 58.745 335.500 L 50.084 340.500 L 41.424 335.500 L 38.537 340.500 L 41.424 345.500 L 44.311 350.500 L 50.084 350.500 L 50.084 360.500 L 58.745 365.500 L 61.631 360.500 L 58.745 355.500 Z " fill="#d9e9f7" stroke="#666666" stroke-width="0.80" fill-rule="evenodd"/>
<path d="M 73.178 340.500 L 67.405 340.500 L 67.405 350.500 L 58.745 355.500 L 61.631 360.500 L 58.745 365.500 L 67.405 370.500 L 76.065 365.500 L 78.952 370.500 L 84.725 370.500 L 84.725 360.500 L 76.065 355.500 L 78.952 350.500 L 76.065 345.500 Z " fill="#bcd0e2" stroke="#666666" stroke-width="0.80" fill-rule="evenodd"/>
<path d="M 73.178 320.500 L 67.405 320.500 L 67.405 330.500 L 58.745 335.500 L 61.631 340.500 L 67.405 340.500 L 73.178 340.500 L 76.065 335.500 L 84.725 340.500 L 93.386 335.500 L 90.499 330.500 L 84.725 330.500 L 84.725 320.500 L 76.065 315.500 Z " fill="#d9e9f7" stroke="#666666" stroke-width="0.80" fill-rule="evenodd"/>
<circle cx="61.631" cy="340.500" r="2.1" fill="#000000" stroke="none"/>
<circle cx="61.631" cy="360.500" r="2.1" fill="#000000" stroke="none"/>
<circle cx="67.405" cy="340.500" r="2.1" fill="#000000" stroke="none"/>
<circle cx="58.745" cy="355.500" r="2.1" fill="#000000" stroke="none"/>
<circle cx="67.405" cy="350.500" r="2.1" fill="#000000" stroke="none"/>
<circle cx="67.405" cy="340.500" r="2.8" fill="#d60000" stroke="none"/>
<path d="M 170.460 345.500 L 167.574 350.500 L 176.234 355.500 L 184.894 350.500 L 187.781 355.500 L 193.554 355.500 L 199.328 355.500 L 202.215 360.500 L 210.875 355.500 L 219.535 360.500 L 222.422 355.500 L 228.195 355.500 L 228.195 345.500 L 219.535 340.500 L 222.422 335.500 L 219.535 330.500 L 216.648 325.500 L 210.875 325.500 L 205.101 325.500 L 202.215 330.500 L 193.554 325.500 L 184.894 330.500 L 176.234 335.500 L 176.234 345.500 Z " fill="#dddddd" stroke="black" stroke-width="1.50" fill-rule="evenodd"/>
<path d="M 193.554 345.500 L 202.215 350.500 L 205.101 345.500 L 210.875 345.500 L 210.875 335.500 L 219.535 330.500 L 216.648 325.500 L 210.875 325.500 L 205.101 325.500 L 202.215 330.500 L 193.554 325.500 L 184.894 330.500 L 187.781 335.500 L 193.554 335.500 Z " fill="#d9e9f7" stroke="#666666" stroke-width="0.80" fill-rule="evenodd"/>
<path d="M 199.328 355.500 L 202.215 350.500 L 193.554 345.500 L 193.554 335.500 L 187.781 335.500 L 184.894 330.500 L 176.234 335.500 L 176.234 345.500 L 170.460 345.500 L 167.574 350.500 L 176.234 355.500 L 184.894 350.500 L 187.781 355.500 L 193.554 355.500 Z " fill="#bcd0e2" stroke="#666666" stroke-width="0.80" fill-rule="evenodd"/>
<path d="M 222.422 355.500 L 228.195 355.500 L 228.195 345.500 L 219.535 340.500 L 222.422 335.500 L 219.535 330.500 L 210.875 335.500 L 210.875 345.500 L 205.101 345.500 L 202.215 350.500 L 199.328 355.500 L 202.215 360.500 L 210.875 355.500 L 219.535 360.500 Z " fill="#bcd0e2" stroke="#666666" stroke-width="0.80" fill-rule="evenodd"/>
<circle cx="187.781" cy="335.500" r="2.1" fill="#000000" stroke="none"/>
<circle cx="205.101" cy="345.500" r="2.1" fill="#000000" stroke="none"/>
<circle cx="193.554" cy="335.500" r="2.1" fill="#000000" stroke="none"/>
<circle cx="202.215" cy="350.500" r="2.1" fill="#000000" stroke="none"/>
<circle cx="210.875" cy="345.500" r="2.1" fill="#000000" stroke="none"/>
<circle cx="193.554" cy="345.500" r="2.1" fill="#000000" stroke="none"/>
<circle cx="210.875" cy="335.500" r="2.1" fill="#000000" stroke="none"/>
<circle cx="202.215" cy="350.500" r="2.8" fill="#d60000" stroke="none"/>
<path d="M 298.053 335.500 L 295.167 340.500 L 303.827 345.500 L 312.487 340.500 L 315.374 345.500 L 321.147 345.500 L 326.921 345.500 L 329.808 350.500 L 321.147 355.500 L 321.147 365.500 L 326.921 365.500 L 329.808 370.500 L 338.468 365.500 L 347.128 370.500 L 350.015 365.500 L 347.128 360.500 L 355.788 355.500 L 355.788 345.500 L 361.562 345.500 L 364.449 340.500 L 355.788 335.500 L 347.128 340.500 L 344.241 335.500 L 338.468 335.500 L 338.468 325.500 L 347.128 320.500 L 344.241 315.500 L 338.468 315.500 L 332.694 315.500 L 329.808 320.500 L 321.147 315.500 L 312.487 320.500 L 303.827 325.500 L 303.827 335.500 Z " fill="#dddddd" stroke="black" stroke-width="1.50" fill-rule="evenodd"/>
<path d="M 321.147 335.500 L 329.808 340.500 L 332.694 335.500 L 338.468 335.500 L 338.468 325.500 L 347.128 320.500 L 344.241 315.500 L 338.468 315.500 L 332.694 315.500 L 329.808 320.500 L 321.147 315.500 L 312.487 320.500 L 315.374 325.500 L 321.147 325.500 Z " fill="#d9e9f7" stroke="#666666" stroke-width="0.80" fill-rule="evenodd"/>
<path d="M 326.921 345.500 L 329.808 340.500 L 321.147 335.500 L 321.147 325.500 L 315.374 325.500 L 312.487 320.500 L 303.827 325.500 L 303.827 335.500 L 298.053 335.500 L 295.167 340.500 L 303.827 345.500 L 312.487 340.500 L 315.374 345.500 L 321.147 345.500 Z " fill="#bcd0e2" stroke="#666666" stroke-width="0.80" fill-rule="evenodd"/>
<path d="M 350.015 365.500 L 347.128 360.500 L 344.241 355.500 L 338.468 355.500 L 338.468 345.500 L 329.808 340.500 L 326.921 345.500 L 329.808 350.500 L 321.147 355.500 L 321.147 365.500 L 326.921 365.500 L 329.808 370.500 L 338.468 365.500 L 347.128 370.500 Z " fill="#d9e9f7" stroke="#666666" stroke-width="0.80" fill-rule="evenodd"/>
<path d="M 361.562 345.500 L 364.449 340.500 L 355.788 335.500 L 347.128 340.500 L 344.241 335.500 L 338.468 335.500 L 332.694 335.500 L 329.808 340.500 L 338.468 345.500 L 338.468 355.500 L 344.241 355.500 L 347.128 360.500 L 355.788 355.500 L 355.788 345.500 Z " fill="#bcd0e2" stroke="#666666" stroke-width="0.80" fill-rule="evenodd"/>
<circle cx="315.374" cy="325.500" r="2.1" fill="#000000" stroke="none"/>
<circle cx="332.694" cy="335.500" r="2.1" fill="#000000" stroke="none"/>
<circle cx="344.241" cy="355.500" r="2.1" fill="#000000" stroke="none"/>
<circle cx="321.147" cy="325.500" r="2.1" fill="#000000" stroke="none"/>
<circle cx="329.808" cy="340.500" r="2.1" fill="#000000" stroke="none"/>
<circle cx="338.468" cy="355.500" r="2.1" fill="#000000" stroke="none"/>
<circle cx="321.147" cy="335.500" r="2.1" fill="#000000" stroke="none"/>
<circle cx="338.468" cy="345.500" r="2.1" fill="#000000" stroke="none"/>
<circle cx="329.808" cy="340.500" r="2.8" fill="#d60000" stroke="none"/>
<path d="M 429.976 338.000 L 427.090 343.000 L 435.750 348.000 L 444.410 343.000 L 447.297 348.000 L 453.070 348.000 L 453.070 358.000 L 444.410 363.000 L 447.297 368.000 L 453.070 368.000 L 458.844 368.000 L 461.731 363.000 L 470.391 368.000 L 479.051 363.000 L 487.711 358.000 L 487.711 348.000 L 493.485 348.000 L 496.372 343.000 L 487.711 338.000 L 479.051 343.000 L 476.164 338.000 L 470.391 338.000 L 470.391 328.000 L 479.051 323.000 L 476.164 318.000 L 470.391 318.000 L 464.617 318.000 L 461.731 323.000 L 453.070 318.000 L 444.410 323.000 L 435.750 328.000 L 435.750 338.000 Z " fill="#dddddd" stroke="black" stroke-width="1.50" fill-rule="evenodd"/>
<path d="M 470.391 348.000 L 461.731 343.000 L 458.844 348.000 L 453.070 348.000 L 453.070 358.000 L 444.410 363.000 L 447.297 368.000 L 453.070 368.000 L 458.844 368.000 L 461.731 363.000 L 470.391 368.000 L 479.051 363.000 L 476.164 358.000 L 470.391 358.000 Z " fill="#d9e9f7" stroke="#666666" stroke-width="0.80" fill-rule="evenodd"/>
<path d="M 464.617 338.000 L 461.731 343.000 L 470.391 348.000 L 470.391 358.000 L 476.164 358.000 L 479.051 363.000 L 487.711 358.000 L 487.711 348.000 L 493.485 348.000 L 496.372 343.000 L 487.711 338.000 L 479.051 343.000 L 476.164 338.000 L 470.391 338.000 Z " fill="#bcd0e2" stroke="#666666" stroke-width="0.80" fill-rule="evenodd"/>
<path d="M 447.297 328.000 L 453.070 328.000 L 453.070 338.000 L 461.731 343.000 L 464.617 338.000 L 470.391 338.000 L 470.391 328.000 L 479.051 323.000 L 476.164 318.000 L 470.391 318.000 L 464.617 318.000 L 461.731 323.000 L 453.070 318.000 L 444.410 323.000 Z " fill="#d9e9f7" stroke="#666666" stroke-width="0.80" fill-rule="evenodd"/>
<path d="M 429.976 338.000 L 427.090 343.000 L 435.750 348.000 L 444.410 343.000 L 447.297 348.000 L 453.070 348.000 L 458.844 348.000 L 461.731 343.000 L 453.070 338.000 L 453.070 328.000 L 447.297 328.000 L 444.410 323.000 L 435.750 328.000 L 435.750 338.000 Z " fill="#bcd0e2" stroke="#666666" stroke-width="0.80" fill-rule="evenodd"/>
<circle cx="447.297" cy="328.000" r="2.1" fill="#000000" stroke="none"/>
<circle cx="458.844" cy="348.000" r="2.1" fill="#000000" stroke="none"/>
<circle cx="464.617" cy="338.000" r="2.1" fill="#000000" stroke="none"/>
<circle cx="476.164" cy="358.000" r="2.1" fill="#000000" stroke="none"/>
<circle cx="453.070" cy="328.000" r="2.1" fill="#000000" stroke="none"/>
<circle cx="461.731" cy="343.000" r="2.1" fill="#000000" stroke="none"/>
<circle cx="470.391" cy="358.000" r="2.1" fill="#000000" stroke="none"/>
<circle cx="453.070" cy="338.000" r="2.1" fill="#000000" stroke="none"/>
<circle cx="470.391" cy="348.000" r="2.1" fill="#000000" stroke="none"/>
<circle cx="461.731" cy="343.000" r="2.8" fill="#d60000" stroke="none"/>
<path d="M 561.899 335.500 L 559.013 340.500 L 567.673 345.500 L 576.333 340.500 L 579.220 345.500 L 584.993 345.500 L 590.767 345.500 L 593.654 350.500 L 596.540 355.500 L 602.314 355.500 L 602.314 365.500 L 610.974 370.500 L 613.861 365.500 L 610.974 360.500 L 619.634 355.500 L 619.634 345.500 L 625.408 345.500 L 628.295 340.500 L 619.634 335.500 L 619.634 325.500 L 613.861 325.500 L 610.974 320.500 L 608.087 315.500 L 602.314 315.500 L 596.540 315.500 L 593.654 320.500 L 584.993 315.500 L 576.333 320.500 L 567.673 325.500 L 567.673 335.500 Z " fill="#dddddd" stroke="black" stroke-width="1.50" fill-rule="evenodd"/>
<path d="M 584.993 335.500 L 593.654 340.500 L 596.540 335.500 L 602.314 335.500 L 602.314 325.500 L 610.974 320.500 L 608.087 315.500 L 602.314 315.500 L 596.540 315.500 L 593.654 320.500 L 584.993 315.500 L 576.333 320.500 L 579.220 325.500 L 584.993 325.500 Z " fill="#d9e9f7" stroke="#666666" stroke-width="0.80" fill-rule="evenodd"/>
<path d="M 590.767 345.500 L 593.654 340.500 L 584.993 335.500 L 584.993 325.500 L 579.220 325.500 L 576.333 320.500 L 567.673 325.500 L 567.673 335.500 L 561.899 335.500 L 559.013 340.500 L 567.673 345.500 L 576.333 340.500 L 579.220 345.500 L 584.993 345.500 Z " fill="#bcd0e2" stroke="#666666" stroke-width="0.80" fill-rule="evenodd"/>
<path d="M 613.861 365.500 L 610.974 360.500 L 619.634 355.500 L 619.634 345.500 L 613.861 345.500 L 610.974 340.500 L 602.314 345.500 L 593.654 340.500 L 590.767 345.500 L 593.654 350.500 L 596.540 355.500 L 602.314 355.500 L 602.314 365.500 L 610.974 370.500 Z " fill="#d9e9f7" stroke="#666666" stroke-width="0.80" fill-rule="evenodd"/>
<path d="M 625.408 345.500 L 628.295 340.500 L 619.634 335.500 L 619.634 325.500 L 613.861 325.500 L 610.974 320.500 L 602.314 325.500 L 602.314 335.500 L 596.540 335.500 L 593.654 340.500 L 602.314 345.500 L 610.974 340.500 L 613.861 345.500 L 619.634 345.500 Z " fill="#bcd0e2" stroke="#666666" stroke-width="0.80" fill-rule="evenodd"/>
<circle cx="579.220" cy="325.500" r="2.1" fill="#000000" stroke="none"/>
<circle cx="596.540" cy="335.500" r="2.1" fill="#000000" stroke="none"/>
<circle cx="613.861" cy="345.500" r="2.1" fill="#000000" stroke="none"/>
<circle cx="584.993" cy="325.500" r="2.1" fill="#000000" stroke="none"/>
<circle cx="593.654" cy="340.500" r="2.1" fill="#000000" stroke="none"/>
<circle cx="602.314" cy="335.500" r="2.1" fill="#000000" stroke="none"/>
<circle cx="610.974" cy="340.500" r="2.1" fill="#000000" stroke="none"/>
<circle cx="584.993" cy="335.500" r="2.1" fill="#000000" stroke="none"/>
<circle cx="602.314" cy="325.500" r="2.1" fill="#000000" stroke="none"/>
<circle cx="602.314" cy="345.500" r="2.1" fill="#000000" stroke="none"/>
<circle cx="593.654" cy="340.500" r="2.8" fill="#d60000" stroke="none"/>
<path d="M 702.483 340.500 L 699.596 345.500 L 708.256 350.500 L 716.917 345.500 L 719.803 350.500 L 725.577 350.500 L 731.350 350.500 L 734.237 355.500 L 737.124 360.500 L 742.897 360.500 L 742.897 350.500 L 751.558 345.500 L 748.671 340.500 L 751.558 335.500 L 742.897 330.500 L 734.237 335.500 L 731.350 330.500 L 725.577 330.500 L 719.803 330.500 L 716.917 325.500 L 708.256 330.500 L 708.256 340.500 Z " fill="#dddddd" stroke="black" stroke-width="1.50" fill-rule="evenodd"/>
<path d="M 708.256 330.500 L 716.917 325.500 L 719.803 330.500 L 725.577 330.500 L 725.577 340.500 L 734.237 345.500 L 731.350 350.500 L 725.577 350.500 L 719.803 350.500 L 716.917 345.500 L 708.256 350.500 L 699.596 345.500 L 702.483 340.500 L 708.256 340.500 Z " fill="#d9e9f7" stroke="#666666" stroke-width="0.80" fill-rule="evenodd"/>
<path d="M 748.671 340.500 L 751.558 345.500 L 742.897 350.500 L 742.897 360.500 L 737.124 360.500 L 734.237 355.500 L 731.350 350.500 L 734.237 345.500 L 725.577 340.500 L 725.577 330.500 L 731.350 330.500 L 734.237 335.500 L 742.897 330.500 L 751.558 335.500 Z " fill="#d9e9f7" stroke="#666666" stroke-width="0.80" fill-rule="evenodd"/>
<circle cx="734.237" cy="345.500" r="2.1" fill="#000000" stroke="none"/>
<circle cx="725.577" cy="340.500" r="2.1" fill="#000000" stroke="none"/>
<circle cx="734.237" cy="345.500" r="2.8" fill="#d60000" stroke="none"/>
<path d="M 832.962 343.000 L 830.076 348.000 L 838.736 353.000 L 847.396 348.000 L 850.283 353.000 L 856.056 353.000 L 861.830 353.000 L 864.717 358.000 L 873.377 353.000 L 873.377 343.000 L 879.150 343.000 L 882.037 338.000 L 884.924 333.000 L 882.037 328.000 L 873.377 333.000 L 864.717 328.000 L 861.830 333.000 L 856.056 333.000 L 850.283 333.000 L 847.396 328.000 L 838.736 333.000 L 838.736 343.000 Z " fill="#dddddd" stroke="black" stroke-width="1.50" fill-rule="evenodd"/>
<path d="M 838.736 333.000 L 847.396 328.000 L 850.283 333.000 L 856.056 333.000 L 856.056 343.000 L 864.717 348.000 L 861.830 353.000 L 856.056 353.000 L 850.283 353.000 L 847.396 348.000 L 838.736 353.000 L 830.076 348.000 L 832.962 343.000 L 838.736 343.000 Z " fill="#d9e9f7" stroke="#666666" stroke-width="0.80" fill-rule="evenodd"/>
<path d="M 884.924 333.000 L 882.037 338.000 L 879.150 343.000 L 873.377 343.000 L 873.377 353.000 L 864.717 358.000 L 861.830 353.000 L 864.717 348.000 L 856.056 343.000 L 856.056 333.000 L 861.830 333.000 L 864.717 328.000 L 873.377 333.000 L 882.037 328.000 Z " fill="#d9e9f7" stroke="#666666" stroke-width="0.80" fill-rule="evenodd"/>
<circle cx="864.717" cy="348.000" r="2.1" fill="#000000" stroke="none"/>
<circle cx="856.056" cy="343.000" r="2.1" fill="#000000" stroke="none"/>
<circle cx="864.717" cy="348.000" r="2.8" fill="#d60000" stroke="none"/>
<path d="M 964.885 333.000 L 959.112 333.000 L 959.112 343.000 L 967.772 348.000 L 964.885 353.000 L 967.772 358.000 L 976.432 353.000 L 976.432 343.000 L 982.206 343.000 L 985.093 348.000 L 987.979 353.000 L 993.753 353.000 L 993.753 363.000 L 1002.413 368.000 L 1005.300 363.000 L 1002.413 358.000 L 1011.073 353.000 L 1011.073 343.000 L 1016.847 343.000 L 1019.734 338.000 L 1011.073 333.000 L 1011.073 323.000 L 1005.300 323.000 L 1002.413 318.000 L 993.753 323.000 L 993.753 333.000 L 987.979 333.000 L 985.093 328.000 L 976.432 333.000 L 967.772 328.000 Z " fill="#dddddd" stroke="black" stroke-width="1.50" fill-rule="evenodd"/>
<path d="M 1011.073 353.000 L 1011.073 343.000 L 1005.300 343.000 L 1002.413 338.000 L 993.753 343.000 L 985.093 338.000 L 982.206 343.000 L 985.093 348.000 L 987.979 353.000 L 993.753 353.000 L 993.753 363.000 L 1002.413 368.000 L 1005.300 363.000 L 1002.413 358.000 Z " fill="#d9e9f7" stroke="#666666" stroke-width="0.80" fill-rule="evenodd"/>
<path d="M 1005.300 323.000 L 1002.413 318.000 L 993.753 323.000 L 993.753 333.000 L 987.979 333.000 L 985.093 338.000 L 993.753 343.000 L 1002.413 338.000 L 1005.300 343.000 L 1011.073 343.000 L 1016.847 343.000 L 1019.734 338.000 L 1011.073 333.000 L 1011.073 323.000 Z " fill="#bcd0e2" stroke="#666666" stroke-width="0.80" fill-rule="evenodd"/>
<path d="M 964.885 333.000 L 959.112 333.000 L 959.112 343.000 L 967.772 348.000 L 964.885 353.000 L 967.772 358.000 L 976.432 353.000 L 976.432 343.000 L 982.206 343.000 L 985.093 338.000 L 987.979 333.000 L 985.093 328.000 L 976.432 333.000 L 967.772 328.000 Z " fill="#bcd0e2" stroke="#666666" stroke-width="0.80" fill-rule="evenodd"/>
<circle cx="1005.300" cy="343.000" r="2.1" fill="#000000" stroke="none"/>
<circle cx="985.093" cy="338.000" r="2.1" fill="#000000" stroke="none"/>
<circle cx="1002.413" cy="338.000" r="2.1" fill="#000000" stroke="none"/>
<circle cx="993.753" cy="343.000" r="2.1" fill="#000000" stroke="none"/>
<circle cx="985.093" cy="338.000" r="2.8" fill="#d60000" stroke="none"/>
<path d="M 34.207 436.000 L 31.321 441.000 L 39.981 446.000 L 48.641 441.000 L 51.528 446.000 L 57.301 446.000 L 63.075 446.000 L 65.962 451.000 L 57.301 456.000 L 57.301 466.000 L 63.075 466.000 L 65.962 471.000 L 74.622 466.000 L 83.282 471.000 L 86.169 466.000 L 83.282 461.000 L 91.942 456.000 L 91.942 446.000 L 97.716 446.000 L 100.603 441.000 L 91.942 436.000 L 83.282 441.000 L 80.395 436.000 L 74.622 436.000 L 68.848 436.000 L 65.962 431.000 L 74.622 426.000 L 74.622 416.000 L 68.848 416.000 L 65.962 411.000 L 57.301 416.000 L 48.641 411.000 L 45.754 416.000 L 48.641 421.000 L 39.981 426.000 L 39.981 436.000 Z " fill="#dddddd" stroke="black" stroke-width="1.50" fill-rule="evenodd"/>
<path d="M 91.942 456.000 L 83.282 461.000 L 80.395 456.000 L 74.622 456.000 L 74.622 446.000 L 65.962 441.000 L 68.848 436.000 L 74.622 436.000 L 80.395 436.000 L 83.282 441.000 L 91.942 436.000 L 100.603 441.000 L 97.716 446.000 L 91.942 446.000 Z " fill="#d9e9f7" stroke="#666666" stroke-width="0.80" fill-rule="evenodd"/>
<path d="M 63.075 466.000 L 57.301 466.000 L 57.301 456.000 L 65.962 451.000 L 63.075 446.000 L 65.962 441.000 L 74.622 446.000 L 74.622 456.000 L 80.395 456.000 L 83.282 461.000 L 86.169 466.000 L 83.282 471.000 L 74.622 466.000 L 65.962 471.000 Z " fill="#bcd0e2" stroke="#666666" stroke-width="0.80" fill-rule="evenodd"/>
<path d="M 34.207 436.000 L 39.981 436.000 L 39.981 426.000 L 48.641 421.000 L 51.528 426.000 L 57.301 426.000 L 57.301 436.000 L 65.962 441.000 L 63.075 446.000 L 57.301 446.000 L 51.528 446.000 L 48.641 441.000 L 39.981 446.000 L 31.321 441.000 Z " fill="#d9e9f7" stroke="#666666" stroke-width="0.80" fill-rule="evenodd"/>
<path d="M 45.754 416.000 L 48.641 411.000 L 57.301 416.000 L 65.962 411.000 L 68.848 416.000 L 74.622 416.000 L 74.622 426.000 L 65.962 431.000 L 68.848 436.000 L 65.962 441.000 L 57.301 436.000 L 57.301 426.000 L 51.528 426.000 L 48.641 421.000 Z " fill="#bcd0e2" stroke="#666666" stroke-width="0.80" fill-rule="evenodd"/>
<circle cx="51.528" cy="426.000" r="2.1" fill="#000000" stroke="none"/>
<circle cx="80.395" cy="456.000" r="2.1" fill="#000000" stroke="none"/>
<circle cx="57.301" cy="426.000" r="2.1" fill="#000000" stroke="none"/>
<circle cx="65.962" cy="441.000" r="2.1" fill="#000000" stroke="none"/>
<circle cx="74.622" cy="456.000" r="2.1" fill="#000000" stroke="none"/>
<circle cx="57.301" cy="436.000" r="2.1" fill="#000000" stroke="none"/>
<circle cx="74.622" cy="446.000" r="2.1" fill="#000000" stroke="none"/>
<circle cx="65.962" cy="441.000" r="2.8" fill="#d60000" stroke="none"/>
<path d="M 174.791 431.000 L 171.904 436.000 L 180.564 441.000 L 189.224 436.000 L 192.111 441.000 L 189.224 446.000 L 197.885 451.000 L 197.885 461.000 L 203.658 461.000 L 206.545 466.000 L 215.205 461.000 L 215.205 451.000 L 220.979 451.000 L 223.865 446.000 L 215.205 441.000 L 206.545 446.000 L 203.658 441.000 L 206.545 436.000 L 197.885 431.000 L 197.885 421.000 L 192.111 421.000 L 189.224 416.000 L 180.564 421.000 L 180.564 431.000 Z " fill="#dddddd" stroke="black" stroke-width="1.50" fill-rule="evenodd"/>
<path d="M 215.205 461.000 L 206.545 466.000 L 203.658 461.000 L 197.885 461.000 L 197.885 451.000 L 189.224 446.000 L 192.111 441.000 L 197.885 441.000 L 203.658 441.000 L 206.545 446.000 L 215.205 441.000 L 223.865 446.000 L 220.979 451.000 L 215.205 451.000 Z " fill="#d9e9f7" stroke="#666666" stroke-width="0.80" fill-rule="evenodd"/>
<path d="M 174.791 431.000 L 180.564 431.000 L 180.564 421.000 L 189.224 416.000 L 192.111 421.000 L 197.885 421.000 L 197.885 431.000 L 206.545 436.000 L 203.658 441.000 L 197.885 441.000 L 192.111 441.000 L 189.224 436.000 L 180.564 441.000 L 171.904 436.000 Z " fill="#d9e9f7" stroke="#666666" stroke-width="0.80" fill-rule="evenodd"/>
<circle cx="197.885" cy="441.000" r="2.1" fill="#000000" stroke="none"/>
<circle cx="197.885" cy="441.000" r="2.8" fill="#d60000" stroke="none"/>
<path d="M 306.714 433.500 L 303.827 438.500 L 312.487 443.500 L 312.487 453.500 L 318.261 453.500 L 321.147 448.500 L 324.034 443.500 L 329.808 443.500 L 329.808 453.500 L 338.468 458.500 L 341.355 453.500 L 347.128 453.500 L 347.128 443.500 L 355.788 438.500 L 352.902 433.500 L 347.128 433.500 L 341.355 433.500 L 338.468 438.500 L 329.808 433.500 L 329.808 423.500 L 324.034 423.500 L 321.147 428.500 L 312.487 423.500 L 303.827 428.500 Z " fill="#dddddd" stroke="black" stroke-width="1.50" fill-rule="evenodd"/>
<path d="M 312.487 423.500 L 303.827 428.500 L 306.714 433.500 L 303.827 438.500 L 312.487 443.500 L 312.487 453.500 L 318.261 453.500 L 321.147 448.500 L 324.034 443.500 L 321.147 438.500 L 329.808 433.500 L 329.808 423.500 L 324.034 423.500 L 321.147 428.500 Z " fill="#d9e9f7" stroke="#666666" stroke-width="0.80" fill-rule="evenodd"/>
<path d="M 324.034 443.500 L 329.808 443.500 L 329.808 453.500 L 338.468 458.500 L 341.355 453.500 L 347.128 453.500 L 347.128 443.500 L 355.788 438.500 L 352.902 433.500 L 347.128 433.500 L 341.355 433.500 L 338.468 438.500 L 329.808 433.500 L 321.147 438.500 Z " fill="#d9e9f7" stroke="#666666" stroke-width="0.80" fill-rule="evenodd"/>
<circle cx="321.147" cy="438.500" r="2.1" fill="#000000" stroke="none"/>
<circle cx="321.147" cy="438.500" r="2.8" fill="#d60000" stroke="none"/>
<path d="M 434.307 426.000 L 437.193 431.000 L 440.080 436.000 L 445.854 436.000 L 445.854 446.000 L 454.514 451.000 L 457.401 446.000 L 463.174 446.000 L 463.174 456.000 L 471.834 461.000 L 474.721 456.000 L 480.495 456.000 L 480.495 446.000 L 489.155 441.000 L 486.268 436.000 L 480.495 436.000 L 474.721 436.000 L 471.834 441.000 L 463.174 436.000 L 463.174 426.000 L 457.401 426.000 L 454.514 421.000 L 445.854 426.000 L 437.193 421.000 Z " fill="#dddddd" stroke="black" stroke-width="1.50" fill-rule="evenodd"/>
<path d="M 463.174 436.000 L 463.174 426.000 L 457.401 426.000 L 454.514 421.000 L 445.854 426.000 L 437.193 421.000 L 434.307 426.000 L 437.193 431.000 L 440.080 436.000 L 445.854 436.000 L 445.854 446.000 L 454.514 451.000 L 457.401 446.000 L 454.514 441.000 Z " fill="#d9e9f7" stroke="#666666" stroke-width="0.80" fill-rule="evenodd"/>
<path d="M 474.721 436.000 L 471.834 441.000 L 463.174 436.000 L 454.514 441.000 L 457.401 446.000 L 463.174 446.000 L 463.174 456.000 L 471.834 461.000 L 474.721 456.000 L 480.495 456.000 L 480.495 446.000 L 489.155 441.000 L 486.268 436.000 L 480.495 436.000 Z " fill="#d9e9f7" stroke="#666666" stroke-width="0.80" fill-rule="evenodd"/>
<circle cx="454.514" cy="441.000" r="2.1" fill="#000000" stroke="none"/>
<circle cx="454.514" cy="441.000" r="2.8" fill="#d60000" stroke="none"/>
<path d="M 570.560 438.500 L 567.673 443.500 L 576.333 448.500 L 584.993 443.500 L 587.880 448.500 L 593.654 448.500 L 599.427 448.500 L 602.314 453.500 L 605.201 458.500 L 610.974 458.500 L 610.974 448.500 L 619.634 443.500 L 616.748 438.500 L 619.634 433.500 L 610.974 428.500 L 602.314 433.500 L 599.427 428.500 L 593.654 428.500 L 587.880 428.500 L 584.993 423.500 L 576.333 428.500 L 576.333 438.500 Z " fill="#dddddd" stroke="black" stroke-width="1.50" fill-rule="evenodd"/>
<path d="M 576.333 428.500 L 584.993 423.500 L 587.880 428.500 L 593.654 428.500 L 593.654 438.500 L 602.314 443.500 L 599.427 448.500 L 593.654 448.500 L 587.880 448.500 L 584.993 443.500 L 576.333 448.500 L 567.673 443.500 L 570.560 438.500 L 576.333 438.500 Z " fill="#d9e9f7" stroke="#666666" stroke-width="0.80" fill-rule="evenodd"/>
<path d="M 616.748 438.500 L 619.634 443.500 L 610.974 448.500 L 610.974 458.500 L 605.201 458.500 L 602.314 453.500 L 599.427 448.500 L 602.314 443.500 L 593.654 438.500 L 593.654 428.500 L 599.427 428.500 L 602.314 433.500 L 610.974 428.500 L 619.634 433.500 Z " fill="#d9e9f7" stroke="#666666" stroke-width="0.80" fill-rule="evenodd"/>
<circle cx="602.314" cy="443.500" r="2.1" fill="#000000" stroke="none"/>
<circle cx="593.654" cy="438.500" r="2.1" fill="#000000" stroke="none"/>
<circle cx="593.654" cy="438.500" r="2.8" fill="#d60000" stroke="none"/>
<path d="M 701.039 441.000 L 698.153 446.000 L 706.813 451.000 L 715.473 446.000 L 718.360 451.000 L 724.133 451.000 L 729.907 451.000 L 732.794 456.000 L 741.454 451.000 L 741.454 441.000 L 747.227 441.000 L 750.114 436.000 L 753.001 431.000 L 750.114 426.000 L 741.454 431.000 L 732.794 426.000 L 729.907 431.000 L 724.133 431.000 L 718.360 431.000 L 715.473 426.000 L 706.813 431.000 L 706.813 441.000 Z " fill="#dddddd" stroke="black" stroke-width="1.50" fill-rule="evenodd"/>
<path d="M 706.813 431.000 L 715.473 426.000 L 718.360 431.000 L 724.133 431.000 L 724.133 441.000 L 732.794 446.000 L 729.907 451.000 L 724.133 451.000 L 718.360 451.000 L 715.473 446.000 L 706.813 451.000 L 698.153 446.000 L 701.039 441.000 L 706.813 441.000 Z " fill="#d9e9f7" stroke="#666666" stroke-width="0.80" fill-rule="evenodd"/>
<path d="M 753.001 431.000 L 750.114 436.000 L 747.227 441.000 L 741.454 441.000 L 741.454 451.000 L 732.794 456.000 L 729.907 451.000 L 732.794 446.000 L 724.133 441.000 L 724.133 431.000 L 729.907 431.000 L 732.794 426.000 L 741.454 431.000 L 750.114 426.000 Z " fill="#d9e9f7" stroke="#666666" stroke-width="0.80" fill-rule="evenodd"/>
<circle cx="732.794" cy="446.000" r="2.1" fill="#000000" stroke="none"/>
<circle cx="724.133" cy="441.000" r="2.1" fill="#000000" stroke="none"/>
<circle cx="724.133" cy="441.000" r="2.8" fill="#d60000" stroke="none"/>
<path d="M 834.406 446.000 L 831.519 451.000 L 840.179 456.000 L 848.840 451.000 L 851.726 456.000 L 857.500 456.000 L 863.273 456.000 L 866.160 451.000 L 869.047 446.000 L 874.820 446.000 L 874.820 436.000 L 883.481 431.000 L 880.594 426.000 L 874.820 426.000 L 869.047 426.000 L 866.160 431.000 L 857.500 426.000 L 848.840 431.000 L 840.179 436.000 L 840.179 446.000 Z " fill="#dddddd" stroke="black" stroke-width="1.50" fill-rule="evenodd"/>
<path d="M 840.179 436.000 L 848.840 431.000 L 851.726 436.000 L 857.500 436.000 L 857.500 446.000 L 866.160 451.000 L 863.273 456.000 L 857.500 456.000 L 851.726 456.000 L 848.840 451.000 L 840.179 456.000 L 831.519 451.000 L 834.406 446.000 L 840.179 446.000 Z " fill="#d9e9f7" stroke="#666666" stroke-width="0.80" fill-rule="evenodd"/>
<path d="M 880.594 426.000 L 883.481 431.000 L 874.820 436.000 L 874.820 446.000 L 869.047 446.000 L 866.160 451.000 L 857.500 446.000 L 857.500 436.000 L 851.726 436.000 L 848.840 431.000 L 857.500 426.000 L 866.160 431.000 L 869.047 426.000 L 874.820 426.000 Z " fill="#bcd0e2" stroke="#666666" stroke-width="0.80" fill-rule="evenodd"/>
<circle cx="851.726" cy="436.000" r="2.1" fill="#000000" stroke="none"/>
<circle cx="857.500" cy="436.000" r="2.1" fill="#000000" stroke="none"/>
<circle cx="857.500" cy="446.000" r="2.1" fill="#000000" stroke="none"/>
<circle cx="857.500" cy="446.000" r="2.8" fill="#d60000" stroke="none"/>
<path d="M 970.659 441.000 L 973.546 446.000 L 976.432 451.000 L 982.206 451.000 L 982.206 461.000 L 990.866 466.000 L 993.753 461.000 L 990.866 456.000 L 999.526 451.000 L 999.526 441.000 L 1005.300 441.000 L 1008.187 436.000 L 999.526 431.000 L 999.526 421.000 L 993.753 421.000 L 990.866 416.000 L 982.206 421.000 L 982.206 431.000 L 976.432 431.000 L 973.546 436.000 Z " fill="#dddddd" stroke="black" stroke-width="1.50" fill-rule="evenodd"/>
<path d="M 999.526 451.000 L 999.526 441.000 L 993.753 441.000 L 990.866 436.000 L 982.206 441.000 L 973.546 436.000 L 970.659 441.000 L 973.546 446.000 L 976.432 451.000 L 982.206 451.000 L 982.206 461.000 L 990.866 466.000 L 993.753 461.000 L 990.866 456.000 Z " fill="#d9e9f7" stroke="#666666" stroke-width="0.80" fill-rule="evenodd"/>
<path d="M 993.753 421.000 L 990.866 416.000 L 982.206 421.000 L 982.206 431.000 L 976.432 431.000 L 973.546 436.000 L 982.206 441.000 L 990.866 436.000 L 993.753 441.000 L 999.526 441.000 L 1005.300 441.000 L 1008.187 436.000 L 999.526 431.000 L 999.526 421.000 Z " fill="#bcd0e2" stroke="#666666" stroke-width="0.80" fill-rule="evenodd"/>
<circle cx="993.753" cy="441.000" r="2.1" fill="#000000" stroke="none"/>
<circle cx="990.866" cy="436.000" r="2.1" fill="#000000" stroke="none"/>
<circle cx="982.206" cy="441.000" r="2.1" fill="#000000" stroke="none"/>
<circle cx="982.206" cy="441.000" r="2.8" fill="#d60000" stroke="none"/>
<path d="M 38.537 529.000 L 41.424 534.000 L 44.311 539.000 L 50.084 539.000 L 50.084 549.000 L 58.745 554.000 L 61.631 549.000 L 67.405 549.000 L 67.405 559.000 L 76.065 564.000 L 78.952 559.000 L 84.725 559.000 L 84.725 549.000 L 93.386 544.000 L 90.499 539.000 L 84.725 539.000 L 78.952 539.000 L 76.065 534.000 L 84.725 529.000 L 84.725 519.000 L 78.952 519.000 L 76.065 514.000 L 67.405 519.000 L 58.745 514.000 L 55.858 519.000 L 58.745 524.000 L 50.084 529.000 L 41.424 524.000 Z " fill="#dddddd" stroke="black" stroke-width="1.50" fill-rule="evenodd"/>
<path d="M 67.405 539.000 L 67.405 529.000 L 61.631 529.000 L 58.745 524.000 L 50.084 529.000 L 41.424 524.000 L 38.537 529.000 L 41.424 534.000 L 44.311 539.000 L 50.084 539.000 L 50.084 549.000 L 58.745 554.000 L 61.631 549.000 L 58.745 544.000 Z " fill="#d9e9f7" stroke="#666666" stroke-width="0.80" fill-rule="evenodd"/>
<path d="M 78.952 539.000 L 76.065 544.000 L 67.405 539.000 L 58.745 544.000 L 61.631 549.000 L 67.405 549.000 L 67.405 559.000 L 76.065 564.000 L 78.952 559.000 L 84.725 559.000 L 84.725 549.000 L 93.386 544.000 L 90.499 539.000 L 84.725 539.000 Z " fill="#d9e9f7" stroke="#666666" stroke-width="0.80" fill-rule="evenodd"/>
<path d="M 55.858 519.000 L 58.745 524.000 L 61.631 529.000 L 67.405 529.000 L 67.405 539.000 L 76.065 544.000 L 78.952 539.000 L 76.065 534.000 L 84.725 529.000 L 84.725 519.000 L 78.952 519.000 L 76.065 514.000 L 67.405 519.000 L 58.745 514.000 Z " fill="#d9e9f7" stroke="#666666" stroke-width="0.80" fill-rule="evenodd"/>
<circle cx="61.631" cy="529.000" r="2.1" fill="#000000" stroke="none"/>
<circle cx="67.405" cy="529.000" r="2.1" fill="#000000" stroke="none"/>
<circle cx="58.745" cy="544.000" r="2.1" fill="#000000" stroke="none"/>
<circle cx="76.065" cy="544.000" r="2.1" fill="#000000" stroke="none"/>
<circle cx="67.405" cy="539.000" r="2.1" fill="#000000" stroke="none"/>
<circle cx="67.405" cy="539.000" r="2.8" fill="#d60000" stroke="none"/>
<path d="M 170.460 526.500 L 173.347 531.500 L 176.234 536.500 L 182.007 536.500 L 182.007 546.500 L 190.668 551.500 L 193.554 546.500 L 199.328 546.500 L 199.328 556.500 L 207.988 561.500 L 210.875 556.500 L 216.648 556.500 L 216.648 546.500 L 225.309 541.500 L 222.422 536.500 L 216.648 536.500 L 216.648 526.500 L 225.309 521.500 L 222.422 516.500 L 216.648 516.500 L 210.875 516.500 L 207.988 521.500 L 199.328 516.500 L 190.668 521.500 L 182.007 526.500 L 173.347 521.500 Z " fill="#dddddd" stroke="black" stroke-width="1.50" fill-rule="evenodd"/>
<path d="M 199.328 536.500 L 207.988 541.500 L 210.875 536.500 L 216.648 536.500 L 216.648 526.500 L 225.309 521.500 L 222.422 516.500 L 216.648 516.500 L 210.875 516.500 L 207.988 521.500 L 199.328 516.500 L 190.668 521.500 L 193.554 526.500 L 199.328 526.500 Z " fill="#d9e9f7" stroke="#666666" stroke-width="0.80" fill-rule="evenodd"/>
<path d="M 193.554 546.500 L 190.668 541.500 L 199.328 536.500 L 199.328 526.500 L 193.554 526.500 L 190.668 521.500 L 182.007 526.500 L 173.347 521.500 L 170.460 526.500 L 173.347 531.500 L 176.234 536.500 L 182.007 536.500 L 182.007 546.500 L 190.668 551.500 Z " fill="#d9e9f7" stroke="#666666" stroke-width="0.80" fill-rule="evenodd"/>
<path d="M 222.422 536.500 L 216.648 536.500 L 210.875 536.500 L 207.988 541.500 L 199.328 536.500 L 190.668 541.500 L 193.554 546.500 L 199.328 546.500 L 199.328 556.500 L 207.988 561.500 L 210.875 556.500 L 216.648 556.500 L 216.648 546.500 L 225.309 541.500 Z " fill="#d9e9f7" stroke="#666666" stroke-width="0.80" fill-rule="evenodd"/>
<circle cx="193.554" cy="526.500" r="2.1" fill="#000000" stroke="none"/>
<circle cx="210.875" cy="536.500" r="2.1" fill="#000000" stroke="none"/>
<circle cx="199.328" cy="526.500" r="2.1" fill="#000000" stroke="none"/>
<circle cx="190.668" cy="541.500" r="2.1" fill="#000000" stroke="none"/>
<circle cx="207.988" cy="541.500" r="2.1" fill="#000000" stroke="none"/>
<circle cx="199.328" cy="536.500" r="2.1" fill="#000000" stroke="none"/>
<circle cx="199.328" cy="536.500" r="2.8" fill="#d60000" stroke="none"/>
<path d="M 302.383 524.000 L 305.270 529.000 L 308.157 534.000 L 313.930 534.000 L 313.930 544.000 L 322.591 549.000 L 331.251 554.000 L 331.251 564.000 L 337.024 564.000 L 339.911 559.000 L 342.798 554.000 L 339.911 549.000 L 348.572 544.000 L 348.572 534.000 L 348.572 524.000 L 357.232 519.000 L 354.345 514.000 L 348.572 514.000 L 342.798 514.000 L 339.911 519.000 L 331.251 514.000 L 322.591 519.000 L 313.930 524.000 L 305.270 519.000 Z " fill="#dddddd" stroke="black" stroke-width="1.50" fill-rule="evenodd"/>
<path d="M 331.251 534.000 L 322.591 539.000 L 325.477 544.000 L 322.591 549.000 L 331.251 554.000 L 331.251 564.000 L 337.024 564.000 L 339.911 559.000 L 342.798 554.000 L 339.911 549.000 L 348.572 544.000 L 348.572 534.000 L 342.798 534.000 L 339.911 539.000 Z " fill="#d9e9f7" stroke="#666666" stroke-width="0.80" fill-rule="evenodd"/>
<path d="M 325.477 524.000 L 331.251 524.000 L 331.251 534.000 L 339.911 539.000 L 342.798 534.000 L 348.572 534.000 L 348.572 524.000 L 357.232 519.000 L 354.345 514.000 L 348.572 514.000 L 342.798 514.000 L 339.911 519.000 L 331.251 514.000 L 322.591 519.000 Z " fill="#d9e9f7" stroke="#666666" stroke-width="0.80" fill-rule="evenodd"/>
<path d="M 308.157 534.000 L 313.930 534.000 L 313.930 544.000 L 322.591 549.000 L 325.477 544.000 L 322.591 539.000 L 331.251 534.000 L 331.251 524.000 L 325.477 524.000 L 322.591 519.000 L 313.930 524.000 L 305.270 519.000 L 302.383 524.000 L 305.270 529.000 Z " fill="#d9e9f7" stroke="#666666" stroke-width="0.80" fill-rule="evenodd"/>
<circle cx="325.477" cy="524.000" r="2.1" fill="#000000" stroke="none"/>
<circle cx="325.477" cy="544.000" r="2.1" fill="#000000" stroke="none"/>
<circle cx="342.798" cy="534.000" r="2.1" fill="#000000" stroke="none"/>
<circle cx="331.251" cy="524.000" r="2.1" fill="#000000" stroke="none"/>
<circle cx="322.591" cy="539.000" r="2.1" fill="#000000" stroke="none"/>
<circle cx="339.911" cy="539.000" r="2.1" fill="#000000" stroke="none"/>
<circle cx="331.251" cy="534.000" r="2.1" fill="#000000" stroke="none"/>
<circle cx="331.251" cy="534.000" r="2.8" fill="#d60000" stroke="none"/>
<path d="M 438.637 539.000 L 435.750 544.000 L 444.410 549.000 L 453.070 544.000 L 455.957 549.000 L 453.070 554.000 L 450.184 559.000 L 453.070 564.000 L 461.731 559.000 L 470.391 564.000 L 473.278 559.000 L 479.051 559.000 L 479.051 549.000 L 470.391 544.000 L 473.278 539.000 L 479.051 539.000 L 484.825 539.000 L 487.711 534.000 L 479.051 529.000 L 479.051 519.000 L 473.278 519.000 L 470.391 514.000 L 461.731 519.000 L 461.731 529.000 L 455.957 529.000 L 453.070 524.000 L 450.184 519.000 L 444.410 519.000 L 444.410 529.000 L 435.750 534.000 Z " fill="#dddddd" stroke="black" stroke-width="1.50" fill-rule="evenodd"/>
<path d="M 479.051 549.000 L 479.051 559.000 L 473.278 559.000 L 470.391 564.000 L 461.731 559.000 L 453.070 564.000 L 450.184 559.000 L 453.070 554.000 L 455.957 549.000 L 461.731 549.000 L 461.731 539.000 L 470.391 534.000 L 473.278 539.000 L 470.391 544.000 Z " fill="#d9e9f7" stroke="#666666" stroke-width="0.80" fill-rule="evenodd"/>
<path d="M 455.957 549.000 L 453.070 544.000 L 444.410 549.000 L 435.750 544.000 L 438.637 539.000 L 435.750 534.000 L 444.410 529.000 L 444.410 519.000 L 450.184 519.000 L 453.070 524.000 L 455.957 529.000 L 453.070 534.000 L 461.731 539.000 L 461.731 549.000 Z " fill="#d9e9f7" stroke="#666666" stroke-width="0.80" fill-rule="evenodd"/>
<path d="M 473.278 539.000 L 470.391 534.000 L 461.731 539.000 L 453.070 534.000 L 455.957 529.000 L 461.731 529.000 L 461.731 519.000 L 470.391 514.000 L 473.278 519.000 L 479.051 519.000 L 479.051 529.000 L 487.711 534.000 L 484.825 539.000 L 479.051 539.000 Z " fill="#d9e9f7" stroke="#666666" stroke-width="0.80" fill-rule="evenodd"/>
<circle cx="453.070" cy="534.000" r="2.1" fill="#000000" stroke="none"/>
<circle cx="470.391" cy="534.000" r="2.1" fill="#000000" stroke="none"/>
<circle cx="461.731" cy="549.000" r="2.1" fill="#000000" stroke="none"/>
<circle cx="461.731" cy="539.000" r="2.1" fill="#000000" stroke="none"/>
<circle cx="461.731" cy="539.000" r="2.8" fill="#d60000" stroke="none"/>
</svg>
