<svg xmlns="http://www.w3.org/2000/svg" width="532" height="332" viewBox="0 0 532 332">
<rect width="100%" height="100%" fill="white"/>
<path d="M 16.887 31.500 L 14.000 36.500 L 22.660 41.500 L 31.321 36.500 L 34.207 41.500 L 31.321 46.500 L 39.981 51.500 L 39.981 61.500 L 45.754 61.500 L 48.641 66.500 L 57.301 61.500 L 57.301 51.500 L 63.075 51.500 L 65.962 46.500 L 68.848 41.500 L 74.622 41.500 L 74.622 31.500 L 65.962 26.500 L 68.848 21.500 L 65.962 16.500 L 57.301 21.500 L 57.301 31.500 L 51.528 31.500 L 48.641 36.500 L 39.981 31.500 L 39.981 21.500 L 34.207 21.500 L 31.321 16.500 L 22.660 21.500 L 22.660 31.500 Z " fill="#dddddd" stroke="black" stroke-width="1.50" fill-rule="evenodd"/>
<path d="M 74.622 31.500 L 74.622 41.500 L 68.848 41.500 L 65.962 46.500 L 57.301 41.500 L 48.641 46.500 L 45.754 41.500 L 48.641 36.500 L 51.528 31.500 L 57.301 31.500 L 57.301 21.500 L 65.962 16.500 L 68.848 21.500 L 65.962 26.500 Z " fill="#d9e9f7" stroke="#666666" stroke-width="0.80" fill-rule="evenodd"/>
<path d="M 45.754 61.500 L 39.981 61.500 L 39.981 51.500 L 31.321 46.500 L 34.207 41.500 L 39.981 41.500 L 45.754 41.500 L 48.641 46.500 L 57.301 41.500 L 65.962 46.500 L 63.075 51.500 L 57.301 51.500 L 57.301 61.500 L 48.641 66.500 Z " fill="#d9e9f7" stroke="#666666" stroke-width="0.80" fill-rule="evenodd"/>
<path d="M 34.207 41.500 L 31.321 36.500 L 22.660 41.500 L 14.000 36.500 L 16.887 31.500 L 22.660 31.500 L 22.660 21.500 L 31.321 16.500 L 34.207 21.500 L 39.981 21.500 L 39.981 31.500 L 48.641 36.500 L 45.754 41.500 L 39.981 41.500 Z " fill="#d9e9f7" stroke="#666666" stroke-width="0.80" fill-rule="evenodd"/>
<circle cx="-35.075" cy="61.500" r="2.8" fill="#d60000" stroke="white" stroke-width="0.8"/>
<path d="M 109.839 31.500 L 106.952 36.500 L 115.612 41.500 L 106.952 46.500 L 109.839 51.500 L 115.612 51.500 L 115.612 61.500 L 124.272 66.500 L 127.159 61.500 L 132.933 61.500 L 138.706 61.500 L 141.593 56.500 L 150.253 61.500 L 158.913 56.500 L 156.027 51.500 L 158.913 46.500 L 150.253 41.500 L 150.253 31.500 L 144.480 31.500 L 141.593 36.500 L 132.933 31.500 L 132.933 21.500 L 127.159 21.500 L 124.272 16.500 L 115.612 21.500 L 115.612 31.500 Z M 127.159 41.500 L 124.272 46.500 L 115.612 41.500 L 124.272 36.500 Z " fill="#dddddd" stroke="black" stroke-width="1.50" fill-rule="evenodd"/>
<path d="M 115.612 61.500 L 124.272 66.500 L 127.159 61.500 L 132.933 61.500 L 132.933 51.500 L 141.593 46.500 L 138.706 41.500 L 132.933 41.500 L 127.159 41.500 L 124.272 46.500 L 115.612 41.500 L 106.952 46.500 L 109.839 51.500 L 115.612 51.500 Z " fill="#d9e9f7" stroke="#666666" stroke-width="0.80" fill-rule="evenodd"/>
<path d="M 156.027 51.500 L 158.913 46.500 L 150.253 41.500 L 150.253 31.500 L 144.480 31.500 L 141.593 36.500 L 138.706 41.500 L 141.593 46.500 L 132.933 51.500 L 132.933 61.500 L 138.706 61.500 L 141.593 56.500 L 150.253 61.500 L 158.913 56.500 Z " fill="#d9e9f7" stroke="#666666" stroke-width="0.80" fill-rule="evenodd"/>
<path d="M 138.706 41.500 L 141.593 36.500 L 132.933 31.500 L 132.933 21.500 L 127.159 21.500 L 124.272 16.500 L 115.612 21.500 L 115.612 31.500 L 109.839 31.500 L 106.952 36.500 L 115.612 41.500 L 124.272 36.500 L 127.159 41.500 L 132.933 41.500 Z " fill="#bcd0e2" stroke="#666666" stroke-width="0.80" fill-rule="evenodd"/>
<circle cx="57.877" cy="61.500" r="2.8" fill="#d60000" stroke="white" stroke-width="0.8"/>
<path d="M 197.017 29.000 L 194.130 34.000 L 202.791 39.000 L 211.451 34.000 L 214.338 39.000 L 220.111 39.000 L 220.111 49.000 L 211.451 54.000 L 214.338 59.000 L 211.451 64.000 L 220.111 69.000 L 228.771 64.000 L 231.658 69.000 L 237.432 69.000 L 237.432 59.000 L 228.771 54.000 L 231.658 49.000 L 228.771 44.000 L 237.432 39.000 L 237.432 29.000 L 243.205 29.000 L 246.092 24.000 L 248.979 19.000 L 246.092 14.000 L 237.432 19.000 L 228.771 14.000 L 225.885 19.000 L 220.111 19.000 L 214.338 19.000 L 211.451 14.000 L 202.791 19.000 L 202.791 29.000 Z " fill="#dddddd" stroke="black" stroke-width="1.50" fill-rule="evenodd"/>
<path d="M 220.111 69.000 L 211.451 64.000 L 214.338 59.000 L 211.451 54.000 L 220.111 49.000 L 220.111 39.000 L 225.885 39.000 L 228.771 44.000 L 231.658 49.000 L 228.771 54.000 L 237.432 59.000 L 237.432 69.000 L 231.658 69.000 L 228.771 64.000 Z " fill="#d9e9f7" stroke="#666666" stroke-width="0.80" fill-rule="evenodd"/>
<path d="M 197.017 29.000 L 202.791 29.000 L 202.791 19.000 L 211.451 14.000 L 214.338 19.000 L 220.111 19.000 L 220.111 29.000 L 228.771 34.000 L 225.885 39.000 L 220.111 39.000 L 214.338 39.000 L 211.451 34.000 L 202.791 39.000 L 194.130 34.000 Z " fill="#d9e9f7" stroke="#666666" stroke-width="0.80" fill-rule="evenodd"/>
<path d="M 225.885 19.000 L 228.771 14.000 L 237.432 19.000 L 246.092 14.000 L 248.979 19.000 L 246.092 24.000 L 243.205 29.000 L 237.432 29.000 L 237.432 39.000 L 228.771 44.000 L 225.885 39.000 L 228.771 34.000 L 220.111 29.000 L 220.111 19.000 Z " fill="#d9e9f7" stroke="#666666" stroke-width="0.80" fill-rule="evenodd"/>
<circle cx="145.056" cy="59.000" r="2.8" fill="#d60000" stroke="white" stroke-width="0.8"/>
<path d="M 282.752 31.500 L 279.865 36.500 L 288.526 41.500 L 297.186 36.500 L 300.073 41.500 L 297.186 46.500 L 305.846 51.500 L 305.846 61.500 L 311.620 61.500 L 314.506 66.500 L 323.167 61.500 L 323.167 51.500 L 328.940 51.500 L 331.827 46.500 L 334.714 41.500 L 340.487 41.500 L 340.487 31.500 L 331.827 26.500 L 334.714 21.500 L 331.827 16.500 L 323.167 21.500 L 323.167 31.500 L 317.393 31.500 L 314.506 36.500 L 305.846 31.500 L 305.846 21.500 L 300.073 21.500 L 297.186 16.500 L 288.526 21.500 L 288.526 31.500 Z " fill="#dddddd" stroke="black" stroke-width="1.50" fill-rule="evenodd"/>
<path d="M 288.526 21.500 L 297.186 16.500 L 300.073 21.500 L 305.846 21.500 L 305.846 31.500 L 314.506 36.500 L 311.620 41.500 L 305.846 41.500 L 300.073 41.500 L 297.186 36.500 L 288.526 41.500 L 279.865 36.500 L 282.752 31.500 L 288.526 31.500 Z " fill="#d9e9f7" stroke="#666666" stroke-width="0.80" fill-rule="evenodd"/>
<path d="M 334.714 21.500 L 331.827 26.500 L 340.487 31.500 L 340.487 41.500 L 334.714 41.500 L 331.827 46.500 L 323.167 41.500 L 314.506 46.500 L 311.620 41.500 L 314.506 36.500 L 317.393 31.500 L 323.167 31.500 L 323.167 21.500 L 331.827 16.500 Z " fill="#d9e9f7" stroke="#666666" stroke-width="0.80" fill-rule="evenodd"/>
<path d="M 328.940 51.500 L 323.167 51.500 L 323.167 61.500 L 314.506 66.500 L 311.620 61.500 L 305.846 61.500 L 305.846 51.500 L 297.186 46.500 L 300.073 41.500 L 305.846 41.500 L 311.620 41.500 L 314.506 46.500 L 323.167 41.500 L 331.827 46.500 Z " fill="#d9e9f7" stroke="#666666" stroke-width="0.80" fill-rule="evenodd"/>
<circle cx="230.791" cy="61.500" r="2.8" fill="#d60000" stroke="white" stroke-width="0.8"/>
<path d="M 371.374 29.000 L 368.487 34.000 L 377.147 39.000 L 385.808 34.000 L 388.694 39.000 L 394.468 39.000 L 394.468 49.000 L 385.808 54.000 L 388.694 59.000 L 385.808 64.000 L 394.468 69.000 L 403.128 64.000 L 406.015 69.000 L 411.788 69.000 L 411.788 59.000 L 403.128 54.000 L 406.015 49.000 L 403.128 44.000 L 411.788 39.000 L 420.449 44.000 L 423.335 39.000 L 429.109 39.000 L 429.109 29.000 L 420.449 24.000 L 423.335 19.000 L 420.449 14.000 L 411.788 19.000 L 411.788 29.000 L 406.015 29.000 L 403.128 34.000 L 394.468 29.000 L 394.468 19.000 L 388.694 19.000 L 385.808 14.000 L 377.147 19.000 L 377.147 29.000 Z " fill="#dddddd" stroke="black" stroke-width="1.50" fill-rule="evenodd"/>
<path d="M 429.109 29.000 L 429.109 39.000 L 423.335 39.000 L 420.449 44.000 L 411.788 39.000 L 403.128 44.000 L 400.241 39.000 L 403.128 34.000 L 406.015 29.000 L 411.788 29.000 L 411.788 19.000 L 420.449 14.000 L 423.335 19.000 L 420.449 24.000 Z " fill="#d9e9f7" stroke="#666666" stroke-width="0.80" fill-rule="evenodd"/>
<path d="M 406.015 69.000 L 403.128 64.000 L 394.468 69.000 L 385.808 64.000 L 388.694 59.000 L 385.808 54.000 L 394.468 49.000 L 394.468 39.000 L 400.241 39.000 L 403.128 44.000 L 406.015 49.000 L 403.128 54.000 L 411.788 59.000 L 411.788 69.000 Z " fill="#d9e9f7" stroke="#666666" stroke-width="0.80" fill-rule="evenodd"/>
<path d="M 388.694 39.000 L 385.808 34.000 L 377.147 39.000 L 368.487 34.000 L 371.374 29.000 L 377.147 29.000 L 377.147 19.000 L 385.808 14.000 L 388.694 19.000 L 394.468 19.000 L 394.468 29.000 L 403.128 34.000 L 400.241 39.000 L 394.468 39.000 Z " fill="#d9e9f7" stroke="#666666" stroke-width="0.80" fill-rule="evenodd"/>
<circle cx="319.412" cy="59.000" r="2.8" fill="#d60000" stroke="white" stroke-width="0.8"/>
<path d="M 459.996 31.500 L 457.109 36.500 L 465.769 41.500 L 457.109 46.500 L 459.996 51.500 L 465.769 51.500 L 465.769 61.500 L 474.429 66.500 L 477.316 61.500 L 483.090 61.500 L 483.090 51.500 L 491.750 46.500 L 494.637 51.500 L 500.410 51.500 L 500.410 61.500 L 509.070 66.500 L 511.957 61.500 L 509.070 56.500 L 517.731 51.500 L 517.731 41.500 L 511.957 41.500 L 509.070 36.500 L 500.410 41.500 L 491.750 36.500 L 483.090 31.500 L 483.090 21.500 L 477.316 21.500 L 474.429 16.500 L 465.769 21.500 L 465.769 31.500 Z M 477.316 41.500 L 474.429 46.500 L 465.769 41.500 L 474.429 36.500 Z " fill="#dddddd" stroke="black" stroke-width="1.50" fill-rule="evenodd"/>
<path d="M 465.769 61.500 L 474.429 66.500 L 477.316 61.500 L 483.090 61.500 L 483.090 51.500 L 491.750 46.500 L 488.863 41.500 L 483.090 41.500 L 477.316 41.500 L 474.429 46.500 L 465.769 41.500 L 457.109 46.500 L 459.996 51.500 L 465.769 51.500 Z " fill="#d9e9f7" stroke="#666666" stroke-width="0.80" fill-rule="evenodd"/>
<path d="M 511.957 61.500 L 509.070 56.500 L 517.731 51.500 L 517.731 41.500 L 511.957 41.500 L 509.070 36.500 L 500.410 41.500 L 491.750 36.500 L 488.863 41.500 L 491.750 46.500 L 494.637 51.500 L 500.410 51.500 L 500.410 61.500 L 509.070 66.500 Z " fill="#d9e9f7" stroke="#666666" stroke-width="0.80" fill-rule="evenodd"/>
<path d="M 488.863 41.500 L 491.750 36.500 L 483.090 31.500 L 483.090 21.500 L 477.316 21.500 L 474.429 16.500 L 465.769 21.500 L 465.769 31.500 L 459.996 31.500 L 457.109 36.500 L 465.769 41.500 L 474.429 36.500 L 477.316 41.500 L 483.090 41.500 Z " fill="#bcd0e2" stroke="#666666" stroke-width="0.80" fill-rule="evenodd"/>
<circle cx="408.034" cy="61.500" r="2.8" fill="#d60000" stroke="white" stroke-width="0.8"/>
<path d="M 19.774 112.000 L 16.887 117.000 L 25.547 122.000 L 34.207 117.000 L 37.094 122.000 L 42.868 122.000 L 42.868 132.000 L 51.528 137.000 L 48.641 142.000 L 51.528 147.000 L 54.415 152.000 L 60.188 152.000 L 60.188 142.000 L 68.848 137.000 L 65.962 132.000 L 68.848 127.000 L 60.188 122.000 L 60.188 112.000 L 65.962 112.000 L 68.848 107.000 L 71.735 102.000 L 68.848 97.000 L 60.188 102.000 L 51.528 97.000 L 48.641 102.000 L 42.868 102.000 L 37.094 102.000 L 34.207 97.000 L 25.547 102.000 L 25.547 112.000 Z " fill="#dddddd" stroke="black" stroke-width="1.50" fill-rule="evenodd"/>
<path d="M 25.547 102.000 L 34.207 97.000 L 37.094 102.000 L 42.868 102.000 L 42.868 112.000 L 51.528 117.000 L 48.641 122.000 L 42.868 122.000 L 37.094 122.000 L 34.207 117.000 L 25.547 122.000 L 16.887 117.000 L 19.774 112.000 L 25.547 112.000 Z " fill="#d9e9f7" stroke="#666666" stroke-width="0.80" fill-rule="evenodd"/>
<path d="M 71.735 102.000 L 68.848 107.000 L 65.962 112.000 L 60.188 112.000 L 60.188 122.000 L 51.528 127.000 L 48.641 122.000 L 51.528 117.000 L 42.868 112.000 L 42.868 102.000 L 48.641 102.000 L 51.528 97.000 L 60.188 102.000 L 68.848 97.000 Z " fill="#d9e9f7" stroke="#666666" stroke-width="0.80" fill-rule="evenodd"/>
<path d="M 65.962 132.000 L 68.848 137.000 L 60.188 142.000 L 60.188 152.000 L 54.415 152.000 L 51.528 147.000 L 48.641 142.000 L 51.528 137.000 L 42.868 132.000 L 42.868 122.000 L 48.641 122.000 L 51.528 127.000 L 60.188 122.000 L 68.848 127.000 Z " fill="#d9e9f7" stroke="#666666" stroke-width="0.80" fill-rule="evenodd"/>
<circle cx="-32.188" cy="142.000" r="2.8" fill="#d60000" stroke="white" stroke-width="0.8"/>
<path d="M 108.395 114.500 L 105.509 119.500 L 114.169 124.500 L 122.829 119.500 L 125.716 124.500 L 122.829 129.500 L 131.489 134.500 L 131.489 144.500 L 137.263 144.500 L 140.150 149.500 L 148.810 144.500 L 148.810 134.500 L 154.583 134.500 L 157.470 129.500 L 148.810 124.500 L 148.810 114.500 L 154.583 114.500 L 157.470 109.500 L 160.357 104.500 L 157.470 99.500 L 148.810 104.500 L 140.150 99.500 L 137.263 104.500 L 131.489 104.500 L 125.716 104.500 L 122.829 99.500 L 114.169 104.500 L 114.169 114.500 Z " fill="#dddddd" stroke="black" stroke-width="1.50" fill-rule="evenodd"/>
<path d="M 114.169 104.500 L 122.829 99.500 L 125.716 104.500 L 131.489 104.500 L 131.489 114.500 L 140.150 119.500 L 137.263 124.500 L 131.489 124.500 L 125.716 124.500 L 122.829 119.500 L 114.169 124.500 L 105.509 119.500 L 108.395 114.500 L 114.169 114.500 Z " fill="#d9e9f7" stroke="#666666" stroke-width="0.80" fill-rule="evenodd"/>
<path d="M 160.357 104.500 L 157.470 109.500 L 154.583 114.500 L 148.810 114.500 L 148.810 124.500 L 140.150 129.500 L 137.263 124.500 L 140.150 119.500 L 131.489 114.500 L 131.489 104.500 L 137.263 104.500 L 140.150 99.500 L 148.810 104.500 L 157.470 99.500 Z " fill="#d9e9f7" stroke="#666666" stroke-width="0.80" fill-rule="evenodd"/>
<path d="M 154.583 134.500 L 148.810 134.500 L 148.810 144.500 L 140.150 149.500 L 137.263 144.500 L 131.489 144.500 L 131.489 134.500 L 122.829 129.500 L 125.716 124.500 L 131.489 124.500 L 137.263 124.500 L 140.150 129.500 L 148.810 124.500 L 157.470 129.500 Z " fill="#d9e9f7" stroke="#666666" stroke-width="0.80" fill-rule="evenodd"/>
<circle cx="56.434" cy="144.500" r="2.8" fill="#d60000" stroke="white" stroke-width="0.8"/>
<path d="M 197.017 112.000 L 194.130 117.000 L 202.791 122.000 L 211.451 117.000 L 214.338 122.000 L 220.111 122.000 L 220.111 132.000 L 211.451 137.000 L 214.338 142.000 L 211.451 147.000 L 220.111 152.000 L 228.771 147.000 L 231.658 152.000 L 237.432 152.000 L 237.432 142.000 L 228.771 137.000 L 231.658 132.000 L 228.771 127.000 L 237.432 122.000 L 237.432 112.000 L 243.205 112.000 L 246.092 107.000 L 248.979 102.000 L 246.092 97.000 L 237.432 102.000 L 228.771 97.000 L 225.885 102.000 L 220.111 102.000 L 214.338 102.000 L 211.451 97.000 L 202.791 102.000 L 202.791 112.000 Z " fill="#dddddd" stroke="black" stroke-width="1.50" fill-rule="evenodd"/>
<path d="M 202.791 102.000 L 211.451 97.000 L 214.338 102.000 L 220.111 102.000 L 220.111 112.000 L 228.771 117.000 L 225.885 122.000 L 220.111 122.000 L 214.338 122.000 L 211.451 117.000 L 202.791 122.000 L 194.130 117.000 L 197.017 112.000 L 202.791 112.000 Z " fill="#d9e9f7" stroke="#666666" stroke-width="0.80" fill-rule="evenodd"/>
<path d="M 248.979 102.000 L 246.092 107.000 L 243.205 112.000 L 237.432 112.000 L 237.432 122.000 L 228.771 127.000 L 225.885 122.000 L 228.771 117.000 L 220.111 112.000 L 220.111 102.000 L 225.885 102.000 L 228.771 97.000 L 237.432 102.000 L 246.092 97.000 Z " fill="#d9e9f7" stroke="#666666" stroke-width="0.80" fill-rule="evenodd"/>
<path d="M 231.658 132.000 L 228.771 137.000 L 237.432 142.000 L 237.432 152.000 L 231.658 152.000 L 228.771 147.000 L 220.111 152.000 L 211.451 147.000 L 214.338 142.000 L 211.451 137.000 L 220.111 132.000 L 220.111 122.000 L 225.885 122.000 L 228.771 127.000 Z " fill="#d9e9f7" stroke="#666666" stroke-width="0.80" fill-rule="evenodd"/>
<circle cx="145.056" cy="142.000" r="2.8" fill="#d60000" stroke="white" stroke-width="0.8"/>
<path d="M 285.639 114.500 L 282.752 119.500 L 291.412 124.500 L 282.752 129.500 L 285.639 134.500 L 291.412 134.500 L 291.412 144.500 L 300.073 149.500 L 302.959 144.500 L 308.733 144.500 L 314.506 144.500 L 317.393 149.500 L 326.053 144.500 L 334.714 149.500 L 337.600 144.500 L 334.714 139.500 L 331.827 134.500 L 326.053 134.500 L 326.053 124.500 L 317.393 119.500 L 308.733 114.500 L 308.733 104.500 L 302.959 104.500 L 300.073 99.500 L 291.412 104.500 L 291.412 114.500 Z M 302.959 124.500 L 300.073 129.500 L 291.412 124.500 L 300.073 119.500 Z " fill="#dddddd" stroke="black" stroke-width="1.50" fill-rule="evenodd"/>
<path d="M 291.412 144.500 L 300.073 149.500 L 302.959 144.500 L 308.733 144.500 L 308.733 134.500 L 317.393 129.500 L 314.506 124.500 L 308.733 124.500 L 302.959 124.500 L 300.073 129.500 L 291.412 124.500 L 282.752 129.500 L 285.639 134.500 L 291.412 134.500 Z " fill="#d9e9f7" stroke="#666666" stroke-width="0.80" fill-rule="evenodd"/>
<path d="M 337.600 144.500 L 334.714 139.500 L 331.827 134.500 L 326.053 134.500 L 326.053 124.500 L 317.393 119.500 L 314.506 124.500 L 317.393 129.500 L 308.733 134.500 L 308.733 144.500 L 314.506 144.500 L 317.393 149.500 L 326.053 144.500 L 334.714 149.500 Z " fill="#d9e9f7" stroke="#666666" stroke-width="0.80" fill-rule="evenodd"/>
<path d="M 314.506 124.500 L 317.393 119.500 L 308.733 114.500 L 308.733 104.500 L 302.959 104.500 L 300.073 99.500 L 291.412 104.500 L 291.412 114.500 L 285.639 114.500 L 282.752 119.500 L 291.412 124.500 L 300.073 119.500 L 302.959 124.500 L 308.733 124.500 Z " fill="#bcd0e2" stroke="#666666" stroke-width="0.80" fill-rule="evenodd"/>
<circle cx="233.677" cy="144.500" r="2.8" fill="#d60000" stroke="white" stroke-width="0.8"/>
<path d="M 374.261 114.500 L 371.374 119.500 L 380.034 124.500 L 371.374 129.500 L 374.261 134.500 L 380.034 134.500 L 380.034 144.500 L 388.694 149.500 L 391.581 144.500 L 397.355 144.500 L 403.128 144.500 L 406.015 149.500 L 414.675 144.500 L 423.335 149.500 L 426.222 144.500 L 423.335 139.500 L 420.449 134.500 L 414.675 134.500 L 414.675 124.500 L 406.015 119.500 L 397.355 114.500 L 397.355 104.500 L 391.581 104.500 L 388.694 99.500 L 380.034 104.500 L 380.034 114.500 Z M 391.581 124.500 L 388.694 129.500 L 380.034 124.500 L 388.694 119.500 Z " fill="#dddddd" stroke="black" stroke-width="1.50" fill-rule="evenodd"/>
<path d="M 380.034 104.500 L 388.694 99.500 L 391.581 104.500 L 397.355 104.500 L 397.355 114.500 L 406.015 119.500 L 403.128 124.500 L 397.355 124.500 L 391.581 124.500 L 388.694 119.500 L 380.034 124.500 L 371.374 119.500 L 374.261 114.500 L 380.034 114.500 Z " fill="#d9e9f7" stroke="#666666" stroke-width="0.80" fill-rule="evenodd"/>
<path d="M 426.222 144.500 L 423.335 149.500 L 414.675 144.500 L 406.015 149.500 L 403.128 144.500 L 397.355 144.500 L 397.355 134.500 L 406.015 129.500 L 403.128 124.500 L 406.015 119.500 L 414.675 124.500 L 414.675 134.500 L 420.449 134.500 L 423.335 139.500 Z " fill="#bcd0e2" stroke="#666666" stroke-width="0.80" fill-rule="evenodd"/>
<path d="M 403.128 124.500 L 406.015 129.500 L 397.355 134.500 L 397.355 144.500 L 391.581 144.500 L 388.694 149.500 L 380.034 144.500 L 380.034 134.500 L 374.261 134.500 L 371.374 129.500 L 380.034 124.500 L 388.694 129.500 L 391.581 124.500 L 397.355 124.500 Z " fill="#bcd0e2" stroke="#666666" stroke-width="0.80" fill-rule="evenodd"/>
<circle cx="322.299" cy="144.500" r="2.8" fill="#d60000" stroke="white" stroke-width="0.8"/>
<path d="M 459.996 114.500 L 457.109 119.500 L 465.769 124.500 L 457.109 129.500 L 459.996 134.500 L 465.769 134.500 L 465.769 144.500 L 474.429 149.500 L 477.316 144.500 L 483.090 144.500 L 483.090 134.500 L 491.750 129.500 L 494.637 134.500 L 500.410 134.500 L 500.410 144.500 L 509.070 149.500 L 511.957 144.500 L 509.070 139.500 L 517.731 134.500 L 517.731 124.500 L 511.957 124.500 L 509.070 119.500 L 500.410 124.500 L 491.750 119.500 L 483.090 114.500 L 483.090 104.500 L 477.316 104.500 L 474.429 99.500 L 465.769 104.500 L 465.769 114.500 Z M 477.316 124.500 L 474.429 129.500 L 465.769 124.500 L 474.429 119.500 Z " fill="#dddddd" stroke="black" stroke-width="1.50" fill-rule="evenodd"/>
<path d="M 517.731 134.500 L 517.731 124.500 L 511.957 124.500 L 509.070 119.500 L 500.410 124.500 L 491.750 119.500 L 488.863 124.500 L 491.750 129.500 L 494.637 134.500 L 500.410 134.500 L 500.410 144.500 L 509.070 149.500 L 511.957 144.500 L 509.070 139.500 Z " fill="#d9e9f7" stroke="#666666" stroke-width="0.80" fill-rule="evenodd"/>
<path d="M 477.316 104.500 L 474.429 99.500 L 465.769 104.500 L 465.769 114.500 L 459.996 114.500 L 457.109 119.500 L 465.769 124.500 L 474.429 119.500 L 477.316 124.500 L 483.090 124.500 L 488.863 124.500 L 491.750 119.500 L 483.090 114.500 L 483.090 104.500 Z " fill="#bcd0e2" stroke="#666666" stroke-width="0.80" fill-rule="evenodd"/>
<path d="M 477.316 124.500 L 474.429 129.500 L 465.769 124.500 L 457.109 129.500 L 459.996 134.500 L 465.769 134.500 L 465.769 144.500 L 474.429 149.500 L 477.316 144.500 L 483.090 144.500 L 483.090 134.500 L 491.750 129.500 L 488.863 124.500 L 483.090 124.500 Z " fill="#d9e9f7" stroke="#666666" stroke-width="0.80" fill-rule="evenodd"/>
<circle cx="408.034" cy="144.500" r="2.8" fill="#d60000" stroke="white" stroke-width="0.8"/>
<path d="M 16.887 197.500 L 14.000 202.500 L 22.660 207.500 L 14.000 212.500 L 16.887 217.500 L 22.660 217.500 L 22.660 227.500 L 31.321 232.500 L 34.207 227.500 L 39.981 227.500 L 39.981 217.500 L 48.641 212.500 L 51.528 217.500 L 57.301 217.500 L 57.301 227.500 L 65.962 232.500 L 68.848 227.500 L 65.962 222.500 L 74.622 217.500 L 74.622 207.500 L 68.848 207.500 L 65.962 202.500 L 57.301 207.500 L 48.641 202.500 L 39.981 197.500 L 39.981 187.500 L 34.207 187.500 L 31.321 182.500 L 22.660 187.500 L 22.660 197.500 Z M 34.207 207.500 L 31.321 212.500 L 22.660 207.500 L 31.321 202.500 Z " fill="#dddddd" stroke="black" stroke-width="1.50" fill-rule="evenodd"/>
<path d="M 22.660 187.500 L 31.321 182.500 L 34.207 187.500 L 39.981 187.500 L 39.981 197.500 L 48.641 202.500 L 45.754 207.500 L 39.981 207.500 L 34.207 207.500 L 31.321 202.500 L 22.660 207.500 L 14.000 202.500 L 16.887 197.500 L 22.660 197.500 Z " fill="#d9e9f7" stroke="#666666" stroke-width="0.80" fill-rule="evenodd"/>
<path d="M 68.848 207.500 L 74.622 207.500 L 74.622 217.500 L 65.962 222.500 L 68.848 227.500 L 65.962 232.500 L 57.301 227.500 L 57.301 217.500 L 51.528 217.500 L 48.641 212.500 L 45.754 207.500 L 48.641 202.500 L 57.301 207.500 L 65.962 202.500 Z " fill="#bcd0e2" stroke="#666666" stroke-width="0.80" fill-rule="evenodd"/>
<path d="M 45.754 207.500 L 48.641 212.500 L 39.981 217.500 L 39.981 227.500 L 34.207 227.500 L 31.321 232.500 L 22.660 227.500 L 22.660 217.500 L 16.887 217.500 L 14.000 212.500 L 22.660 207.500 L 31.321 212.500 L 34.207 207.500 L 39.981 207.500 Z " fill="#bcd0e2" stroke="#666666" stroke-width="0.80" fill-rule="evenodd"/>
<circle cx="-35.075" cy="227.500" r="2.8" fill="#d60000" stroke="white" stroke-width="0.8"/>
<path d="M 109.839 197.500 L 106.952 202.500 L 115.612 207.500 L 106.952 212.500 L 109.839 217.500 L 115.612 217.500 L 115.612 227.500 L 124.272 232.500 L 127.159 227.500 L 132.933 227.500 L 138.706 227.500 L 141.593 222.500 L 150.253 227.500 L 158.913 222.500 L 156.027 217.500 L 158.913 212.500 L 150.253 207.500 L 150.253 197.500 L 144.480 197.500 L 141.593 202.500 L 132.933 197.500 L 132.933 187.500 L 127.159 187.500 L 124.272 182.500 L 115.612 187.500 L 115.612 197.500 Z M 127.159 207.500 L 124.272 212.500 L 115.612 207.500 L 124.272 202.500 Z " fill="#dddddd" stroke="black" stroke-width="1.50" fill-rule="evenodd"/>
<path d="M 115.612 187.500 L 124.272 182.500 L 127.159 187.500 L 132.933 187.500 L 132.933 197.500 L 141.593 202.500 L 138.706 207.500 L 132.933 207.500 L 127.159 207.500 L 124.272 202.500 L 115.612 207.500 L 106.952 202.500 L 109.839 197.500 L 115.612 197.500 Z " fill="#d9e9f7" stroke="#666666" stroke-width="0.80" fill-rule="evenodd"/>
<path d="M 156.027 217.500 L 158.913 222.500 L 150.253 227.500 L 141.593 222.500 L 138.706 227.500 L 132.933 227.500 L 132.933 217.500 L 141.593 212.500 L 138.706 207.500 L 141.593 202.500 L 144.480 197.500 L 150.253 197.500 L 150.253 207.500 L 158.913 212.500 Z " fill="#bcd0e2" stroke="#666666" stroke-width="0.80" fill-rule="evenodd"/>
<path d="M 138.706 207.500 L 141.593 212.500 L 132.933 217.500 L 132.933 227.500 L 127.159 227.500 L 124.272 232.500 L 115.612 227.500 L 115.612 217.500 L 109.839 217.500 L 106.952 212.500 L 115.612 207.500 L 124.272 212.500 L 127.159 207.500 L 132.933 207.500 Z " fill="#bcd0e2" stroke="#666666" stroke-width="0.80" fill-rule="evenodd"/>
<circle cx="57.877" cy="227.500" r="2.8" fill="#d60000" stroke="white" stroke-width="0.8"/>
<path d="M 197.017 197.500 L 194.130 202.500 L 202.791 207.500 L 211.451 202.500 L 214.338 207.500 L 211.451 212.500 L 220.111 217.500 L 220.111 227.500 L 225.885 227.500 L 228.771 232.500 L 237.432 227.500 L 237.432 217.500 L 243.205 217.500 L 246.092 212.500 L 237.432 207.500 L 237.432 197.500 L 243.205 197.500 L 246.092 192.500 L 248.979 187.500 L 246.092 182.500 L 237.432 187.500 L 228.771 182.500 L 225.885 187.500 L 220.111 187.500 L 214.338 187.500 L 211.451 182.500 L 202.791 187.500 L 202.791 197.500 Z " fill="#dddddd" stroke="black" stroke-width="1.50" fill-rule="evenodd"/>
<path d="M 237.432 227.500 L 228.771 232.500 L 225.885 227.500 L 220.111 227.500 L 220.111 217.500 L 211.451 212.500 L 214.338 207.500 L 220.111 207.500 L 225.885 207.500 L 228.771 212.500 L 237.432 207.500 L 246.092 212.500 L 243.205 217.500 L 237.432 217.500 Z " fill="#d9e9f7" stroke="#666666" stroke-width="0.80" fill-rule="evenodd"/>
<path d="M 197.017 197.500 L 202.791 197.500 L 202.791 187.500 L 211.451 182.500 L 214.338 187.500 L 220.111 187.500 L 220.111 197.500 L 228.771 202.500 L 225.885 207.500 L 220.111 207.500 L 214.338 207.500 L 211.451 202.500 L 202.791 207.500 L 194.130 202.500 Z " fill="#d9e9f7" stroke="#666666" stroke-width="0.80" fill-rule="evenodd"/>
<path d="M 225.885 207.500 L 228.771 202.500 L 220.111 197.500 L 220.111 187.500 L 225.885 187.500 L 228.771 182.500 L 237.432 187.500 L 246.092 182.500 L 248.979 187.500 L 246.092 192.500 L 243.205 197.500 L 237.432 197.500 L 237.432 207.500 L 228.771 212.500 Z " fill="#d9e9f7" stroke="#666666" stroke-width="0.80" fill-rule="evenodd"/>
<circle cx="156.603" cy="227.500" r="2.8" fill="#d60000" stroke="white" stroke-width="0.8"/>
<path d="M 282.752 197.500 L 279.865 202.500 L 288.526 207.500 L 297.186 202.500 L 300.073 207.500 L 297.186 212.500 L 305.846 217.500 L 305.846 227.500 L 311.620 227.500 L 314.506 232.500 L 323.167 227.500 L 323.167 217.500 L 328.940 217.500 L 331.827 212.500 L 334.714 207.500 L 340.487 207.500 L 340.487 197.500 L 331.827 192.500 L 334.714 187.500 L 331.827 182.500 L 323.167 187.500 L 323.167 197.500 L 317.393 197.500 L 314.506 202.500 L 305.846 197.500 L 305.846 187.500 L 300.073 187.500 L 297.186 182.500 L 288.526 187.500 L 288.526 197.500 Z " fill="#dddddd" stroke="black" stroke-width="1.50" fill-rule="evenodd"/>
<path d="M 323.167 227.500 L 314.506 232.500 L 311.620 227.500 L 305.846 227.500 L 305.846 217.500 L 297.186 212.500 L 300.073 207.500 L 305.846 207.500 L 311.620 207.500 L 314.506 212.500 L 323.167 207.500 L 331.827 212.500 L 328.940 217.500 L 323.167 217.500 Z " fill="#d9e9f7" stroke="#666666" stroke-width="0.80" fill-rule="evenodd"/>
<path d="M 282.752 197.500 L 288.526 197.500 L 288.526 187.500 L 297.186 182.500 L 300.073 187.500 L 305.846 187.500 L 305.846 197.500 L 314.506 202.500 L 311.620 207.500 L 305.846 207.500 L 300.073 207.500 L 297.186 202.500 L 288.526 207.500 L 279.865 202.500 Z " fill="#d9e9f7" stroke="#666666" stroke-width="0.80" fill-rule="evenodd"/>
<path d="M 311.620 207.500 L 314.506 202.500 L 317.393 197.500 L 323.167 197.500 L 323.167 187.500 L 331.827 182.500 L 334.714 187.500 L 331.827 192.500 L 340.487 197.500 L 340.487 207.500 L 334.714 207.500 L 331.827 212.500 L 323.167 207.500 L 314.506 212.500 Z " fill="#d9e9f7" stroke="#666666" stroke-width="0.80" fill-rule="evenodd"/>
<circle cx="242.338" cy="227.500" r="2.8" fill="#d60000" stroke="white" stroke-width="0.8"/>
<path d="M 375.704 197.500 L 372.817 202.500 L 381.477 207.500 L 372.817 212.500 L 375.704 217.500 L 381.477 217.500 L 381.477 227.500 L 390.138 232.500 L 393.024 227.500 L 398.798 227.500 L 404.572 227.500 L 407.458 222.500 L 416.119 227.500 L 424.779 222.500 L 421.892 217.500 L 424.779 212.500 L 416.119 207.500 L 416.119 197.500 L 410.345 197.500 L 407.458 202.500 L 398.798 197.500 L 398.798 187.500 L 393.024 187.500 L 390.138 182.500 L 381.477 187.500 L 381.477 197.500 Z M 393.024 207.500 L 390.138 212.500 L 381.477 207.500 L 390.138 202.500 Z " fill="#dddddd" stroke="black" stroke-width="1.50" fill-rule="evenodd"/>
<path d="M 416.119 227.500 L 424.779 222.500 L 421.892 217.500 L 424.779 212.500 L 416.119 207.500 L 416.119 197.500 L 410.345 197.500 L 407.458 202.500 L 404.572 207.500 L 407.458 212.500 L 398.798 217.500 L 398.798 227.500 L 404.572 227.500 L 407.458 222.500 Z " fill="#d9e9f7" stroke="#666666" stroke-width="0.80" fill-rule="evenodd"/>
<path d="M 393.024 187.500 L 390.138 182.500 L 381.477 187.500 L 381.477 197.500 L 375.704 197.500 L 372.817 202.500 L 381.477 207.500 L 390.138 202.500 L 393.024 207.500 L 398.798 207.500 L 404.572 207.500 L 407.458 202.500 L 398.798 197.500 L 398.798 187.500 Z " fill="#bcd0e2" stroke="#666666" stroke-width="0.80" fill-rule="evenodd"/>
<path d="M 404.572 207.500 L 398.798 207.500 L 393.024 207.500 L 390.138 212.500 L 381.477 207.500 L 372.817 212.500 L 375.704 217.500 L 381.477 217.500 L 381.477 227.500 L 390.138 232.500 L 393.024 227.500 L 398.798 227.500 L 398.798 217.500 L 407.458 212.500 Z " fill="#d9e9f7" stroke="#666666" stroke-width="0.80" fill-rule="evenodd"/>
<circle cx="335.289" cy="227.500" r="2.8" fill="#d60000" stroke="white" stroke-width="0.8"/>
<path d="M 462.882 195.000 L 459.996 200.000 L 468.656 205.000 L 477.316 200.000 L 480.203 205.000 L 485.976 205.000 L 485.976 215.000 L 494.637 220.000 L 491.750 225.000 L 494.637 230.000 L 497.523 235.000 L 503.297 235.000 L 503.297 225.000 L 511.957 220.000 L 509.070 215.000 L 511.957 210.000 L 503.297 205.000 L 503.297 195.000 L 509.070 195.000 L 511.957 190.000 L 514.844 185.000 L 511.957 180.000 L 503.297 185.000 L 494.637 180.000 L 491.750 185.000 L 485.976 185.000 L 480.203 185.000 L 477.316 180.000 L 468.656 185.000 L 468.656 195.000 Z " fill="#dddddd" stroke="black" stroke-width="1.50" fill-rule="evenodd"/>
<path d="M 485.976 195.000 L 485.976 185.000 L 491.750 185.000 L 494.637 180.000 L 503.297 185.000 L 511.957 180.000 L 514.844 185.000 L 511.957 190.000 L 509.070 195.000 L 503.297 195.000 L 503.297 205.000 L 494.637 210.000 L 491.750 205.000 L 494.637 200.000 Z " fill="#d9e9f7" stroke="#666666" stroke-width="0.80" fill-rule="evenodd"/>
<path d="M 491.750 205.000 L 494.637 210.000 L 503.297 205.000 L 511.957 210.000 L 509.070 215.000 L 511.957 220.000 L 503.297 225.000 L 503.297 235.000 L 497.523 235.000 L 494.637 230.000 L 491.750 225.000 L 494.637 220.000 L 485.976 215.000 L 485.976 205.000 Z " fill="#d9e9f7" stroke="#666666" stroke-width="0.80" fill-rule="evenodd"/>
<path d="M 480.203 185.000 L 485.976 185.000 L 485.976 195.000 L 494.637 200.000 L 491.750 205.000 L 485.976 205.000 L 480.203 205.000 L 477.316 200.000 L 468.656 205.000 L 459.996 200.000 L 462.882 195.000 L 468.656 195.000 L 468.656 185.000 L 477.316 180.000 Z " fill="#d9e9f7" stroke="#666666" stroke-width="0.80" fill-rule="evenodd"/>
<circle cx="439.788" cy="215.000" r="2.8" fill="#d60000" stroke="white" stroke-width="0.8"/>
<path d="M 19.774 278.000 L 16.887 283.000 L 25.547 288.000 L 25.547 298.000 L 31.321 298.000 L 34.207 303.000 L 42.868 298.000 L 51.528 303.000 L 48.641 308.000 L 51.528 313.000 L 54.415 318.000 L 60.188 318.000 L 60.188 308.000 L 68.848 303.000 L 65.962 298.000 L 68.848 293.000 L 60.188 288.000 L 60.188 278.000 L 65.962 278.000 L 68.848 273.000 L 71.735 268.000 L 68.848 263.000 L 60.188 268.000 L 51.528 263.000 L 48.641 268.000 L 42.868 268.000 L 42.868 278.000 L 34.207 283.000 L 31.321 278.000 L 25.547 278.000 Z " fill="#dddddd" stroke="black" stroke-width="1.50" fill-rule="evenodd"/>
<path d="M 42.868 298.000 L 34.207 303.000 L 31.321 298.000 L 25.547 298.000 L 25.547 288.000 L 16.887 283.000 L 19.774 278.000 L 25.547 278.000 L 31.321 278.000 L 34.207 283.000 L 42.868 278.000 L 51.528 283.000 L 48.641 288.000 L 42.868 288.000 Z " fill="#d9e9f7" stroke="#666666" stroke-width="0.80" fill-rule="evenodd"/>
<path d="M 48.641 288.000 L 51.528 283.000 L 42.868 278.000 L 42.868 268.000 L 48.641 268.000 L 51.528 263.000 L 60.188 268.000 L 68.848 263.000 L 71.735 268.000 L 68.848 273.000 L 65.962 278.000 L 60.188 278.000 L 60.188 288.000 L 51.528 293.000 Z " fill="#d9e9f7" stroke="#666666" stroke-width="0.80" fill-rule="evenodd"/>
<path d="M 48.641 308.000 L 51.528 303.000 L 42.868 298.000 L 42.868 288.000 L 48.641 288.000 L 51.528 293.000 L 60.188 288.000 L 68.848 293.000 L 65.962 298.000 L 68.848 303.000 L 60.188 308.000 L 60.188 318.000 L 54.415 318.000 L 51.528 313.000 Z " fill="#d9e9f7" stroke="#666666" stroke-width="0.80" fill-rule="evenodd"/>
<circle cx="-3.321" cy="298.000" r="2.8" fill="#d60000" stroke="white" stroke-width="0.8"/>
<path d="M 108.395 280.500 L 105.509 285.500 L 114.169 290.500 L 122.829 285.500 L 125.716 290.500 L 122.829 295.500 L 131.489 300.500 L 131.489 310.500 L 137.263 310.500 L 140.150 315.500 L 148.810 310.500 L 148.810 300.500 L 154.583 300.500 L 157.470 295.500 L 148.810 290.500 L 148.810 280.500 L 154.583 280.500 L 157.470 275.500 L 160.357 270.500 L 157.470 265.500 L 148.810 270.500 L 140.150 265.500 L 137.263 270.500 L 131.489 270.500 L 125.716 270.500 L 122.829 265.500 L 114.169 270.500 L 114.169 280.500 Z " fill="#dddddd" stroke="black" stroke-width="1.50" fill-rule="evenodd"/>
<path d="M 131.489 280.500 L 131.489 270.500 L 137.263 270.500 L 140.150 265.500 L 148.810 270.500 L 157.470 265.500 L 160.357 270.500 L 157.470 275.500 L 154.583 280.500 L 148.810 280.500 L 148.810 290.500 L 140.150 295.500 L 137.263 290.500 L 140.150 285.500 Z " fill="#d9e9f7" stroke="#666666" stroke-width="0.80" fill-rule="evenodd"/>
<path d="M 137.263 290.500 L 140.150 295.500 L 148.810 290.500 L 157.470 295.500 L 154.583 300.500 L 148.810 300.500 L 148.810 310.500 L 140.150 315.500 L 137.263 310.500 L 131.489 310.500 L 131.489 300.500 L 122.829 295.500 L 125.716 290.500 L 131.489 290.500 Z " fill="#d9e9f7" stroke="#666666" stroke-width="0.80" fill-rule="evenodd"/>
<path d="M 125.716 270.500 L 131.489 270.500 L 131.489 280.500 L 140.150 285.500 L 137.263 290.500 L 131.489 290.500 L 125.716 290.500 L 122.829 285.500 L 114.169 290.500 L 105.509 285.500 L 108.395 280.500 L 114.169 280.500 L 114.169 270.500 L 122.829 265.500 Z " fill="#d9e9f7" stroke="#666666" stroke-width="0.80" fill-rule="evenodd"/>
<circle cx="85.301" cy="300.500" r="2.8" fill="#d60000" stroke="white" stroke-width="0.8"/>
<path d="M 197.017 278.000 L 194.130 283.000 L 202.791 288.000 L 211.451 283.000 L 214.338 288.000 L 220.111 288.000 L 220.111 298.000 L 211.451 303.000 L 214.338 308.000 L 211.451 313.000 L 220.111 318.000 L 228.771 313.000 L 231.658 318.000 L 237.432 318.000 L 237.432 308.000 L 228.771 303.000 L 231.658 298.000 L 228.771 293.000 L 237.432 288.000 L 237.432 278.000 L 243.205 278.000 L 246.092 273.000 L 248.979 268.000 L 246.092 263.000 L 237.432 268.000 L 228.771 263.000 L 225.885 268.000 L 220.111 268.000 L 214.338 268.000 L 211.451 263.000 L 202.791 268.000 L 202.791 278.000 Z " fill="#dddddd" stroke="black" stroke-width="1.50" fill-rule="evenodd"/>
<path d="M 220.111 278.000 L 220.111 268.000 L 225.885 268.000 L 228.771 263.000 L 237.432 268.000 L 246.092 263.000 L 248.979 268.000 L 246.092 273.000 L 243.205 278.000 L 237.432 278.000 L 237.432 288.000 L 228.771 293.000 L 225.885 288.000 L 228.771 283.000 Z " fill="#d9e9f7" stroke="#666666" stroke-width="0.80" fill-rule="evenodd"/>
<path d="M 225.885 288.000 L 228.771 293.000 L 231.658 298.000 L 228.771 303.000 L 237.432 308.000 L 237.432 318.000 L 231.658 318.000 L 228.771 313.000 L 220.111 318.000 L 211.451 313.000 L 214.338 308.000 L 211.451 303.000 L 220.111 298.000 L 220.111 288.000 Z " fill="#d9e9f7" stroke="#666666" stroke-width="0.80" fill-rule="evenodd"/>
<path d="M 214.338 268.000 L 220.111 268.000 L 220.111 278.000 L 228.771 283.000 L 225.885 288.000 L 220.111 288.000 L 214.338 288.000 L 211.451 283.000 L 202.791 288.000 L 194.130 283.000 L 197.017 278.000 L 202.791 278.000 L 202.791 268.000 L 211.451 263.000 Z " fill="#d9e9f7" stroke="#666666" stroke-width="0.80" fill-rule="evenodd"/>
<circle cx="173.923" cy="298.000" r="2.8" fill="#d60000" stroke="white" stroke-width="0.8"/>
<path d="M 285.639 278.000 L 282.752 283.000 L 291.412 288.000 L 300.073 283.000 L 302.959 288.000 L 308.733 288.000 L 308.733 298.000 L 317.393 303.000 L 314.506 308.000 L 317.393 313.000 L 320.280 318.000 L 326.053 318.000 L 326.053 308.000 L 334.714 303.000 L 331.827 298.000 L 334.714 293.000 L 326.053 288.000 L 326.053 278.000 L 331.827 278.000 L 334.714 273.000 L 337.600 268.000 L 334.714 263.000 L 326.053 268.000 L 317.393 263.000 L 314.506 268.000 L 308.733 268.000 L 302.959 268.000 L 300.073 263.000 L 291.412 268.000 L 291.412 278.000 Z " fill="#dddddd" stroke="black" stroke-width="1.50" fill-rule="evenodd"/>
<path d="M 326.053 288.000 L 334.714 293.000 L 331.827 298.000 L 334.714 303.000 L 326.053 308.000 L 326.053 318.000 L 320.280 318.000 L 317.393 313.000 L 314.506 308.000 L 317.393 303.000 L 308.733 298.000 L 308.733 288.000 L 314.506 288.000 L 317.393 293.000 Z " fill="#d9e9f7" stroke="#666666" stroke-width="0.80" fill-rule="evenodd"/>
<path d="M 314.506 288.000 L 308.733 288.000 L 302.959 288.000 L 300.073 283.000 L 291.412 288.000 L 282.752 283.000 L 285.639 278.000 L 291.412 278.000 L 291.412 268.000 L 300.073 263.000 L 302.959 268.000 L 308.733 268.000 L 308.733 278.000 L 317.393 283.000 Z " fill="#d9e9f7" stroke="#666666" stroke-width="0.80" fill-rule="evenodd"/>
<path d="M 331.827 278.000 L 326.053 278.000 L 326.053 288.000 L 317.393 293.000 L 314.506 288.000 L 317.393 283.000 L 308.733 278.000 L 308.733 268.000 L 314.506 268.000 L 317.393 263.000 L 326.053 268.000 L 334.714 263.000 L 337.600 268.000 L 334.714 273.000 Z " fill="#d9e9f7" stroke="#666666" stroke-width="0.80" fill-rule="evenodd"/>
<circle cx="262.545" cy="298.000" r="2.8" fill="#d60000" stroke="white" stroke-width="0.8"/>
<path d="M 374.261 280.500 L 371.374 285.500 L 380.034 290.500 L 371.374 295.500 L 374.261 300.500 L 380.034 300.500 L 380.034 310.500 L 388.694 315.500 L 391.581 310.500 L 397.355 310.500 L 403.128 310.500 L 406.015 315.500 L 414.675 310.500 L 423.335 315.500 L 426.222 310.500 L 423.335 305.500 L 420.449 300.500 L 414.675 300.500 L 414.675 290.500 L 406.015 285.500 L 397.355 280.500 L 397.355 270.500 L 391.581 270.500 L 388.694 265.500 L 380.034 270.500 L 380.034 280.500 Z M 391.581 290.500 L 388.694 295.500 L 380.034 290.500 L 388.694 285.500 Z " fill="#dddddd" stroke="black" stroke-width="1.50" fill-rule="evenodd"/>
<path d="M 397.355 300.500 L 397.355 310.500 L 403.128 310.500 L 406.015 315.500 L 414.675 310.500 L 423.335 315.500 L 426.222 310.500 L 423.335 305.500 L 420.449 300.500 L 414.675 300.500 L 414.675 290.500 L 406.015 285.500 L 403.128 290.500 L 406.015 295.500 Z " fill="#d9e9f7" stroke="#666666" stroke-width="0.80" fill-rule="evenodd"/>
<path d="M 403.128 290.500 L 406.015 285.500 L 397.355 280.500 L 397.355 270.500 L 391.581 270.500 L 388.694 265.500 L 380.034 270.500 L 380.034 280.500 L 374.261 280.500 L 371.374 285.500 L 380.034 290.500 L 388.694 285.500 L 391.581 290.500 L 397.355 290.500 Z " fill="#bcd0e2" stroke="#666666" stroke-width="0.80" fill-rule="evenodd"/>
<path d="M 391.581 310.500 L 397.355 310.500 L 397.355 300.500 L 406.015 295.500 L 403.128 290.500 L 397.355 290.500 L 391.581 290.500 L 388.694 295.500 L 380.034 290.500 L 371.374 295.500 L 374.261 300.500 L 380.034 300.500 L 380.034 310.500 L 388.694 315.500 Z " fill="#d9e9f7" stroke="#666666" stroke-width="0.80" fill-rule="evenodd"/>
<circle cx="351.167" cy="300.500" r="2.8" fill="#d60000" stroke="white" stroke-width="0.8"/>
</svg>
