<svg xmlns="http://www.w3.org/2000/svg" width="401" height="176" viewBox="0 0 401 176">
<rect width="100%" height="100%" fill="white"/>
<path d="M 22.660 31.500 L 25.547 36.500 L 28.434 41.500 L 34.207 41.500 L 34.207 51.500 L 42.868 56.500 L 45.754 51.500 L 51.528 51.500 L 51.528 61.500 L 60.188 66.500 L 63.075 61.500 L 68.848 61.500 L 68.848 51.500 L 77.509 46.500 L 74.622 41.500 L 68.848 41.500 L 68.848 31.500 L 77.509 26.500 L 74.622 21.500 L 68.848 21.500 L 63.075 21.500 L 60.188 26.500 L 51.528 21.500 L 42.868 26.500 L 34.207 31.500 L 25.547 26.500 Z " fill="#dddddd" stroke="black" stroke-width="1.50" fill-rule="evenodd"/>
<path d="M 51.528 41.500 L 60.188 46.500 L 63.075 41.500 L 68.848 41.500 L 68.848 31.500 L 77.509 26.500 L 74.622 21.500 L 68.848 21.500 L 63.075 21.500 L 60.188 26.500 L 51.528 21.500 L 42.868 26.500 L 45.754 31.500 L 51.528 31.500 Z " fill="#d9e9f7" stroke="#666666" stroke-width="0.80" fill-rule="evenodd"/>
<path d="M 45.754 51.500 L 42.868 46.500 L 51.528 41.500 L 51.528 31.500 L 45.754 31.500 L 42.868 26.500 L 34.207 31.500 L 25.547 26.500 L 22.660 31.500 L 25.547 36.500 L 28.434 41.500 L 34.207 41.500 L 34.207 51.500 L 42.868 56.500 Z " fill="#d9e9f7" stroke="#666666" stroke-width="0.80" fill-rule="evenodd"/>
<path d="M 74.622 41.500 L 68.848 41.500 L 63.075 41.500 L 60.188 46.500 L 51.528 41.500 L 42.868 46.500 L 45.754 51.500 L 51.528 51.500 L 51.528 61.500 L 60.188 66.500 L 63.075 61.500 L 68.848 61.500 L 68.848 51.500 L 77.509 46.500 Z " fill="#d9e9f7" stroke="#666666" stroke-width="0.80" fill-rule="evenodd"/>
<circle cx="-0.434" cy="31.500" r="2.8" fill="#d60000" stroke="white" stroke-width="0.8"/>
<path d="M 122.829 29.000 L 125.716 34.000 L 128.603 39.000 L 134.376 39.000 L 134.376 49.000 L 143.036 54.000 L 151.697 59.000 L 151.697 69.000 L 157.470 69.000 L 160.357 64.000 L 163.244 59.000 L 160.357 54.000 L 169.017 49.000 L 169.017 39.000 L 169.017 29.000 L 177.677 24.000 L 174.791 19.000 L 169.017 19.000 L 163.244 19.000 L 160.357 24.000 L 151.697 19.000 L 143.036 24.000 L 134.376 29.000 L 125.716 24.000 Z " fill="#dddddd" stroke="black" stroke-width="1.50" fill-rule="evenodd"/>
<path d="M 151.697 39.000 L 143.036 44.000 L 145.923 49.000 L 143.036 54.000 L 151.697 59.000 L 151.697 69.000 L 157.470 69.000 L 160.357 64.000 L 163.244 59.000 L 160.357 54.000 L 169.017 49.000 L 169.017 39.000 L 163.244 39.000 L 160.357 44.000 Z " fill="#d9e9f7" stroke="#666666" stroke-width="0.80" fill-rule="evenodd"/>
<path d="M 145.923 29.000 L 151.697 29.000 L 151.697 39.000 L 160.357 44.000 L 163.244 39.000 L 169.017 39.000 L 169.017 29.000 L 177.677 24.000 L 174.791 19.000 L 169.017 19.000 L 163.244 19.000 L 160.357 24.000 L 151.697 19.000 L 143.036 24.000 Z " fill="#d9e9f7" stroke="#666666" stroke-width="0.80" fill-rule="evenodd"/>
<path d="M 128.603 39.000 L 134.376 39.000 L 134.376 49.000 L 143.036 54.000 L 145.923 49.000 L 143.036 44.000 L 151.697 39.000 L 151.697 29.000 L 145.923 29.000 L 143.036 24.000 L 134.376 29.000 L 125.716 24.000 L 122.829 29.000 L 125.716 34.000 Z " fill="#d9e9f7" stroke="#666666" stroke-width="0.80" fill-rule="evenodd"/>
<circle cx="82.415" cy="39.000" r="2.8" fill="#d60000" stroke="white" stroke-width="0.8"/>
<path d="M 222.998 34.000 L 225.885 39.000 L 228.771 44.000 L 234.545 44.000 L 234.545 54.000 L 243.205 59.000 L 246.092 54.000 L 251.865 54.000 L 251.865 64.000 L 260.526 69.000 L 263.412 64.000 L 269.186 64.000 L 269.186 54.000 L 277.846 49.000 L 274.959 44.000 L 269.186 44.000 L 263.412 44.000 L 260.526 39.000 L 269.186 34.000 L 269.186 24.000 L 263.412 24.000 L 260.526 19.000 L 251.865 24.000 L 243.205 19.000 L 240.318 24.000 L 243.205 29.000 L 234.545 34.000 L 225.885 29.000 Z " fill="#dddddd" stroke="black" stroke-width="1.50" fill-rule="evenodd"/>
<path d="M 251.865 44.000 L 251.865 34.000 L 246.092 34.000 L 243.205 29.000 L 234.545 34.000 L 225.885 29.000 L 222.998 34.000 L 225.885 39.000 L 228.771 44.000 L 234.545 44.000 L 234.545 54.000 L 243.205 59.000 L 246.092 54.000 L 243.205 49.000 Z " fill="#d9e9f7" stroke="#666666" stroke-width="0.80" fill-rule="evenodd"/>
<path d="M 263.412 44.000 L 260.526 49.000 L 251.865 44.000 L 243.205 49.000 L 246.092 54.000 L 251.865 54.000 L 251.865 64.000 L 260.526 69.000 L 263.412 64.000 L 269.186 64.000 L 269.186 54.000 L 277.846 49.000 L 274.959 44.000 L 269.186 44.000 Z " fill="#d9e9f7" stroke="#666666" stroke-width="0.80" fill-rule="evenodd"/>
<path d="M 240.318 24.000 L 243.205 29.000 L 246.092 34.000 L 251.865 34.000 L 251.865 44.000 L 260.526 49.000 L 263.412 44.000 L 260.526 39.000 L 269.186 34.000 L 269.186 24.000 L 263.412 24.000 L 260.526 19.000 L 251.865 24.000 L 243.205 19.000 Z " fill="#d9e9f7" stroke="#666666" stroke-width="0.80" fill-rule="evenodd"/>
<circle cx="199.904" cy="34.000" r="2.8" fill="#d60000" stroke="white" stroke-width="0.8"/>
<path d="M 323.167 31.500 L 326.053 36.500 L 328.940 41.500 L 334.714 41.500 L 334.714 51.500 L 343.374 56.500 L 346.261 51.500 L 352.034 51.500 L 352.034 61.500 L 360.694 66.500 L 363.581 61.500 L 369.355 61.500 L 369.355 51.500 L 378.015 46.500 L 375.128 41.500 L 369.355 41.500 L 369.355 31.500 L 378.015 26.500 L 375.128 21.500 L 369.355 21.500 L 363.581 21.500 L 360.694 26.500 L 352.034 21.500 L 343.374 26.500 L 334.714 31.500 L 326.053 26.500 Z " fill="#dddddd" stroke="black" stroke-width="1.50" fill-rule="evenodd"/>
<path d="M 352.034 41.500 L 352.034 31.500 L 346.261 31.500 L 343.374 26.500 L 334.714 31.500 L 326.053 26.500 L 323.167 31.500 L 326.053 36.500 L 328.940 41.500 L 334.714 41.500 L 334.714 51.500 L 343.374 56.500 L 346.261 51.500 L 343.374 46.500 Z " fill="#d9e9f7" stroke="#666666" stroke-width="0.80" fill-rule="evenodd"/>
<path d="M 363.581 41.500 L 360.694 46.500 L 352.034 41.500 L 343.374 46.500 L 346.261 51.500 L 352.034 51.500 L 352.034 61.500 L 360.694 66.500 L 363.581 61.500 L 369.355 61.500 L 369.355 51.500 L 378.015 46.500 L 375.128 41.500 L 369.355 41.500 Z " fill="#d9e9f7" stroke="#666666" stroke-width="0.80" fill-rule="evenodd"/>
<path d="M 363.581 21.500 L 360.694 26.500 L 352.034 21.500 L 343.374 26.500 L 346.261 31.500 L 352.034 31.500 L 352.034 41.500 L 360.694 46.500 L 363.581 41.500 L 369.355 41.500 L 369.355 31.500 L 378.015 26.500 L 375.128 21.500 L 369.355 21.500 Z " fill="#d9e9f7" stroke="#666666" stroke-width="0.80" fill-rule="evenodd"/>
<circle cx="300.073" cy="31.500" r="2.8" fill="#d60000" stroke="white" stroke-width="0.8"/>
<path d="M 22.660 119.500 L 25.547 124.500 L 28.434 129.500 L 34.207 129.500 L 34.207 139.500 L 42.868 144.500 L 45.754 139.500 L 51.528 139.500 L 51.528 149.500 L 60.188 154.500 L 63.075 149.500 L 68.848 149.500 L 68.848 139.500 L 77.509 134.500 L 74.622 129.500 L 68.848 129.500 L 68.848 119.500 L 77.509 114.500 L 74.622 109.500 L 68.848 109.500 L 63.075 109.500 L 60.188 114.500 L 51.528 109.500 L 42.868 114.500 L 34.207 119.500 L 25.547 114.500 Z " fill="#dddddd" stroke="black" stroke-width="1.50" fill-rule="evenodd"/>
<path d="M 51.528 149.500 L 60.188 154.500 L 63.075 149.500 L 68.848 149.500 L 68.848 139.500 L 77.509 134.500 L 74.622 129.500 L 68.848 129.500 L 63.075 129.500 L 60.188 134.500 L 51.528 129.500 L 42.868 134.500 L 45.754 139.500 L 51.528 139.500 Z " fill="#d9e9f7" stroke="#666666" stroke-width="0.80" fill-rule="evenodd"/>
<path d="M 74.622 109.500 L 68.848 109.500 L 63.075 109.500 L 60.188 114.500 L 51.528 109.500 L 42.868 114.500 L 45.754 119.500 L 51.528 119.500 L 51.528 129.500 L 60.188 134.500 L 63.075 129.500 L 68.848 129.500 L 68.848 119.500 L 77.509 114.500 Z " fill="#d9e9f7" stroke="#666666" stroke-width="0.80" fill-rule="evenodd"/>
<path d="M 45.754 139.500 L 42.868 134.500 L 51.528 129.500 L 51.528 119.500 L 45.754 119.500 L 42.868 114.500 L 34.207 119.500 L 25.547 114.500 L 22.660 119.500 L 25.547 124.500 L 28.434 129.500 L 34.207 129.500 L 34.207 139.500 L 42.868 144.500 Z " fill="#d9e9f7" stroke="#666666" stroke-width="0.80" fill-rule="evenodd"/>
<circle cx="-0.434" cy="139.500" r="2.8" fill="#d60000" stroke="white" stroke-width="0.8"/>
<path d="M 122.829 122.000 L 125.716 127.000 L 128.603 132.000 L 134.376 132.000 L 134.376 142.000 L 143.036 147.000 L 145.923 142.000 L 151.697 142.000 L 151.697 152.000 L 160.357 157.000 L 163.244 152.000 L 169.017 152.000 L 169.017 142.000 L 177.677 137.000 L 174.791 132.000 L 169.017 132.000 L 163.244 132.000 L 160.357 127.000 L 169.017 122.000 L 169.017 112.000 L 163.244 112.000 L 160.357 107.000 L 151.697 112.000 L 143.036 107.000 L 140.150 112.000 L 143.036 117.000 L 134.376 122.000 L 125.716 117.000 Z " fill="#dddddd" stroke="black" stroke-width="1.50" fill-rule="evenodd"/>
<path d="M 169.017 122.000 L 169.017 112.000 L 163.244 112.000 L 160.357 107.000 L 151.697 112.000 L 143.036 107.000 L 140.150 112.000 L 143.036 117.000 L 145.923 122.000 L 151.697 122.000 L 151.697 132.000 L 160.357 137.000 L 163.244 132.000 L 160.357 127.000 Z " fill="#d9e9f7" stroke="#666666" stroke-width="0.80" fill-rule="evenodd"/>
<path d="M 122.829 122.000 L 125.716 127.000 L 128.603 132.000 L 134.376 132.000 L 134.376 142.000 L 143.036 147.000 L 145.923 142.000 L 143.036 137.000 L 151.697 132.000 L 151.697 122.000 L 145.923 122.000 L 143.036 117.000 L 134.376 122.000 L 125.716 117.000 Z " fill="#d9e9f7" stroke="#666666" stroke-width="0.80" fill-rule="evenodd"/>
<path d="M 163.244 132.000 L 160.357 137.000 L 151.697 132.000 L 143.036 137.000 L 145.923 142.000 L 151.697 142.000 L 151.697 152.000 L 160.357 157.000 L 163.244 152.000 L 169.017 152.000 L 169.017 142.000 L 177.677 137.000 L 174.791 132.000 L 169.017 132.000 Z " fill="#d9e9f7" stroke="#666666" stroke-width="0.80" fill-rule="evenodd"/>
<circle cx="99.735" cy="142.000" r="2.8" fill="#d60000" stroke="white" stroke-width="0.8"/>
<path d="M 222.998 122.000 L 225.885 127.000 L 228.771 132.000 L 234.545 132.000 L 234.545 142.000 L 243.205 147.000 L 246.092 142.000 L 251.865 142.000 L 251.865 152.000 L 260.526 157.000 L 263.412 152.000 L 269.186 152.000 L 269.186 142.000 L 277.846 137.000 L 274.959 132.000 L 269.186 132.000 L 263.412 132.000 L 260.526 127.000 L 269.186 122.000 L 269.186 112.000 L 263.412 112.000 L 260.526 107.000 L 251.865 112.000 L 243.205 107.000 L 240.318 112.000 L 243.205 117.000 L 234.545 122.000 L 225.885 117.000 Z " fill="#dddddd" stroke="black" stroke-width="1.50" fill-rule="evenodd"/>
<path d="M 251.865 152.000 L 260.526 157.000 L 263.412 152.000 L 269.186 152.000 L 269.186 142.000 L 277.846 137.000 L 274.959 132.000 L 269.186 132.000 L 263.412 132.000 L 260.526 137.000 L 251.865 132.000 L 243.205 137.000 L 246.092 142.000 L 251.865 142.000 Z " fill="#d9e9f7" stroke="#666666" stroke-width="0.80" fill-rule="evenodd"/>
<path d="M 263.412 132.000 L 260.526 127.000 L 269.186 122.000 L 269.186 112.000 L 263.412 112.000 L 260.526 107.000 L 251.865 112.000 L 243.205 107.000 L 240.318 112.000 L 243.205 117.000 L 246.092 122.000 L 251.865 122.000 L 251.865 132.000 L 260.526 137.000 Z " fill="#d9e9f7" stroke="#666666" stroke-width="0.80" fill-rule="evenodd"/>
<path d="M 246.092 142.000 L 243.205 137.000 L 251.865 132.000 L 251.865 122.000 L 246.092 122.000 L 243.205 117.000 L 234.545 122.000 L 225.885 117.000 L 222.998 122.000 L 225.885 127.000 L 228.771 132.000 L 234.545 132.000 L 234.545 142.000 L 243.205 147.000 Z " fill="#d9e9f7" stroke="#666666" stroke-width="0.80" fill-rule="evenodd"/>
<circle cx="199.904" cy="142.000" r="2.8" fill="#d60000" stroke="white" stroke-width="0.8"/>
<path d="M 327.497 132.000 L 324.610 137.000 L 333.270 142.000 L 341.930 137.000 L 344.817 142.000 L 341.930 147.000 L 339.044 152.000 L 341.930 157.000 L 350.591 152.000 L 359.251 157.000 L 362.138 152.000 L 367.911 152.000 L 367.911 142.000 L 359.251 137.000 L 362.138 132.000 L 367.911 132.000 L 373.685 132.000 L 376.572 127.000 L 367.911 122.000 L 367.911 112.000 L 362.138 112.000 L 359.251 107.000 L 350.591 112.000 L 350.591 122.000 L 344.817 122.000 L 341.930 117.000 L 339.044 112.000 L 333.270 112.000 L 333.270 122.000 L 324.610 127.000 Z " fill="#dddddd" stroke="black" stroke-width="1.50" fill-rule="evenodd"/>
<path d="M 367.911 142.000 L 367.911 152.000 L 362.138 152.000 L 359.251 157.000 L 350.591 152.000 L 341.930 157.000 L 339.044 152.000 L 341.930 147.000 L 344.817 142.000 L 350.591 142.000 L 350.591 132.000 L 359.251 127.000 L 362.138 132.000 L 359.251 137.000 Z " fill="#d9e9f7" stroke="#666666" stroke-width="0.80" fill-rule="evenodd"/>
<path d="M 344.817 142.000 L 341.930 137.000 L 333.270 142.000 L 324.610 137.000 L 327.497 132.000 L 324.610 127.000 L 333.270 122.000 L 333.270 112.000 L 339.044 112.000 L 341.930 117.000 L 344.817 122.000 L 341.930 127.000 L 350.591 132.000 L 350.591 142.000 Z " fill="#d9e9f7" stroke="#666666" stroke-width="0.80" fill-rule="evenodd"/>
<path d="M 362.138 132.000 L 359.251 127.000 L 350.591 132.000 L 341.930 127.000 L 344.817 122.000 L 350.591 122.000 L 350.591 112.000 L 359.251 107.000 L 362.138 112.000 L 367.911 112.000 L 367.911 122.000 L 376.572 127.000 L 373.685 132.000 L 367.911 132.000 Z " fill="#d9e9f7" stroke="#666666" stroke-width="0.80" fill-rule="evenodd"/>
<circle cx="281.309" cy="152.000" r="2.8" fill="#d60000" stroke="white" stroke-width="0.8"/>
</svg>
