<svg xmlns="http://www.w3.org/2000/svg" width="1979" height="1080" viewBox="0 0 1979 1080">
<rect width="100%" height="100%" fill="white"/>
<path d="M 38.537 44.000 L 35.651 49.000 L 44.311 54.000 L 52.971 49.000 L 55.858 54.000 L 52.971 59.000 L 61.631 64.000 L 61.631 74.000 L 67.405 74.000 L 70.292 79.000 L 78.952 74.000 L 78.952 64.000 L 84.725 64.000 L 87.612 59.000 L 90.499 54.000 L 96.272 54.000 L 96.272 44.000 L 87.612 39.000 L 90.499 34.000 L 87.612 29.000 L 78.952 34.000 L 78.952 44.000 L 73.178 44.000 L 70.292 49.000 L 61.631 44.000 L 61.631 34.000 L 55.858 34.000 L 52.971 29.000 L 44.311 34.000 L 44.311 44.000 Z " fill="#dddddd" stroke="black" stroke-width="1.50" fill-rule="evenodd"/>
<path d="M 174.791 44.000 L 171.904 49.000 L 180.564 54.000 L 171.904 59.000 L 174.791 64.000 L 180.564 64.000 L 180.564 74.000 L 189.224 79.000 L 192.111 74.000 L 197.885 74.000 L 203.658 74.000 L 206.545 69.000 L 215.205 74.000 L 223.865 69.000 L 220.979 64.000 L 223.865 59.000 L 215.205 54.000 L 215.205 44.000 L 209.432 44.000 L 206.545 49.000 L 197.885 44.000 L 197.885 34.000 L 192.111 34.000 L 189.224 29.000 L 180.564 34.000 L 180.564 44.000 Z M 192.111 54.000 L 189.224 59.000 L 180.564 54.000 L 189.224 49.000 Z " fill="#dddddd" stroke="black" stroke-width="1.50" fill-rule="evenodd"/>
<path d="M 305.270 41.500 L 302.383 46.500 L 311.044 51.500 L 319.704 46.500 L 322.591 51.500 L 328.364 51.500 L 328.364 61.500 L 319.704 66.500 L 322.591 71.500 L 319.704 76.500 L 328.364 81.500 L 337.024 76.500 L 339.911 81.500 L 345.685 81.500 L 345.685 71.500 L 337.024 66.500 L 339.911 61.500 L 337.024 56.500 L 345.685 51.500 L 345.685 41.500 L 351.458 41.500 L 354.345 36.500 L 357.232 31.500 L 354.345 26.500 L 345.685 31.500 L 337.024 26.500 L 334.138 31.500 L 328.364 31.500 L 322.591 31.500 L 319.704 26.500 L 311.044 31.500 L 311.044 41.500 Z " fill="#dddddd" stroke="black" stroke-width="1.50" fill-rule="evenodd"/>
<path d="M 434.307 44.000 L 431.420 49.000 L 440.080 54.000 L 448.740 49.000 L 451.627 54.000 L 448.740 59.000 L 457.401 64.000 L 457.401 74.000 L 463.174 74.000 L 466.061 79.000 L 474.721 74.000 L 474.721 64.000 L 480.495 64.000 L 483.381 59.000 L 486.268 54.000 L 492.042 54.000 L 492.042 44.000 L 483.381 39.000 L 486.268 34.000 L 483.381 29.000 L 474.721 34.000 L 474.721 44.000 L 468.948 44.000 L 466.061 49.000 L 457.401 44.000 L 457.401 34.000 L 451.627 34.000 L 448.740 29.000 L 440.080 34.000 L 440.080 44.000 Z " fill="#dddddd" stroke="black" stroke-width="1.50" fill-rule="evenodd"/>
<path d="M 566.230 41.500 L 563.343 46.500 L 572.003 51.500 L 580.663 46.500 L 583.550 51.500 L 589.324 51.500 L 589.324 61.500 L 580.663 66.500 L 583.550 71.500 L 580.663 76.500 L 589.324 81.500 L 597.984 76.500 L 600.871 81.500 L 606.644 81.500 L 606.644 71.500 L 597.984 66.500 L 600.871 61.500 L 597.984 56.500 L 606.644 51.500 L 615.304 56.500 L 618.191 51.500 L 623.965 51.500 L 623.965 41.500 L 615.304 36.500 L 618.191 31.500 L 615.304 26.500 L 606.644 31.500 L 606.644 41.500 L 600.871 41.500 L 597.984 46.500 L 589.324 41.500 L 589.324 31.500 L 583.550 31.500 L 580.663 26.500 L 572.003 31.500 L 572.003 41.500 Z " fill="#dddddd" stroke="black" stroke-width="1.50" fill-rule="evenodd"/>
<path d="M 698.153 44.000 L 695.266 49.000 L 703.926 54.000 L 695.266 59.000 L 698.153 64.000 L 703.926 64.000 L 703.926 74.000 L 712.586 79.000 L 715.473 74.000 L 721.247 74.000 L 721.247 64.000 L 729.907 59.000 L 732.794 64.000 L 738.567 64.000 L 738.567 74.000 L 747.227 79.000 L 750.114 74.000 L 747.227 69.000 L 755.888 64.000 L 755.888 54.000 L 750.114 54.000 L 747.227 49.000 L 738.567 54.000 L 729.907 49.000 L 721.247 44.000 L 721.247 34.000 L 715.473 34.000 L 712.586 29.000 L 703.926 34.000 L 703.926 44.000 Z M 715.473 54.000 L 712.586 59.000 L 703.926 54.000 L 712.586 49.000 Z " fill="#dddddd" stroke="black" stroke-width="1.50" fill-rule="evenodd"/>
<path d="M 832.962 41.500 L 830.076 46.500 L 838.736 51.500 L 847.396 46.500 L 850.283 51.500 L 856.056 51.500 L 856.056 61.500 L 864.717 66.500 L 861.830 71.500 L 864.717 76.500 L 867.603 81.500 L 873.377 81.500 L 873.377 71.500 L 882.037 66.500 L 879.150 61.500 L 882.037 56.500 L 873.377 51.500 L 873.377 41.500 L 879.150 41.500 L 882.037 36.500 L 884.924 31.500 L 882.037 26.500 L 873.377 31.500 L 864.717 26.500 L 861.830 31.500 L 856.056 31.500 L 850.283 31.500 L 847.396 26.500 L 838.736 31.500 L 838.736 41.500 Z " fill="#dddddd" stroke="black" stroke-width="1.50" fill-rule="evenodd"/>
<path d="M 964.885 44.000 L 961.999 49.000 L 970.659 54.000 L 979.319 49.000 L 982.206 54.000 L 979.319 59.000 L 987.979 64.000 L 987.979 74.000 L 993.753 74.000 L 996.640 79.000 L 1005.300 74.000 L 1005.300 64.000 L 1011.073 64.000 L 1013.960 59.000 L 1005.300 54.000 L 1005.300 44.000 L 1011.073 44.000 L 1013.960 39.000 L 1016.847 34.000 L 1013.960 29.000 L 1005.300 34.000 L 996.640 29.000 L 993.753 34.000 L 987.979 34.000 L 982.206 34.000 L 979.319 29.000 L 970.659 34.000 L 970.659 44.000 Z " fill="#dddddd" stroke="black" stroke-width="1.50" fill-rule="evenodd"/>
<path d="M 1096.809 41.500 L 1093.922 46.500 L 1102.582 51.500 L 1111.242 46.500 L 1114.129 51.500 L 1119.903 51.500 L 1119.903 61.500 L 1111.242 66.500 L 1114.129 71.500 L 1111.242 76.500 L 1119.903 81.500 L 1128.563 76.500 L 1131.450 81.500 L 1137.223 81.500 L 1137.223 71.500 L 1128.563 66.500 L 1131.450 61.500 L 1128.563 56.500 L 1137.223 51.500 L 1137.223 41.500 L 1142.997 41.500 L 1145.883 36.500 L 1148.770 31.500 L 1145.883 26.500 L 1137.223 31.500 L 1128.563 26.500 L 1125.676 31.500 L 1119.903 31.500 L 1114.129 31.500 L 1111.242 26.500 L 1102.582 31.500 L 1102.582 41.500 Z " fill="#dddddd" stroke="black" stroke-width="1.50" fill-rule="evenodd"/>
<path d="M 1228.732 44.000 L 1225.845 49.000 L 1234.505 54.000 L 1225.845 59.000 L 1228.732 64.000 L 1234.505 64.000 L 1234.505 74.000 L 1243.165 79.000 L 1246.052 74.000 L 1251.826 74.000 L 1257.599 74.000 L 1260.486 79.000 L 1269.146 74.000 L 1277.806 79.000 L 1280.693 74.000 L 1277.806 69.000 L 1274.920 64.000 L 1269.146 64.000 L 1269.146 54.000 L 1260.486 49.000 L 1251.826 44.000 L 1251.826 34.000 L 1246.052 34.000 L 1243.165 29.000 L 1234.505 34.000 L 1234.505 44.000 Z M 1246.052 54.000 L 1243.165 59.000 L 1234.505 54.000 L 1243.165 49.000 Z " fill="#dddddd" stroke="black" stroke-width="1.50" fill-rule="evenodd"/>
<path d="M 1357.768 54.000 L 1360.655 59.000 L 1363.541 64.000 L 1369.315 64.000 L 1369.315 74.000 L 1377.975 79.000 L 1380.862 74.000 L 1377.975 69.000 L 1386.635 64.000 L 1386.635 54.000 L 1392.409 54.000 L 1395.296 49.000 L 1403.956 54.000 L 1412.616 49.000 L 1409.729 44.000 L 1403.956 44.000 L 1403.956 34.000 L 1395.296 29.000 L 1392.409 34.000 L 1386.635 34.000 L 1386.635 44.000 L 1377.975 49.000 L 1369.315 54.000 L 1360.655 49.000 Z " fill="#dddddd" stroke="black" stroke-width="1.50" fill-rule="evenodd"/>
<path d="M 1492.578 44.000 L 1489.691 49.000 L 1498.351 54.000 L 1489.691 59.000 L 1492.578 64.000 L 1498.351 64.000 L 1498.351 74.000 L 1507.011 79.000 L 1509.898 74.000 L 1515.672 74.000 L 1521.445 74.000 L 1524.332 79.000 L 1532.992 74.000 L 1541.652 79.000 L 1544.539 74.000 L 1541.652 69.000 L 1538.766 64.000 L 1532.992 64.000 L 1532.992 54.000 L 1524.332 49.000 L 1515.672 44.000 L 1515.672 34.000 L 1509.898 34.000 L 1507.011 29.000 L 1498.351 34.000 L 1498.351 44.000 Z M 1509.898 54.000 L 1507.011 59.000 L 1498.351 54.000 L 1507.011 49.000 Z " fill="#dddddd" stroke="black" stroke-width="1.50" fill-rule="evenodd"/>
<path d="M 1625.944 46.500 L 1623.057 51.500 L 1631.718 56.500 L 1640.378 51.500 L 1643.265 56.500 L 1649.038 56.500 L 1649.038 66.500 L 1640.378 71.500 L 1643.265 76.500 L 1649.038 76.500 L 1654.812 76.500 L 1657.698 71.500 L 1666.359 76.500 L 1675.019 71.500 L 1672.132 66.500 L 1666.359 66.500 L 1666.359 56.500 L 1657.698 51.500 L 1649.038 46.500 L 1649.038 36.500 L 1643.265 36.500 L 1640.378 31.500 L 1631.718 36.500 L 1631.718 46.500 Z " fill="#dddddd" stroke="black" stroke-width="1.50" fill-rule="evenodd"/>
<path d="M 1753.537 44.000 L 1750.650 49.000 L 1759.311 54.000 L 1750.650 59.000 L 1753.537 64.000 L 1759.311 64.000 L 1759.311 74.000 L 1767.971 79.000 L 1770.858 74.000 L 1776.631 74.000 L 1776.631 64.000 L 1785.291 59.000 L 1788.178 64.000 L 1793.952 64.000 L 1793.952 74.000 L 1802.612 79.000 L 1805.499 74.000 L 1802.612 69.000 L 1811.272 64.000 L 1811.272 54.000 L 1805.499 54.000 L 1802.612 49.000 L 1793.952 54.000 L 1785.291 49.000 L 1776.631 44.000 L 1776.631 34.000 L 1770.858 34.000 L 1767.971 29.000 L 1759.311 34.000 L 1759.311 44.000 Z M 1770.858 54.000 L 1767.971 59.000 L 1759.311 54.000 L 1767.971 49.000 Z " fill="#dddddd" stroke="black" stroke-width="1.50" fill-rule="evenodd"/>
<path d="M 1885.460 44.000 L 1882.573 49.000 L 1891.234 54.000 L 1882.573 59.000 L 1885.460 64.000 L 1891.234 64.000 L 1891.234 74.000 L 1899.894 79.000 L 1902.781 74.000 L 1908.554 74.000 L 1908.554 64.000 L 1917.214 59.000 L 1920.101 64.000 L 1925.875 64.000 L 1925.875 74.000 L 1934.535 79.000 L 1937.422 74.000 L 1934.535 69.000 L 1943.195 64.000 L 1943.195 54.000 L 1937.422 54.000 L 1934.535 49.000 L 1925.875 54.000 L 1917.214 49.000 L 1908.554 44.000 L 1908.554 34.000 L 1902.781 34.000 L 1899.894 29.000 L 1891.234 34.000 L 1891.234 44.000 Z M 1902.781 54.000 L 1899.894 59.000 L 1891.234 54.000 L 1899.894 49.000 Z " fill="#dddddd" stroke="black" stroke-width="1.50" fill-rule="evenodd"/>
<path d="M 42.868 152.000 L 39.981 157.000 L 48.641 162.000 L 39.981 167.000 L 42.868 172.000 L 48.641 172.000 L 48.641 182.000 L 57.301 187.000 L 60.188 182.000 L 65.962 182.000 L 71.735 182.000 L 74.622 177.000 L 83.282 182.000 L 91.942 177.000 L 89.056 172.000 L 91.942 167.000 L 83.282 162.000 L 83.282 152.000 L 77.509 152.000 L 74.622 157.000 L 65.962 152.000 L 65.962 142.000 L 60.188 142.000 L 57.301 137.000 L 48.641 142.000 L 48.641 152.000 Z M 60.188 162.000 L 57.301 167.000 L 48.641 162.000 L 57.301 157.000 Z " fill="#dddddd" stroke="black" stroke-width="1.50" fill-rule="evenodd"/>
<path d="M 174.791 157.000 L 177.677 162.000 L 180.564 167.000 L 186.338 167.000 L 186.338 177.000 L 194.998 182.000 L 197.885 177.000 L 194.998 172.000 L 203.658 167.000 L 212.318 172.000 L 215.205 167.000 L 212.318 162.000 L 220.979 157.000 L 220.979 147.000 L 215.205 147.000 L 212.318 142.000 L 203.658 147.000 L 194.998 142.000 L 192.111 147.000 L 194.998 152.000 L 186.338 157.000 L 177.677 152.000 Z " fill="#dddddd" stroke="black" stroke-width="1.50" fill-rule="evenodd"/>
<path d="M 302.383 162.000 L 305.270 167.000 L 308.157 172.000 L 313.930 172.000 L 313.930 182.000 L 322.591 187.000 L 325.477 182.000 L 322.591 177.000 L 331.251 172.000 L 331.251 162.000 L 337.024 162.000 L 339.911 157.000 L 348.572 162.000 L 357.232 157.000 L 354.345 152.000 L 348.572 152.000 L 348.572 142.000 L 339.911 137.000 L 337.024 142.000 L 331.251 142.000 L 331.251 152.000 L 322.591 157.000 L 313.930 162.000 L 305.270 157.000 Z " fill="#dddddd" stroke="black" stroke-width="1.50" fill-rule="evenodd"/>
<path d="M 434.307 154.500 L 437.193 159.500 L 440.080 164.500 L 445.854 164.500 L 445.854 174.500 L 454.514 179.500 L 457.401 174.500 L 454.514 169.500 L 463.174 164.500 L 471.834 169.500 L 474.721 164.500 L 480.495 164.500 L 480.495 154.500 L 489.155 149.500 L 486.268 144.500 L 480.495 144.500 L 474.721 144.500 L 471.834 149.500 L 463.174 144.500 L 454.514 149.500 L 445.854 154.500 L 437.193 149.500 Z " fill="#dddddd" stroke="black" stroke-width="1.50" fill-rule="evenodd"/>
<path d="M 570.560 167.000 L 567.673 172.000 L 576.333 177.000 L 584.993 172.000 L 587.880 177.000 L 593.654 177.000 L 599.427 177.000 L 602.314 172.000 L 605.201 167.000 L 610.974 167.000 L 610.974 157.000 L 619.634 152.000 L 616.748 147.000 L 610.974 147.000 L 605.201 147.000 L 602.314 152.000 L 593.654 147.000 L 584.993 152.000 L 576.333 157.000 L 576.333 167.000 Z " fill="#dddddd" stroke="black" stroke-width="1.50" fill-rule="evenodd"/>
<path d="M 702.483 154.500 L 699.596 159.500 L 708.256 164.500 L 716.917 159.500 L 719.803 164.500 L 725.577 164.500 L 725.577 174.500 L 716.917 179.500 L 719.803 184.500 L 725.577 184.500 L 731.350 184.500 L 734.237 179.500 L 742.897 184.500 L 751.558 179.500 L 748.671 174.500 L 742.897 174.500 L 742.897 164.500 L 734.237 159.500 L 725.577 154.500 L 725.577 144.500 L 719.803 144.500 L 716.917 139.500 L 708.256 144.500 L 708.256 154.500 Z " fill="#dddddd" stroke="black" stroke-width="1.50" fill-rule="evenodd"/>
<path d="M 838.736 162.000 L 841.623 167.000 L 844.509 172.000 L 850.283 172.000 L 850.283 182.000 L 858.943 187.000 L 861.830 182.000 L 858.943 177.000 L 867.603 172.000 L 867.603 162.000 L 873.377 162.000 L 876.264 157.000 L 867.603 152.000 L 867.603 142.000 L 861.830 142.000 L 858.943 137.000 L 850.283 142.000 L 850.283 152.000 L 844.509 152.000 L 841.623 157.000 Z " fill="#dddddd" stroke="black" stroke-width="1.50" fill-rule="evenodd"/>
<path d="M 966.329 157.000 L 969.216 162.000 L 972.102 167.000 L 977.876 167.000 L 977.876 177.000 L 986.536 182.000 L 989.423 177.000 L 986.536 172.000 L 995.196 167.000 L 1003.857 172.000 L 1006.743 167.000 L 1003.857 162.000 L 1012.517 157.000 L 1012.517 147.000 L 1006.743 147.000 L 1003.857 142.000 L 995.196 147.000 L 986.536 142.000 L 983.649 147.000 L 986.536 152.000 L 977.876 157.000 L 969.216 152.000 Z " fill="#dddddd" stroke="black" stroke-width="1.50" fill-rule="evenodd"/>
<path d="M 1096.809 152.000 L 1093.922 157.000 L 1102.582 162.000 L 1111.242 157.000 L 1114.129 162.000 L 1111.242 167.000 L 1119.903 172.000 L 1119.903 182.000 L 1125.676 182.000 L 1128.563 187.000 L 1137.223 182.000 L 1137.223 172.000 L 1142.997 172.000 L 1145.883 167.000 L 1137.223 162.000 L 1137.223 152.000 L 1142.997 152.000 L 1145.883 147.000 L 1148.770 142.000 L 1145.883 137.000 L 1137.223 142.000 L 1128.563 137.000 L 1125.676 142.000 L 1119.903 142.000 L 1114.129 142.000 L 1111.242 137.000 L 1102.582 142.000 L 1102.582 152.000 Z " fill="#dddddd" stroke="black" stroke-width="1.50" fill-rule="evenodd"/>
<path d="M 1225.845 152.000 L 1222.958 157.000 L 1231.618 162.000 L 1240.279 157.000 L 1243.165 162.000 L 1240.279 167.000 L 1248.939 172.000 L 1248.939 182.000 L 1254.712 182.000 L 1257.599 187.000 L 1266.259 182.000 L 1266.259 172.000 L 1272.033 172.000 L 1274.920 167.000 L 1277.806 162.000 L 1283.580 162.000 L 1283.580 152.000 L 1274.920 147.000 L 1277.806 142.000 L 1274.920 137.000 L 1266.259 142.000 L 1266.259 152.000 L 1260.486 152.000 L 1257.599 157.000 L 1248.939 152.000 L 1248.939 142.000 L 1243.165 142.000 L 1240.279 137.000 L 1231.618 142.000 L 1231.618 152.000 Z " fill="#dddddd" stroke="black" stroke-width="1.50" fill-rule="evenodd"/>
<path d="M 1366.428 162.000 L 1369.315 167.000 L 1372.202 172.000 L 1377.975 172.000 L 1377.975 182.000 L 1386.635 187.000 L 1389.522 182.000 L 1386.635 177.000 L 1395.296 172.000 L 1395.296 162.000 L 1401.069 162.000 L 1403.956 157.000 L 1395.296 152.000 L 1395.296 142.000 L 1389.522 142.000 L 1386.635 137.000 L 1377.975 142.000 L 1377.975 152.000 L 1372.202 152.000 L 1369.315 157.000 Z " fill="#dddddd" stroke="black" stroke-width="1.50" fill-rule="evenodd"/>
<path d="M 1494.021 152.000 L 1491.134 157.000 L 1499.795 162.000 L 1491.134 167.000 L 1494.021 172.000 L 1499.795 172.000 L 1499.795 182.000 L 1508.455 187.000 L 1511.342 182.000 L 1517.115 182.000 L 1522.889 182.000 L 1525.775 177.000 L 1534.436 182.000 L 1543.096 177.000 L 1540.209 172.000 L 1543.096 167.000 L 1534.436 162.000 L 1534.436 152.000 L 1528.662 152.000 L 1525.775 157.000 L 1517.115 152.000 L 1517.115 142.000 L 1511.342 142.000 L 1508.455 137.000 L 1499.795 142.000 L 1499.795 152.000 Z M 1511.342 162.000 L 1508.455 167.000 L 1499.795 162.000 L 1508.455 157.000 Z " fill="#dddddd" stroke="black" stroke-width="1.50" fill-rule="evenodd"/>
<path d="M 1624.501 149.500 L 1621.614 154.500 L 1630.274 159.500 L 1638.934 154.500 L 1641.821 159.500 L 1647.595 159.500 L 1647.595 169.500 L 1656.255 174.500 L 1653.368 179.500 L 1656.255 184.500 L 1659.142 189.500 L 1664.915 189.500 L 1664.915 179.500 L 1673.575 174.500 L 1670.689 169.500 L 1673.575 164.500 L 1664.915 159.500 L 1664.915 149.500 L 1670.689 149.500 L 1673.575 144.500 L 1676.462 139.500 L 1673.575 134.500 L 1664.915 139.500 L 1656.255 134.500 L 1653.368 139.500 L 1647.595 139.500 L 1641.821 139.500 L 1638.934 134.500 L 1630.274 139.500 L 1630.274 149.500 Z " fill="#dddddd" stroke="black" stroke-width="1.50" fill-rule="evenodd"/>
<path d="M 1756.424 149.500 L 1753.537 154.500 L 1762.197 159.500 L 1762.197 169.500 L 1767.971 169.500 L 1770.858 174.500 L 1779.518 169.500 L 1788.178 174.500 L 1785.291 179.500 L 1788.178 184.500 L 1791.065 189.500 L 1796.838 189.500 L 1796.838 179.500 L 1805.499 174.500 L 1802.612 169.500 L 1805.499 164.500 L 1796.838 159.500 L 1796.838 149.500 L 1802.612 149.500 L 1805.499 144.500 L 1808.385 139.500 L 1805.499 134.500 L 1796.838 139.500 L 1788.178 134.500 L 1785.291 139.500 L 1779.518 139.500 L 1779.518 149.500 L 1770.858 154.500 L 1767.971 149.500 L 1762.197 149.500 Z " fill="#dddddd" stroke="black" stroke-width="1.50" fill-rule="evenodd"/>
<path d="M 1885.460 154.500 L 1888.347 159.500 L 1891.234 164.500 L 1897.007 164.500 L 1897.007 174.500 L 1905.667 179.500 L 1908.554 174.500 L 1905.667 169.500 L 1914.328 164.500 L 1922.988 169.500 L 1925.875 164.500 L 1931.648 164.500 L 1931.648 154.500 L 1940.308 149.500 L 1937.422 144.500 L 1931.648 144.500 L 1925.875 144.500 L 1922.988 149.500 L 1914.328 144.500 L 1905.667 149.500 L 1897.007 154.500 L 1888.347 149.500 Z " fill="#dddddd" stroke="black" stroke-width="1.50" fill-rule="evenodd"/>
<path d="M 41.424 260.000 L 38.537 265.000 L 47.198 270.000 L 55.858 265.000 L 58.745 270.000 L 55.858 275.000 L 64.518 280.000 L 64.518 290.000 L 70.292 290.000 L 73.178 295.000 L 81.839 290.000 L 81.839 280.000 L 87.612 280.000 L 90.499 275.000 L 81.839 270.000 L 81.839 260.000 L 87.612 260.000 L 90.499 255.000 L 93.386 250.000 L 90.499 245.000 L 81.839 250.000 L 73.178 245.000 L 70.292 250.000 L 64.518 250.000 L 58.745 250.000 L 55.858 245.000 L 47.198 250.000 L 47.198 260.000 Z " fill="#dddddd" stroke="black" stroke-width="1.50" fill-rule="evenodd"/>
<path d="M 173.347 257.500 L 170.460 262.500 L 179.121 267.500 L 187.781 262.500 L 190.668 267.500 L 196.441 267.500 L 196.441 277.500 L 187.781 282.500 L 190.668 287.500 L 187.781 292.500 L 196.441 297.500 L 205.101 292.500 L 207.988 297.500 L 213.762 297.500 L 213.762 287.500 L 205.101 282.500 L 207.988 277.500 L 205.101 272.500 L 213.762 267.500 L 213.762 257.500 L 219.535 257.500 L 222.422 252.500 L 225.309 247.500 L 222.422 242.500 L 213.762 247.500 L 205.101 242.500 L 202.215 247.500 L 196.441 247.500 L 190.668 247.500 L 187.781 242.500 L 179.121 247.500 L 179.121 257.500 Z " fill="#dddddd" stroke="black" stroke-width="1.50" fill-rule="evenodd"/>
<path d="M 305.270 257.500 L 302.383 262.500 L 311.044 267.500 L 319.704 262.500 L 322.591 267.500 L 328.364 267.500 L 328.364 277.500 L 337.024 282.500 L 334.138 287.500 L 337.024 292.500 L 339.911 297.500 L 345.685 297.500 L 345.685 287.500 L 354.345 282.500 L 351.458 277.500 L 354.345 272.500 L 345.685 267.500 L 345.685 257.500 L 351.458 257.500 L 354.345 252.500 L 357.232 247.500 L 354.345 242.500 L 345.685 247.500 L 337.024 242.500 L 334.138 247.500 L 328.364 247.500 L 322.591 247.500 L 319.704 242.500 L 311.044 247.500 L 311.044 257.500 Z " fill="#dddddd" stroke="black" stroke-width="1.50" fill-rule="evenodd"/>
<path d="M 438.637 275.000 L 435.750 280.000 L 444.410 285.000 L 453.070 280.000 L 455.957 285.000 L 461.731 285.000 L 467.504 285.000 L 470.391 280.000 L 473.278 275.000 L 479.051 275.000 L 479.051 265.000 L 487.711 260.000 L 484.825 255.000 L 479.051 255.000 L 473.278 255.000 L 470.391 260.000 L 461.731 255.000 L 453.070 260.000 L 444.410 265.000 L 444.410 275.000 Z " fill="#dddddd" stroke="black" stroke-width="1.50" fill-rule="evenodd"/>
<path d="M 569.116 260.000 L 566.230 265.000 L 574.890 270.000 L 566.230 275.000 L 569.116 280.000 L 574.890 280.000 L 574.890 290.000 L 583.550 295.000 L 586.437 290.000 L 592.210 290.000 L 597.984 290.000 L 600.871 295.000 L 609.531 290.000 L 618.191 295.000 L 621.078 290.000 L 618.191 285.000 L 615.304 280.000 L 609.531 280.000 L 609.531 270.000 L 600.871 265.000 L 592.210 260.000 L 592.210 250.000 L 586.437 250.000 L 583.550 245.000 L 574.890 250.000 L 574.890 260.000 Z M 586.437 270.000 L 583.550 275.000 L 574.890 270.000 L 583.550 265.000 Z " fill="#dddddd" stroke="black" stroke-width="1.50" fill-rule="evenodd"/>
<path d="M 702.483 257.500 L 699.596 262.500 L 708.256 267.500 L 708.256 277.500 L 702.483 277.500 L 699.596 282.500 L 708.256 287.500 L 716.917 282.500 L 719.803 287.500 L 725.577 287.500 L 731.350 287.500 L 734.237 292.500 L 737.124 297.500 L 742.897 297.500 L 742.897 287.500 L 751.558 282.500 L 748.671 277.500 L 751.558 272.500 L 742.897 267.500 L 734.237 272.500 L 731.350 267.500 L 734.237 262.500 L 725.577 257.500 L 725.577 247.500 L 719.803 247.500 L 716.917 242.500 L 708.256 247.500 L 708.256 257.500 Z " fill="#dddddd" stroke="black" stroke-width="1.50" fill-rule="evenodd"/>
<path d="M 830.076 270.000 L 832.962 275.000 L 835.849 280.000 L 841.623 280.000 L 841.623 290.000 L 850.283 295.000 L 853.170 290.000 L 858.943 290.000 L 864.717 290.000 L 867.603 285.000 L 876.264 290.000 L 884.924 285.000 L 882.037 280.000 L 876.264 280.000 L 876.264 270.000 L 884.924 265.000 L 882.037 260.000 L 876.264 260.000 L 876.264 250.000 L 867.603 245.000 L 864.717 250.000 L 858.943 250.000 L 858.943 260.000 L 850.283 265.000 L 841.623 270.000 L 832.962 265.000 Z " fill="#dddddd" stroke="black" stroke-width="1.50" fill-rule="evenodd"/>
<path d="M 957.669 265.000 L 954.782 270.000 L 963.442 275.000 L 963.442 285.000 L 969.216 285.000 L 972.102 290.000 L 980.763 285.000 L 989.423 290.000 L 986.536 295.000 L 989.423 300.000 L 998.083 295.000 L 998.083 285.000 L 1003.857 285.000 L 1006.743 280.000 L 1009.630 275.000 L 1015.404 275.000 L 1021.177 275.000 L 1024.064 270.000 L 1015.404 265.000 L 1015.404 255.000 L 1009.630 255.000 L 1006.743 250.000 L 998.083 255.000 L 989.423 250.000 L 992.310 245.000 L 989.423 240.000 L 980.763 245.000 L 980.763 255.000 L 974.989 255.000 L 972.102 260.000 L 969.216 265.000 L 963.442 265.000 Z " fill="#dddddd" stroke="black" stroke-width="1.50" fill-rule="evenodd"/>
<path d="M 1089.592 267.500 L 1086.705 272.500 L 1095.365 277.500 L 1095.365 287.500 L 1101.139 287.500 L 1104.025 292.500 L 1106.912 297.500 L 1112.686 297.500 L 1118.459 297.500 L 1121.346 292.500 L 1130.006 297.500 L 1138.666 292.500 L 1135.780 287.500 L 1130.006 287.500 L 1130.006 277.500 L 1138.666 272.500 L 1141.553 277.500 L 1147.327 277.500 L 1153.100 277.500 L 1155.987 272.500 L 1147.327 267.500 L 1147.327 257.500 L 1141.553 257.500 L 1138.666 252.500 L 1130.006 257.500 L 1121.346 252.500 L 1124.233 247.500 L 1121.346 242.500 L 1112.686 247.500 L 1112.686 257.500 L 1106.912 257.500 L 1104.025 262.500 L 1101.139 267.500 L 1095.365 267.500 Z " fill="#dddddd" stroke="black" stroke-width="1.50" fill-rule="evenodd"/>
<path d="M 1221.515 265.000 L 1218.628 270.000 L 1227.288 275.000 L 1227.288 285.000 L 1233.062 285.000 L 1235.948 290.000 L 1244.609 285.000 L 1244.609 275.000 L 1250.382 275.000 L 1253.269 280.000 L 1256.156 285.000 L 1261.929 285.000 L 1261.929 295.000 L 1270.589 300.000 L 1273.476 295.000 L 1270.589 290.000 L 1279.250 285.000 L 1279.250 275.000 L 1285.023 275.000 L 1287.910 270.000 L 1279.250 265.000 L 1279.250 255.000 L 1273.476 255.000 L 1270.589 250.000 L 1261.929 255.000 L 1253.269 250.000 L 1256.156 245.000 L 1253.269 240.000 L 1244.609 245.000 L 1244.609 255.000 L 1238.835 255.000 L 1235.948 260.000 L 1233.062 265.000 L 1227.288 265.000 Z " fill="#dddddd" stroke="black" stroke-width="1.50" fill-rule="evenodd"/>
<path d="M 1360.655 257.500 L 1354.881 257.500 L 1354.881 267.500 L 1363.541 272.500 L 1360.655 277.500 L 1363.541 282.500 L 1366.428 287.500 L 1363.541 292.500 L 1372.202 297.500 L 1380.862 292.500 L 1383.749 297.500 L 1389.522 297.500 L 1395.296 297.500 L 1398.182 292.500 L 1389.522 287.500 L 1389.522 277.500 L 1395.296 277.500 L 1398.182 272.500 L 1406.843 277.500 L 1415.503 272.500 L 1412.616 267.500 L 1406.843 267.500 L 1406.843 257.500 L 1398.182 252.500 L 1401.069 247.500 L 1398.182 242.500 L 1389.522 247.500 L 1380.862 242.500 L 1377.975 247.500 L 1372.202 247.500 L 1372.202 257.500 L 1363.541 262.500 Z " fill="#dddddd" stroke="black" stroke-width="1.50" fill-rule="evenodd"/>
<path d="M 1485.361 265.000 L 1482.474 270.000 L 1491.134 275.000 L 1491.134 285.000 L 1496.908 285.000 L 1499.795 290.000 L 1508.455 285.000 L 1508.455 295.000 L 1514.228 295.000 L 1517.115 300.000 L 1525.775 295.000 L 1534.436 300.000 L 1537.322 295.000 L 1534.436 290.000 L 1531.549 285.000 L 1525.775 285.000 L 1525.775 275.000 L 1534.436 270.000 L 1537.322 275.000 L 1543.096 275.000 L 1548.869 275.000 L 1551.756 270.000 L 1543.096 265.000 L 1543.096 255.000 L 1537.322 255.000 L 1534.436 250.000 L 1525.775 255.000 L 1517.115 250.000 L 1520.002 245.000 L 1517.115 240.000 L 1508.455 245.000 L 1508.455 255.000 L 1502.681 255.000 L 1499.795 260.000 L 1496.908 265.000 L 1491.134 265.000 Z M 1514.228 275.000 L 1517.115 280.000 L 1508.455 285.000 L 1508.455 275.000 Z " fill="#dddddd" stroke="black" stroke-width="1.50" fill-rule="evenodd"/>
<path d="M 1624.501 257.500 L 1618.727 257.500 L 1618.727 267.500 L 1627.387 272.500 L 1624.501 277.500 L 1627.387 282.500 L 1630.274 287.500 L 1627.387 292.500 L 1636.048 297.500 L 1644.708 292.500 L 1647.595 297.500 L 1653.368 297.500 L 1659.142 297.500 L 1662.028 292.500 L 1664.915 287.500 L 1670.689 287.500 L 1670.689 277.500 L 1679.349 272.500 L 1676.462 267.500 L 1670.689 267.500 L 1664.915 267.500 L 1662.028 272.500 L 1653.368 267.500 L 1653.368 257.500 L 1659.142 257.500 L 1662.028 252.500 L 1664.915 247.500 L 1662.028 242.500 L 1653.368 247.500 L 1644.708 242.500 L 1641.821 247.500 L 1636.048 247.500 L 1636.048 257.500 L 1627.387 262.500 Z " fill="#dddddd" stroke="black" stroke-width="1.50" fill-rule="evenodd"/>
<path d="M 1757.867 275.000 L 1754.980 280.000 L 1763.641 285.000 L 1772.301 280.000 L 1775.188 285.000 L 1780.961 285.000 L 1786.735 285.000 L 1789.621 280.000 L 1792.508 275.000 L 1798.282 275.000 L 1798.282 265.000 L 1806.942 260.000 L 1804.055 255.000 L 1798.282 255.000 L 1792.508 255.000 L 1789.621 260.000 L 1780.961 255.000 L 1772.301 260.000 L 1763.641 265.000 L 1763.641 275.000 Z " fill="#dddddd" stroke="black" stroke-width="1.50" fill-rule="evenodd"/>
<path d="M 1889.790 267.500 L 1886.903 272.500 L 1895.564 277.500 L 1895.564 287.500 L 1901.337 287.500 L 1904.224 292.500 L 1912.884 287.500 L 1912.884 297.500 L 1918.658 297.500 L 1921.544 292.500 L 1930.205 297.500 L 1938.865 292.500 L 1935.978 287.500 L 1938.865 282.500 L 1930.205 277.500 L 1930.205 267.500 L 1930.205 257.500 L 1921.544 252.500 L 1924.431 247.500 L 1921.544 242.500 L 1912.884 247.500 L 1912.884 257.500 L 1907.111 257.500 L 1904.224 262.500 L 1901.337 267.500 L 1895.564 267.500 Z M 1918.658 277.500 L 1921.544 282.500 L 1912.884 287.500 L 1912.884 277.500 Z " fill="#dddddd" stroke="black" stroke-width="1.50" fill-rule="evenodd"/>
<path d="M 38.537 378.000 L 41.424 383.000 L 44.311 388.000 L 50.084 388.000 L 50.084 398.000 L 58.745 403.000 L 61.631 398.000 L 67.405 398.000 L 73.178 398.000 L 76.065 393.000 L 84.725 398.000 L 93.386 393.000 L 90.499 388.000 L 84.725 388.000 L 84.725 378.000 L 76.065 373.000 L 67.405 368.000 L 67.405 358.000 L 61.631 358.000 L 58.745 353.000 L 50.084 358.000 L 50.084 368.000 L 44.311 368.000 L 41.424 373.000 Z " fill="#dddddd" stroke="black" stroke-width="1.50" fill-rule="evenodd"/>
<path d="M 179.121 378.000 L 182.007 383.000 L 184.894 388.000 L 190.668 388.000 L 190.668 398.000 L 199.328 403.000 L 202.215 398.000 L 199.328 393.000 L 207.988 388.000 L 207.988 378.000 L 213.762 378.000 L 216.648 373.000 L 207.988 368.000 L 207.988 358.000 L 202.215 358.000 L 199.328 353.000 L 190.668 358.000 L 190.668 368.000 L 184.894 368.000 L 182.007 373.000 Z " fill="#dddddd" stroke="black" stroke-width="1.50" fill-rule="evenodd"/>
<path d="M 306.714 373.000 L 309.600 378.000 L 312.487 383.000 L 318.261 383.000 L 318.261 393.000 L 326.921 398.000 L 329.808 393.000 L 326.921 388.000 L 335.581 383.000 L 344.241 388.000 L 347.128 383.000 L 344.241 378.000 L 352.902 373.000 L 352.902 363.000 L 347.128 363.000 L 344.241 358.000 L 335.581 363.000 L 326.921 358.000 L 324.034 363.000 L 326.921 368.000 L 318.261 373.000 L 309.600 368.000 Z " fill="#dddddd" stroke="black" stroke-width="1.50" fill-rule="evenodd"/>
<path d="M 434.307 378.000 L 437.193 383.000 L 440.080 388.000 L 445.854 388.000 L 445.854 398.000 L 454.514 403.000 L 457.401 398.000 L 463.174 398.000 L 468.948 398.000 L 471.834 393.000 L 480.495 398.000 L 489.155 393.000 L 486.268 388.000 L 480.495 388.000 L 480.495 378.000 L 489.155 373.000 L 486.268 368.000 L 480.495 368.000 L 480.495 358.000 L 471.834 353.000 L 468.948 358.000 L 463.174 358.000 L 463.174 368.000 L 454.514 373.000 L 445.854 378.000 L 437.193 373.000 Z " fill="#dddddd" stroke="black" stroke-width="1.50" fill-rule="evenodd"/>
<path d="M 566.230 378.000 L 569.116 383.000 L 572.003 388.000 L 577.777 388.000 L 577.777 398.000 L 586.437 403.000 L 589.324 398.000 L 595.097 398.000 L 600.871 398.000 L 603.757 393.000 L 612.418 398.000 L 621.078 393.000 L 618.191 388.000 L 612.418 388.000 L 612.418 378.000 L 603.757 373.000 L 595.097 368.000 L 595.097 358.000 L 589.324 358.000 L 586.437 353.000 L 577.777 358.000 L 577.777 368.000 L 572.003 368.000 L 569.116 373.000 Z " fill="#dddddd" stroke="black" stroke-width="1.50" fill-rule="evenodd"/>
<path d="M 698.153 370.500 L 701.039 375.500 L 703.926 380.500 L 709.700 380.500 L 709.700 390.500 L 718.360 395.500 L 721.247 390.500 L 718.360 385.500 L 727.020 380.500 L 735.680 385.500 L 738.567 380.500 L 744.341 380.500 L 744.341 370.500 L 753.001 365.500 L 750.114 360.500 L 744.341 360.500 L 738.567 360.500 L 735.680 365.500 L 727.020 360.500 L 718.360 365.500 L 709.700 370.500 L 701.039 365.500 Z " fill="#dddddd" stroke="black" stroke-width="1.50" fill-rule="evenodd"/>
<path d="M 830.076 375.500 L 832.962 380.500 L 835.849 385.500 L 841.623 385.500 L 841.623 395.500 L 850.283 400.500 L 858.943 405.500 L 867.603 400.500 L 870.490 405.500 L 876.264 405.500 L 876.264 395.500 L 867.603 390.500 L 870.490 385.500 L 867.603 380.500 L 864.717 375.500 L 867.603 370.500 L 876.264 375.500 L 884.924 370.500 L 882.037 365.500 L 876.264 365.500 L 876.264 355.500 L 867.603 350.500 L 864.717 355.500 L 858.943 355.500 L 858.943 365.500 L 850.283 370.500 L 841.623 375.500 L 832.962 370.500 Z " fill="#dddddd" stroke="black" stroke-width="1.50" fill-rule="evenodd"/>
<path d="M 957.669 370.500 L 954.782 375.500 L 963.442 380.500 L 972.102 375.500 L 974.989 380.500 L 980.763 380.500 L 986.536 380.500 L 989.423 385.500 L 992.310 390.500 L 998.083 390.500 L 998.083 400.500 L 1006.743 405.500 L 1009.630 400.500 L 1006.743 395.500 L 1015.404 390.500 L 1015.404 380.500 L 1021.177 380.500 L 1024.064 375.500 L 1015.404 370.500 L 1015.404 360.500 L 1009.630 360.500 L 1006.743 355.500 L 1003.857 350.500 L 998.083 350.500 L 992.310 350.500 L 989.423 355.500 L 980.763 350.500 L 972.102 355.500 L 963.442 360.500 L 963.442 370.500 Z " fill="#dddddd" stroke="black" stroke-width="1.50" fill-rule="evenodd"/>
<path d="M 1089.592 370.500 L 1086.705 375.500 L 1095.365 380.500 L 1104.025 375.500 L 1106.912 380.500 L 1112.686 380.500 L 1118.459 380.500 L 1121.346 385.500 L 1112.686 390.500 L 1112.686 400.500 L 1118.459 400.500 L 1121.346 405.500 L 1130.006 400.500 L 1138.666 405.500 L 1141.553 400.500 L 1138.666 395.500 L 1135.780 390.500 L 1130.006 390.500 L 1130.006 380.500 L 1138.666 375.500 L 1141.553 380.500 L 1147.327 380.500 L 1153.100 380.500 L 1155.987 375.500 L 1147.327 370.500 L 1147.327 360.500 L 1141.553 360.500 L 1138.666 355.500 L 1135.780 350.500 L 1130.006 350.500 L 1124.233 350.500 L 1121.346 355.500 L 1112.686 350.500 L 1104.025 355.500 L 1095.365 360.500 L 1095.365 370.500 Z " fill="#dddddd" stroke="black" stroke-width="1.50" fill-rule="evenodd"/>
<path d="M 1221.515 370.500 L 1218.628 375.500 L 1227.288 380.500 L 1235.948 375.500 L 1238.835 380.500 L 1244.609 380.500 L 1250.382 380.500 L 1253.269 385.500 L 1244.609 390.500 L 1244.609 400.500 L 1250.382 400.500 L 1253.269 405.500 L 1261.929 400.500 L 1270.589 405.500 L 1273.476 400.500 L 1270.589 395.500 L 1279.250 390.500 L 1279.250 380.500 L 1285.023 380.500 L 1287.910 375.500 L 1279.250 370.500 L 1270.589 375.500 L 1267.703 370.500 L 1261.929 370.500 L 1261.929 360.500 L 1270.589 355.500 L 1267.703 350.500 L 1261.929 350.500 L 1256.156 350.500 L 1253.269 355.500 L 1244.609 350.500 L 1235.948 355.500 L 1227.288 360.500 L 1227.288 370.500 Z " fill="#dddddd" stroke="black" stroke-width="1.50" fill-rule="evenodd"/>
<path d="M 1357.768 380.500 L 1354.881 385.500 L 1363.541 390.500 L 1372.202 385.500 L 1375.088 390.500 L 1380.862 390.500 L 1386.635 390.500 L 1389.522 395.500 L 1398.182 390.500 L 1406.843 395.500 L 1409.729 390.500 L 1415.503 390.500 L 1415.503 380.500 L 1406.843 375.500 L 1409.729 370.500 L 1406.843 365.500 L 1403.956 360.500 L 1398.182 360.500 L 1392.409 360.500 L 1389.522 365.500 L 1380.862 360.500 L 1372.202 365.500 L 1363.541 370.500 L 1363.541 380.500 Z " fill="#dddddd" stroke="black" stroke-width="1.50" fill-rule="evenodd"/>
<path d="M 1489.691 375.500 L 1492.578 380.500 L 1495.464 385.500 L 1501.238 385.500 L 1501.238 395.500 L 1509.898 400.500 L 1512.785 395.500 L 1509.898 390.500 L 1518.558 385.500 L 1527.219 390.500 L 1524.332 395.500 L 1527.219 400.500 L 1530.105 405.500 L 1535.879 405.500 L 1535.879 395.500 L 1544.539 390.500 L 1541.652 385.500 L 1544.539 380.500 L 1535.879 375.500 L 1544.539 370.500 L 1541.652 365.500 L 1535.879 365.500 L 1535.879 355.500 L 1527.219 350.500 L 1524.332 355.500 L 1518.558 355.500 L 1518.558 365.500 L 1509.898 370.500 L 1501.238 375.500 L 1492.578 370.500 Z M 1524.332 375.500 L 1527.219 370.500 L 1535.879 375.500 L 1527.219 380.500 Z " fill="#dddddd" stroke="black" stroke-width="1.50" fill-rule="evenodd"/>
<path d="M 1617.284 370.500 L 1614.397 375.500 L 1623.057 380.500 L 1623.057 390.500 L 1628.831 390.500 L 1631.718 395.500 L 1640.378 390.500 L 1640.378 380.500 L 1646.151 380.500 L 1649.038 385.500 L 1651.925 390.500 L 1657.698 390.500 L 1657.698 400.500 L 1666.359 405.500 L 1669.245 400.500 L 1666.359 395.500 L 1675.019 390.500 L 1675.019 380.500 L 1680.792 380.500 L 1683.679 375.500 L 1675.019 370.500 L 1675.019 360.500 L 1669.245 360.500 L 1666.359 355.500 L 1663.472 350.500 L 1657.698 350.500 L 1651.925 350.500 L 1649.038 355.500 L 1640.378 350.500 L 1631.718 355.500 L 1634.604 360.500 L 1640.378 360.500 L 1640.378 370.500 L 1631.718 375.500 L 1628.831 370.500 L 1623.057 370.500 Z " fill="#dddddd" stroke="black" stroke-width="1.50" fill-rule="evenodd"/>
<path d="M 1749.207 373.000 L 1746.320 378.000 L 1754.980 383.000 L 1754.980 393.000 L 1760.754 393.000 L 1763.641 398.000 L 1766.527 403.000 L 1772.301 403.000 L 1778.074 403.000 L 1780.961 398.000 L 1789.621 403.000 L 1798.282 398.000 L 1795.395 393.000 L 1789.621 393.000 L 1789.621 383.000 L 1798.282 378.000 L 1801.168 383.000 L 1806.942 383.000 L 1812.715 383.000 L 1815.602 378.000 L 1806.942 373.000 L 1806.942 363.000 L 1801.168 363.000 L 1798.282 358.000 L 1795.395 353.000 L 1789.621 353.000 L 1783.848 353.000 L 1780.961 358.000 L 1772.301 353.000 L 1763.641 358.000 L 1766.527 363.000 L 1772.301 363.000 L 1772.301 373.000 L 1763.641 378.000 L 1760.754 373.000 L 1754.980 373.000 Z " fill="#dddddd" stroke="black" stroke-width="1.50" fill-rule="evenodd"/>
<path d="M 1881.130 373.000 L 1878.243 378.000 L 1886.903 383.000 L 1895.564 378.000 L 1898.450 383.000 L 1904.224 383.000 L 1904.224 393.000 L 1895.564 398.000 L 1898.450 403.000 L 1904.224 403.000 L 1909.997 403.000 L 1912.884 398.000 L 1921.544 403.000 L 1930.205 398.000 L 1927.318 393.000 L 1921.544 393.000 L 1921.544 383.000 L 1930.205 378.000 L 1933.091 383.000 L 1938.865 383.000 L 1944.638 383.000 L 1947.525 378.000 L 1938.865 373.000 L 1938.865 363.000 L 1933.091 363.000 L 1930.205 358.000 L 1927.318 353.000 L 1921.544 353.000 L 1915.771 353.000 L 1912.884 358.000 L 1904.224 353.000 L 1895.564 358.000 L 1886.903 363.000 L 1886.903 373.000 Z " fill="#dddddd" stroke="black" stroke-width="1.50" fill-rule="evenodd"/>
<path d="M 34.207 478.500 L 31.321 483.500 L 39.981 488.500 L 39.981 498.500 L 45.754 498.500 L 48.641 503.500 L 57.301 498.500 L 57.301 508.500 L 63.075 508.500 L 65.962 513.500 L 74.622 508.500 L 83.282 513.500 L 86.169 508.500 L 83.282 503.500 L 80.395 498.500 L 74.622 498.500 L 74.622 488.500 L 83.282 483.500 L 86.169 488.500 L 91.942 488.500 L 97.716 488.500 L 100.603 483.500 L 91.942 478.500 L 91.942 468.500 L 86.169 468.500 L 83.282 463.500 L 80.395 458.500 L 74.622 458.500 L 68.848 458.500 L 65.962 463.500 L 57.301 458.500 L 48.641 463.500 L 51.528 468.500 L 57.301 468.500 L 57.301 478.500 L 48.641 483.500 L 45.754 478.500 L 39.981 478.500 Z M 63.075 488.500 L 65.962 493.500 L 57.301 498.500 L 57.301 488.500 Z " fill="#dddddd" stroke="black" stroke-width="1.50" fill-rule="evenodd"/>
<path d="M 166.130 478.500 L 163.244 483.500 L 171.904 488.500 L 171.904 498.500 L 177.677 498.500 L 180.564 503.500 L 189.224 498.500 L 189.224 508.500 L 194.998 508.500 L 197.885 513.500 L 206.545 508.500 L 215.205 513.500 L 218.092 508.500 L 215.205 503.500 L 223.865 498.500 L 223.865 488.500 L 229.639 488.500 L 232.526 483.500 L 223.865 478.500 L 215.205 483.500 L 212.318 478.500 L 206.545 478.500 L 206.545 468.500 L 215.205 463.500 L 212.318 458.500 L 206.545 458.500 L 200.771 458.500 L 197.885 463.500 L 189.224 458.500 L 180.564 463.500 L 183.451 468.500 L 189.224 468.500 L 189.224 478.500 L 180.564 483.500 L 177.677 478.500 L 171.904 478.500 Z M 194.998 488.500 L 197.885 493.500 L 189.224 498.500 L 189.224 488.500 Z " fill="#dddddd" stroke="black" stroke-width="1.50" fill-rule="evenodd"/>
<path d="M 298.053 483.500 L 295.167 488.500 L 303.827 493.500 L 303.827 503.500 L 309.600 503.500 L 312.487 508.500 L 315.374 513.500 L 321.147 513.500 L 326.921 513.500 L 329.808 508.500 L 338.468 513.500 L 347.128 508.500 L 344.241 503.500 L 338.468 503.500 L 338.468 493.500 L 347.128 488.500 L 350.015 493.500 L 355.788 493.500 L 361.562 493.500 L 364.449 488.500 L 355.788 483.500 L 355.788 473.500 L 350.015 473.500 L 347.128 468.500 L 338.468 473.500 L 329.808 468.500 L 332.694 463.500 L 329.808 458.500 L 321.147 463.500 L 321.147 473.500 L 315.374 473.500 L 312.487 478.500 L 309.600 483.500 L 303.827 483.500 Z " fill="#dddddd" stroke="black" stroke-width="1.50" fill-rule="evenodd"/>
<path d="M 434.307 483.500 L 437.193 488.500 L 440.080 493.500 L 445.854 493.500 L 445.854 503.500 L 454.514 508.500 L 457.401 503.500 L 454.514 498.500 L 463.174 493.500 L 471.834 498.500 L 468.948 503.500 L 471.834 508.500 L 474.721 513.500 L 480.495 513.500 L 480.495 503.500 L 489.155 498.500 L 486.268 493.500 L 489.155 488.500 L 480.495 483.500 L 471.834 488.500 L 468.948 483.500 L 471.834 478.500 L 463.174 473.500 L 463.174 463.500 L 457.401 463.500 L 454.514 458.500 L 445.854 463.500 L 445.854 473.500 L 440.080 473.500 L 437.193 478.500 Z " fill="#dddddd" stroke="black" stroke-width="1.50" fill-rule="evenodd"/>
<path d="M 564.786 486.000 L 567.673 491.000 L 570.560 496.000 L 576.333 496.000 L 576.333 506.000 L 584.993 511.000 L 587.880 506.000 L 584.993 501.000 L 593.654 496.000 L 602.314 501.000 L 599.427 506.000 L 602.314 511.000 L 610.974 506.000 L 610.974 496.000 L 616.748 496.000 L 619.634 491.000 L 622.521 486.000 L 619.634 481.000 L 616.748 476.000 L 610.974 476.000 L 610.974 466.000 L 602.314 461.000 L 599.427 466.000 L 593.654 466.000 L 593.654 476.000 L 584.993 481.000 L 576.333 486.000 L 567.673 481.000 Z " fill="#dddddd" stroke="black" stroke-width="1.50" fill-rule="evenodd"/>
<path d="M 701.039 478.500 L 695.266 478.500 L 695.266 488.500 L 703.926 493.500 L 701.039 498.500 L 703.926 503.500 L 706.813 508.500 L 712.586 508.500 L 718.360 508.500 L 721.247 513.500 L 729.907 508.500 L 738.567 513.500 L 741.454 508.500 L 738.567 503.500 L 747.227 498.500 L 747.227 488.500 L 753.001 488.500 L 755.888 483.500 L 747.227 478.500 L 738.567 483.500 L 735.680 478.500 L 729.907 478.500 L 729.907 468.500 L 738.567 463.500 L 735.680 458.500 L 729.907 458.500 L 724.133 458.500 L 721.247 463.500 L 712.586 458.500 L 703.926 463.500 L 706.813 468.500 L 712.586 468.500 L 712.586 478.500 L 703.926 483.500 Z " fill="#dddddd" stroke="black" stroke-width="1.50" fill-rule="evenodd"/>
<path d="M 832.962 478.500 L 827.189 478.500 L 827.189 488.500 L 835.849 493.500 L 832.962 498.500 L 835.849 503.500 L 838.736 508.500 L 844.509 508.500 L 850.283 508.500 L 853.170 513.500 L 861.830 508.500 L 870.490 513.500 L 873.377 508.500 L 870.490 503.500 L 867.603 498.500 L 861.830 498.500 L 861.830 488.500 L 870.490 483.500 L 873.377 488.500 L 879.150 488.500 L 884.924 488.500 L 887.811 483.500 L 879.150 478.500 L 879.150 468.500 L 873.377 468.500 L 870.490 463.500 L 867.603 458.500 L 861.830 458.500 L 856.056 458.500 L 853.170 463.500 L 844.509 458.500 L 835.849 463.500 L 838.736 468.500 L 844.509 468.500 L 844.509 478.500 L 835.849 483.500 Z " fill="#dddddd" stroke="black" stroke-width="1.50" fill-rule="evenodd"/>
<path d="M 964.885 478.500 L 959.112 478.500 L 959.112 488.500 L 967.772 493.500 L 964.885 498.500 L 967.772 503.500 L 970.659 508.500 L 976.432 508.500 L 982.206 508.500 L 985.093 513.500 L 993.753 508.500 L 1002.413 513.500 L 1005.300 508.500 L 1002.413 503.500 L 1011.073 498.500 L 1011.073 488.500 L 1016.847 488.500 L 1019.734 483.500 L 1011.073 478.500 L 1002.413 483.500 L 999.526 478.500 L 993.753 478.500 L 993.753 468.500 L 1002.413 463.500 L 999.526 458.500 L 993.753 458.500 L 987.979 458.500 L 985.093 463.500 L 976.432 458.500 L 967.772 463.500 L 970.659 468.500 L 976.432 468.500 L 976.432 478.500 L 967.772 483.500 Z " fill="#dddddd" stroke="black" stroke-width="1.50" fill-rule="evenodd"/>
<path d="M 1092.478 486.000 L 1095.365 491.000 L 1098.252 496.000 L 1104.025 496.000 L 1104.025 506.000 L 1112.686 511.000 L 1115.572 506.000 L 1112.686 501.000 L 1121.346 496.000 L 1130.006 501.000 L 1127.119 506.000 L 1130.006 511.000 L 1138.666 506.000 L 1138.666 496.000 L 1144.440 496.000 L 1147.327 491.000 L 1150.213 486.000 L 1147.327 481.000 L 1144.440 476.000 L 1138.666 476.000 L 1138.666 466.000 L 1130.006 461.000 L 1127.119 466.000 L 1121.346 466.000 L 1121.346 476.000 L 1112.686 481.000 L 1104.025 486.000 L 1095.365 481.000 Z " fill="#dddddd" stroke="black" stroke-width="1.50" fill-rule="evenodd"/>
<path d="M 1230.175 483.500 L 1227.288 488.500 L 1235.948 493.500 L 1244.609 488.500 L 1247.495 493.500 L 1253.269 493.500 L 1259.042 493.500 L 1261.929 498.500 L 1264.816 503.500 L 1270.589 503.500 L 1270.589 493.500 L 1279.250 488.500 L 1276.363 483.500 L 1279.250 478.500 L 1270.589 473.500 L 1261.929 478.500 L 1259.042 473.500 L 1253.269 473.500 L 1247.495 473.500 L 1244.609 468.500 L 1235.948 473.500 L 1235.948 483.500 Z " fill="#dddddd" stroke="black" stroke-width="1.50" fill-rule="evenodd"/>
<path d="M 1360.655 486.000 L 1357.768 491.000 L 1366.428 496.000 L 1375.088 491.000 L 1377.975 496.000 L 1383.749 496.000 L 1389.522 496.000 L 1392.409 501.000 L 1401.069 496.000 L 1401.069 486.000 L 1406.843 486.000 L 1409.729 481.000 L 1412.616 476.000 L 1409.729 471.000 L 1401.069 476.000 L 1392.409 471.000 L 1389.522 476.000 L 1383.749 476.000 L 1377.975 476.000 L 1375.088 471.000 L 1366.428 476.000 L 1366.428 486.000 Z " fill="#dddddd" stroke="black" stroke-width="1.50" fill-rule="evenodd"/>
<path d="M 1485.361 478.500 L 1482.474 483.500 L 1491.134 488.500 L 1499.795 483.500 L 1502.681 488.500 L 1508.455 488.500 L 1508.455 498.500 L 1517.115 503.500 L 1514.228 508.500 L 1517.115 513.500 L 1525.775 508.500 L 1525.775 498.500 L 1531.549 498.500 L 1534.436 493.500 L 1537.322 488.500 L 1543.096 488.500 L 1548.869 488.500 L 1551.756 483.500 L 1543.096 478.500 L 1543.096 468.500 L 1537.322 468.500 L 1534.436 463.500 L 1531.549 458.500 L 1525.775 458.500 L 1520.002 458.500 L 1517.115 463.500 L 1508.455 458.500 L 1499.795 463.500 L 1491.134 468.500 L 1491.134 478.500 Z " fill="#dddddd" stroke="black" stroke-width="1.50" fill-rule="evenodd"/>
<path d="M 1617.284 478.500 L 1614.397 483.500 L 1623.057 488.500 L 1631.718 483.500 L 1634.604 488.500 L 1640.378 488.500 L 1646.151 488.500 L 1649.038 493.500 L 1640.378 498.500 L 1640.378 508.500 L 1646.151 508.500 L 1649.038 513.500 L 1657.698 508.500 L 1666.359 513.500 L 1669.245 508.500 L 1666.359 503.500 L 1663.472 498.500 L 1657.698 498.500 L 1657.698 488.500 L 1666.359 483.500 L 1669.245 488.500 L 1675.019 488.500 L 1680.792 488.500 L 1683.679 483.500 L 1675.019 478.500 L 1675.019 468.500 L 1669.245 468.500 L 1666.359 463.500 L 1663.472 458.500 L 1657.698 458.500 L 1651.925 458.500 L 1649.038 463.500 L 1640.378 458.500 L 1631.718 463.500 L 1623.057 468.500 L 1623.057 478.500 Z " fill="#dddddd" stroke="black" stroke-width="1.50" fill-rule="evenodd"/>
<path d="M 1749.207 481.000 L 1746.320 486.000 L 1754.980 491.000 L 1763.641 486.000 L 1766.527 491.000 L 1772.301 491.000 L 1772.301 501.000 L 1763.641 506.000 L 1766.527 511.000 L 1772.301 511.000 L 1778.074 511.000 L 1780.961 506.000 L 1789.621 511.000 L 1798.282 506.000 L 1795.395 501.000 L 1789.621 501.000 L 1789.621 491.000 L 1798.282 486.000 L 1801.168 491.000 L 1806.942 491.000 L 1812.715 491.000 L 1815.602 486.000 L 1806.942 481.000 L 1806.942 471.000 L 1801.168 471.000 L 1798.282 466.000 L 1795.395 461.000 L 1789.621 461.000 L 1783.848 461.000 L 1780.961 466.000 L 1772.301 461.000 L 1763.641 466.000 L 1754.980 471.000 L 1754.980 481.000 Z " fill="#dddddd" stroke="black" stroke-width="1.50" fill-rule="evenodd"/>
<path d="M 1881.130 478.500 L 1878.243 483.500 L 1886.903 488.500 L 1895.564 483.500 L 1898.450 488.500 L 1904.224 488.500 L 1909.997 488.500 L 1912.884 493.500 L 1915.771 498.500 L 1921.544 498.500 L 1921.544 508.500 L 1930.205 513.500 L 1933.091 508.500 L 1930.205 503.500 L 1938.865 498.500 L 1938.865 488.500 L 1944.638 488.500 L 1947.525 483.500 L 1938.865 478.500 L 1938.865 468.500 L 1933.091 468.500 L 1930.205 463.500 L 1927.318 458.500 L 1921.544 458.500 L 1915.771 458.500 L 1912.884 463.500 L 1904.224 458.500 L 1895.564 463.500 L 1886.903 468.500 L 1886.903 478.500 Z " fill="#dddddd" stroke="black" stroke-width="1.50" fill-rule="evenodd"/>
<path d="M 38.537 596.500 L 35.651 601.500 L 44.311 606.500 L 52.971 601.500 L 55.858 606.500 L 61.631 606.500 L 67.405 606.500 L 70.292 611.500 L 78.952 606.500 L 87.612 611.500 L 90.499 606.500 L 96.272 606.500 L 96.272 596.500 L 87.612 591.500 L 90.499 586.500 L 87.612 581.500 L 84.725 576.500 L 78.952 576.500 L 73.178 576.500 L 70.292 581.500 L 61.631 576.500 L 52.971 581.500 L 44.311 586.500 L 44.311 596.500 Z " fill="#dddddd" stroke="black" stroke-width="1.50" fill-rule="evenodd"/>
<path d="M 170.460 591.500 L 173.347 596.500 L 176.234 601.500 L 182.007 601.500 L 182.007 611.500 L 190.668 616.500 L 199.328 621.500 L 207.988 616.500 L 210.875 621.500 L 216.648 621.500 L 216.648 611.500 L 207.988 606.500 L 210.875 601.500 L 207.988 596.500 L 205.101 591.500 L 207.988 586.500 L 216.648 591.500 L 225.309 586.500 L 222.422 581.500 L 216.648 581.500 L 216.648 571.500 L 207.988 566.500 L 205.101 571.500 L 199.328 571.500 L 199.328 581.500 L 190.668 586.500 L 182.007 591.500 L 173.347 586.500 Z " fill="#dddddd" stroke="black" stroke-width="1.50" fill-rule="evenodd"/>
<path d="M 298.053 589.000 L 295.167 594.000 L 303.827 599.000 L 303.827 609.000 L 309.600 609.000 L 312.487 614.000 L 321.147 609.000 L 321.147 619.000 L 326.921 619.000 L 329.808 624.000 L 338.468 619.000 L 347.128 624.000 L 350.015 619.000 L 347.128 614.000 L 355.788 609.000 L 355.788 599.000 L 361.562 599.000 L 364.449 594.000 L 355.788 589.000 L 347.128 594.000 L 344.241 589.000 L 338.468 589.000 L 338.468 579.000 L 329.808 574.000 L 332.694 569.000 L 329.808 564.000 L 321.147 569.000 L 321.147 579.000 L 315.374 579.000 L 312.487 584.000 L 309.600 589.000 L 303.827 589.000 Z M 326.921 599.000 L 329.808 604.000 L 321.147 609.000 L 321.147 599.000 Z " fill="#dddddd" stroke="black" stroke-width="1.50" fill-rule="evenodd"/>
<path d="M 429.976 589.000 L 427.090 594.000 L 435.750 599.000 L 444.410 594.000 L 447.297 599.000 L 453.070 599.000 L 458.844 599.000 L 461.731 604.000 L 453.070 609.000 L 453.070 619.000 L 458.844 619.000 L 461.731 624.000 L 470.391 619.000 L 479.051 624.000 L 481.938 619.000 L 479.051 614.000 L 476.164 609.000 L 470.391 609.000 L 470.391 599.000 L 479.051 594.000 L 481.938 599.000 L 487.711 599.000 L 493.485 599.000 L 496.372 594.000 L 487.711 589.000 L 487.711 579.000 L 481.938 579.000 L 479.051 574.000 L 470.391 579.000 L 470.391 569.000 L 464.617 569.000 L 461.731 564.000 L 453.070 569.000 L 444.410 564.000 L 441.523 569.000 L 444.410 574.000 L 435.750 579.000 L 435.750 589.000 Z M 464.617 589.000 L 461.731 584.000 L 470.391 579.000 L 470.391 589.000 Z " fill="#dddddd" stroke="black" stroke-width="1.50" fill-rule="evenodd"/>
<path d="M 561.899 586.500 L 559.013 591.500 L 567.673 596.500 L 567.673 606.500 L 573.446 606.500 L 576.333 611.500 L 584.993 606.500 L 584.993 616.500 L 590.767 616.500 L 593.654 621.500 L 602.314 616.500 L 610.974 621.500 L 613.861 616.500 L 610.974 611.500 L 619.634 606.500 L 619.634 596.500 L 625.408 596.500 L 628.295 591.500 L 619.634 586.500 L 610.974 591.500 L 608.087 586.500 L 602.314 586.500 L 602.314 576.500 L 610.974 571.500 L 608.087 566.500 L 602.314 566.500 L 596.540 566.500 L 593.654 571.500 L 584.993 566.500 L 576.333 571.500 L 579.220 576.500 L 584.993 576.500 L 584.993 586.500 L 576.333 591.500 L 573.446 586.500 L 567.673 586.500 Z M 590.767 596.500 L 593.654 601.500 L 584.993 606.500 L 584.993 596.500 Z " fill="#dddddd" stroke="black" stroke-width="1.50" fill-rule="evenodd"/>
<path d="M 693.823 599.000 L 699.596 599.000 L 699.596 609.000 L 708.256 614.000 L 705.370 619.000 L 708.256 624.000 L 716.917 619.000 L 725.577 624.000 L 728.464 619.000 L 734.237 619.000 L 734.237 609.000 L 742.897 614.000 L 745.784 609.000 L 751.558 609.000 L 751.558 599.000 L 760.218 594.000 L 757.331 589.000 L 751.558 589.000 L 751.558 579.000 L 742.897 574.000 L 745.784 569.000 L 742.897 564.000 L 734.237 569.000 L 734.237 579.000 L 728.464 579.000 L 725.577 584.000 L 722.690 589.000 L 716.917 589.000 L 711.143 589.000 L 708.256 594.000 L 699.596 589.000 L 690.936 594.000 Z M 728.464 599.000 L 734.237 599.000 L 734.237 609.000 L 725.577 604.000 Z " fill="#dddddd" stroke="black" stroke-width="1.50" fill-rule="evenodd"/>
<path d="M 834.406 576.500 L 831.519 581.500 L 840.179 586.500 L 840.179 596.500 L 845.953 596.500 L 848.840 601.500 L 851.726 606.500 L 857.500 606.500 L 857.500 616.500 L 866.160 621.500 L 869.047 616.500 L 866.160 611.500 L 874.820 606.500 L 874.820 596.500 L 880.594 596.500 L 883.481 591.500 L 874.820 586.500 L 874.820 576.500 L 869.047 576.500 L 866.160 571.500 L 857.500 576.500 L 857.500 566.500 L 851.726 566.500 L 848.840 571.500 L 840.179 566.500 L 831.519 571.500 Z M 851.726 586.500 L 848.840 581.500 L 857.500 576.500 L 857.500 586.500 Z " fill="#dddddd" stroke="black" stroke-width="1.50" fill-rule="evenodd"/>
<path d="M 957.669 589.000 L 954.782 594.000 L 963.442 599.000 L 972.102 594.000 L 974.989 599.000 L 980.763 599.000 L 986.536 599.000 L 989.423 604.000 L 980.763 609.000 L 980.763 619.000 L 986.536 619.000 L 989.423 624.000 L 998.083 619.000 L 1006.743 624.000 L 1009.630 619.000 L 1006.743 614.000 L 1015.404 609.000 L 1015.404 599.000 L 1021.177 599.000 L 1024.064 594.000 L 1015.404 589.000 L 1006.743 594.000 L 1003.857 589.000 L 998.083 589.000 L 992.310 589.000 L 989.423 584.000 L 998.083 579.000 L 998.083 569.000 L 992.310 569.000 L 989.423 564.000 L 980.763 569.000 L 972.102 564.000 L 969.216 569.000 L 972.102 574.000 L 963.442 579.000 L 963.442 589.000 Z " fill="#dddddd" stroke="black" stroke-width="1.50" fill-rule="evenodd"/>
<path d="M 1089.592 586.500 L 1086.705 591.500 L 1095.365 596.500 L 1104.025 591.500 L 1106.912 596.500 L 1112.686 596.500 L 1118.459 596.500 L 1121.346 601.500 L 1112.686 606.500 L 1112.686 616.500 L 1118.459 616.500 L 1121.346 621.500 L 1130.006 616.500 L 1138.666 621.500 L 1141.553 616.500 L 1138.666 611.500 L 1147.327 606.500 L 1147.327 596.500 L 1153.100 596.500 L 1155.987 591.500 L 1147.327 586.500 L 1138.666 591.500 L 1135.780 586.500 L 1130.006 586.500 L 1130.006 576.500 L 1138.666 571.500 L 1135.780 566.500 L 1130.006 566.500 L 1124.233 566.500 L 1121.346 571.500 L 1112.686 566.500 L 1104.025 571.500 L 1095.365 576.500 L 1095.365 586.500 Z " fill="#dddddd" stroke="black" stroke-width="1.50" fill-rule="evenodd"/>
<path d="M 1228.732 581.500 L 1222.958 581.500 L 1222.958 591.500 L 1231.618 596.500 L 1228.732 601.500 L 1231.618 606.500 L 1234.505 611.500 L 1231.618 616.500 L 1240.279 621.500 L 1248.939 616.500 L 1251.826 621.500 L 1257.599 621.500 L 1263.373 621.500 L 1266.259 616.500 L 1269.146 611.500 L 1274.920 611.500 L 1274.920 601.500 L 1283.580 596.500 L 1280.693 591.500 L 1274.920 591.500 L 1274.920 581.500 L 1266.259 576.500 L 1269.146 571.500 L 1266.259 566.500 L 1257.599 571.500 L 1257.599 581.500 L 1251.826 581.500 L 1248.939 586.500 L 1240.279 581.500 L 1231.618 586.500 Z " fill="#dddddd" stroke="black" stroke-width="1.50" fill-rule="evenodd"/>
<path d="M 1353.438 586.500 L 1350.551 591.500 L 1359.211 596.500 L 1359.211 606.500 L 1364.985 606.500 L 1367.872 611.500 L 1376.532 606.500 L 1376.532 596.500 L 1382.305 596.500 L 1385.192 601.500 L 1388.079 606.500 L 1393.852 606.500 L 1393.852 616.500 L 1402.513 621.500 L 1405.399 616.500 L 1402.513 611.500 L 1411.173 606.500 L 1411.173 596.500 L 1416.946 596.500 L 1419.833 591.500 L 1411.173 586.500 L 1411.173 576.500 L 1405.399 576.500 L 1402.513 571.500 L 1399.626 566.500 L 1393.852 566.500 L 1388.079 566.500 L 1385.192 571.500 L 1376.532 566.500 L 1367.872 571.500 L 1370.758 576.500 L 1376.532 576.500 L 1376.532 586.500 L 1367.872 591.500 L 1364.985 586.500 L 1359.211 586.500 Z " fill="#dddddd" stroke="black" stroke-width="1.50" fill-rule="evenodd"/>
<path d="M 1492.578 586.500 L 1486.804 586.500 L 1486.804 596.500 L 1495.464 601.500 L 1492.578 606.500 L 1495.464 611.500 L 1498.351 616.500 L 1504.125 616.500 L 1509.898 616.500 L 1512.785 621.500 L 1521.445 616.500 L 1530.105 621.500 L 1532.992 616.500 L 1530.105 611.500 L 1538.766 606.500 L 1538.766 596.500 L 1544.539 596.500 L 1547.426 591.500 L 1538.766 586.500 L 1530.105 591.500 L 1527.219 586.500 L 1521.445 586.500 L 1521.445 576.500 L 1530.105 571.500 L 1527.219 566.500 L 1521.445 566.500 L 1515.672 566.500 L 1512.785 571.500 L 1504.125 566.500 L 1495.464 571.500 L 1498.351 576.500 L 1504.125 576.500 L 1504.125 586.500 L 1495.464 591.500 Z " fill="#dddddd" stroke="black" stroke-width="1.50" fill-rule="evenodd"/>
<path d="M 1617.284 586.500 L 1614.397 591.500 L 1623.057 596.500 L 1631.718 591.500 L 1634.604 596.500 L 1640.378 596.500 L 1646.151 596.500 L 1649.038 601.500 L 1651.925 606.500 L 1657.698 606.500 L 1657.698 616.500 L 1666.359 621.500 L 1669.245 616.500 L 1666.359 611.500 L 1675.019 606.500 L 1675.019 596.500 L 1680.792 596.500 L 1683.679 591.500 L 1675.019 586.500 L 1675.019 576.500 L 1669.245 576.500 L 1666.359 571.500 L 1663.472 566.500 L 1657.698 566.500 L 1651.925 566.500 L 1649.038 571.500 L 1640.378 566.500 L 1631.718 571.500 L 1623.057 576.500 L 1623.057 586.500 Z " fill="#dddddd" stroke="black" stroke-width="1.50" fill-rule="evenodd"/>
<path d="M 1749.207 589.000 L 1746.320 594.000 L 1754.980 599.000 L 1754.980 609.000 L 1760.754 609.000 L 1763.641 614.000 L 1772.301 609.000 L 1772.301 599.000 L 1778.074 599.000 L 1780.961 604.000 L 1783.848 609.000 L 1789.621 609.000 L 1789.621 619.000 L 1798.282 624.000 L 1801.168 619.000 L 1798.282 614.000 L 1806.942 609.000 L 1806.942 599.000 L 1812.715 599.000 L 1815.602 594.000 L 1806.942 589.000 L 1806.942 579.000 L 1801.168 579.000 L 1798.282 574.000 L 1789.621 579.000 L 1780.961 574.000 L 1783.848 569.000 L 1780.961 564.000 L 1772.301 569.000 L 1772.301 579.000 L 1766.527 579.000 L 1763.641 584.000 L 1760.754 589.000 L 1754.980 589.000 Z " fill="#dddddd" stroke="black" stroke-width="1.50" fill-rule="evenodd"/>
<path d="M 1888.347 581.500 L 1882.573 581.500 L 1882.573 591.500 L 1891.234 596.500 L 1888.347 601.500 L 1891.234 606.500 L 1894.120 611.500 L 1891.234 616.500 L 1899.894 621.500 L 1908.554 616.500 L 1911.441 621.500 L 1917.214 621.500 L 1922.988 621.500 L 1925.875 616.500 L 1917.214 611.500 L 1917.214 601.500 L 1922.988 601.500 L 1925.875 596.500 L 1934.535 601.500 L 1943.195 596.500 L 1940.308 591.500 L 1934.535 591.500 L 1934.535 581.500 L 1925.875 576.500 L 1928.761 571.500 L 1925.875 566.500 L 1917.214 571.500 L 1908.554 566.500 L 1905.667 571.500 L 1899.894 571.500 L 1899.894 581.500 L 1891.234 586.500 Z " fill="#dddddd" stroke="black" stroke-width="1.50" fill-rule="evenodd"/>
<path d="M 41.424 692.000 L 35.651 692.000 L 35.651 702.000 L 44.311 707.000 L 41.424 712.000 L 44.311 717.000 L 52.971 712.000 L 52.971 702.000 L 58.745 702.000 L 61.631 707.000 L 64.518 712.000 L 70.292 712.000 L 70.292 722.000 L 78.952 727.000 L 81.839 722.000 L 78.952 717.000 L 87.612 712.000 L 87.612 702.000 L 93.386 702.000 L 96.272 697.000 L 87.612 692.000 L 87.612 682.000 L 81.839 682.000 L 78.952 677.000 L 70.292 682.000 L 70.292 692.000 L 64.518 692.000 L 61.631 687.000 L 52.971 692.000 L 44.311 687.000 Z " fill="#dddddd" stroke="black" stroke-width="1.50" fill-rule="evenodd"/>
<path d="M 174.791 689.500 L 171.904 694.500 L 180.564 699.500 L 180.564 709.500 L 174.791 709.500 L 171.904 714.500 L 180.564 719.500 L 189.224 714.500 L 192.111 719.500 L 197.885 719.500 L 203.658 719.500 L 206.545 724.500 L 209.432 729.500 L 215.205 729.500 L 215.205 719.500 L 223.865 714.500 L 220.979 709.500 L 223.865 704.500 L 215.205 699.500 L 206.545 704.500 L 203.658 699.500 L 206.545 694.500 L 197.885 689.500 L 197.885 679.500 L 192.111 679.500 L 189.224 674.500 L 180.564 679.500 L 180.564 689.500 Z " fill="#dddddd" stroke="black" stroke-width="1.50" fill-rule="evenodd"/>
<path d="M 305.270 692.000 L 299.497 692.000 L 299.497 702.000 L 308.157 707.000 L 305.270 712.000 L 308.157 717.000 L 316.817 712.000 L 316.817 722.000 L 322.591 722.000 L 325.477 727.000 L 334.138 722.000 L 342.798 727.000 L 345.685 722.000 L 342.798 717.000 L 339.911 712.000 L 334.138 712.000 L 334.138 702.000 L 342.798 697.000 L 345.685 702.000 L 351.458 702.000 L 357.232 702.000 L 360.119 697.000 L 351.458 692.000 L 351.458 682.000 L 345.685 682.000 L 342.798 677.000 L 334.138 682.000 L 334.138 692.000 L 328.364 692.000 L 325.477 687.000 L 316.817 692.000 L 308.157 687.000 Z M 322.591 702.000 L 325.477 707.000 L 316.817 712.000 L 316.817 702.000 Z " fill="#dddddd" stroke="black" stroke-width="1.50" fill-rule="evenodd"/>
<path d="M 434.307 699.500 L 437.193 704.500 L 440.080 709.500 L 445.854 709.500 L 445.854 719.500 L 454.514 724.500 L 457.401 719.500 L 454.514 714.500 L 463.174 709.500 L 471.834 714.500 L 468.948 719.500 L 471.834 724.500 L 474.721 729.500 L 480.495 729.500 L 480.495 719.500 L 489.155 714.500 L 486.268 709.500 L 489.155 704.500 L 480.495 699.500 L 471.834 704.500 L 468.948 699.500 L 471.834 694.500 L 463.174 689.500 L 463.174 679.500 L 457.401 679.500 L 454.514 674.500 L 445.854 679.500 L 445.854 689.500 L 440.080 689.500 L 437.193 694.500 Z " fill="#dddddd" stroke="black" stroke-width="1.50" fill-rule="evenodd"/>
<path d="M 569.116 692.000 L 563.343 692.000 L 563.343 702.000 L 572.003 707.000 L 569.116 712.000 L 572.003 717.000 L 580.663 712.000 L 580.663 702.000 L 586.437 702.000 L 589.324 707.000 L 592.210 712.000 L 597.984 712.000 L 597.984 722.000 L 606.644 727.000 L 609.531 722.000 L 606.644 717.000 L 615.304 712.000 L 615.304 702.000 L 621.078 702.000 L 623.965 697.000 L 615.304 692.000 L 615.304 682.000 L 609.531 682.000 L 606.644 677.000 L 597.984 682.000 L 597.984 692.000 L 592.210 692.000 L 589.324 687.000 L 580.663 692.000 L 572.003 687.000 Z " fill="#dddddd" stroke="black" stroke-width="1.50" fill-rule="evenodd"/>
<path d="M 702.483 692.000 L 699.596 697.000 L 708.256 702.000 L 716.917 697.000 L 719.803 702.000 L 716.917 707.000 L 725.577 712.000 L 725.577 722.000 L 731.350 722.000 L 734.237 727.000 L 742.897 722.000 L 742.897 712.000 L 748.671 712.000 L 751.558 707.000 L 742.897 702.000 L 734.237 707.000 L 731.350 702.000 L 734.237 697.000 L 725.577 692.000 L 725.577 682.000 L 719.803 682.000 L 716.917 677.000 L 708.256 682.000 L 708.256 692.000 Z " fill="#dddddd" stroke="black" stroke-width="1.50" fill-rule="evenodd"/>
<path d="M 834.406 684.500 L 831.519 689.500 L 840.179 694.500 L 840.179 704.500 L 845.953 704.500 L 848.840 709.500 L 851.726 714.500 L 857.500 714.500 L 857.500 724.500 L 866.160 729.500 L 869.047 724.500 L 866.160 719.500 L 874.820 714.500 L 874.820 704.500 L 880.594 704.500 L 883.481 699.500 L 874.820 694.500 L 874.820 684.500 L 869.047 684.500 L 866.160 679.500 L 857.500 684.500 L 857.500 674.500 L 851.726 674.500 L 848.840 679.500 L 840.179 674.500 L 831.519 679.500 Z M 851.726 694.500 L 848.840 689.500 L 857.500 684.500 L 857.500 694.500 Z " fill="#dddddd" stroke="black" stroke-width="1.50" fill-rule="evenodd"/>
<path d="M 961.999 704.500 L 959.112 709.500 L 967.772 714.500 L 976.432 709.500 L 979.319 714.500 L 985.093 714.500 L 990.866 714.500 L 993.753 719.500 L 1002.413 714.500 L 1011.073 719.500 L 1013.960 714.500 L 1019.734 714.500 L 1019.734 704.500 L 1011.073 699.500 L 1013.960 694.500 L 1011.073 689.500 L 1008.187 684.500 L 1002.413 684.500 L 996.640 684.500 L 993.753 689.500 L 985.093 684.500 L 976.432 689.500 L 967.772 694.500 L 967.772 704.500 Z " fill="#dddddd" stroke="black" stroke-width="1.50" fill-rule="evenodd"/>
<path d="M 1093.922 702.000 L 1096.809 707.000 L 1099.695 712.000 L 1105.469 712.000 L 1105.469 722.000 L 1114.129 727.000 L 1117.016 722.000 L 1122.789 722.000 L 1128.563 722.000 L 1131.450 717.000 L 1140.110 722.000 L 1148.770 717.000 L 1145.883 712.000 L 1140.110 712.000 L 1140.110 702.000 L 1148.770 697.000 L 1145.883 692.000 L 1140.110 692.000 L 1140.110 682.000 L 1131.450 677.000 L 1128.563 682.000 L 1122.789 682.000 L 1122.789 692.000 L 1114.129 697.000 L 1105.469 702.000 L 1096.809 697.000 Z " fill="#dddddd" stroke="black" stroke-width="1.50" fill-rule="evenodd"/>
<path d="M 1225.845 699.500 L 1228.732 704.500 L 1231.618 709.500 L 1237.392 709.500 L 1237.392 719.500 L 1246.052 724.500 L 1248.939 719.500 L 1246.052 714.500 L 1254.712 709.500 L 1263.373 714.500 L 1260.486 719.500 L 1263.373 724.500 L 1266.259 729.500 L 1272.033 729.500 L 1272.033 719.500 L 1280.693 714.500 L 1277.806 709.500 L 1280.693 704.500 L 1272.033 699.500 L 1280.693 694.500 L 1277.806 689.500 L 1272.033 689.500 L 1272.033 679.500 L 1263.373 674.500 L 1260.486 679.500 L 1254.712 679.500 L 1254.712 689.500 L 1246.052 694.500 L 1237.392 699.500 L 1228.732 694.500 Z M 1260.486 699.500 L 1263.373 694.500 L 1272.033 699.500 L 1263.373 704.500 Z " fill="#dddddd" stroke="black" stroke-width="1.50" fill-rule="evenodd"/>
<path d="M 1356.324 702.000 L 1359.211 707.000 L 1362.098 712.000 L 1367.872 712.000 L 1367.872 722.000 L 1376.532 727.000 L 1379.419 722.000 L 1376.532 717.000 L 1385.192 712.000 L 1393.852 717.000 L 1390.966 722.000 L 1393.852 727.000 L 1402.513 722.000 L 1402.513 712.000 L 1408.286 712.000 L 1411.173 707.000 L 1414.060 702.000 L 1411.173 697.000 L 1408.286 692.000 L 1402.513 692.000 L 1402.513 682.000 L 1393.852 677.000 L 1390.966 682.000 L 1385.192 682.000 L 1385.192 692.000 L 1376.532 697.000 L 1367.872 702.000 L 1359.211 697.000 Z " fill="#dddddd" stroke="black" stroke-width="1.50" fill-rule="evenodd"/>
<path d="M 1489.691 699.500 L 1492.578 704.500 L 1495.464 709.500 L 1501.238 709.500 L 1501.238 719.500 L 1509.898 724.500 L 1518.558 729.500 L 1527.219 724.500 L 1530.105 729.500 L 1535.879 729.500 L 1535.879 719.500 L 1527.219 714.500 L 1530.105 709.500 L 1527.219 704.500 L 1524.332 699.500 L 1527.219 694.500 L 1535.879 699.500 L 1544.539 694.500 L 1541.652 689.500 L 1535.879 689.500 L 1535.879 679.500 L 1527.219 674.500 L 1524.332 679.500 L 1518.558 679.500 L 1518.558 689.500 L 1509.898 694.500 L 1501.238 699.500 L 1492.578 694.500 Z " fill="#dddddd" stroke="black" stroke-width="1.50" fill-rule="evenodd"/>
<path d="M 1634.604 692.000 L 1631.718 697.000 L 1640.378 702.000 L 1631.718 707.000 L 1634.604 712.000 L 1640.378 712.000 L 1640.378 722.000 L 1649.038 727.000 L 1651.925 722.000 L 1657.698 722.000 L 1657.698 712.000 L 1666.359 707.000 L 1663.472 702.000 L 1666.359 697.000 L 1657.698 692.000 L 1657.698 682.000 L 1651.925 682.000 L 1649.038 677.000 L 1640.378 682.000 L 1640.378 692.000 Z M 1651.925 702.000 L 1649.038 707.000 L 1640.378 702.000 L 1649.038 697.000 Z " fill="#dddddd" stroke="black" stroke-width="1.50" fill-rule="evenodd"/>
<path d="M 1757.867 699.500 L 1754.980 704.500 L 1763.641 709.500 L 1763.641 719.500 L 1769.414 719.500 L 1772.301 724.500 L 1780.961 719.500 L 1780.961 729.500 L 1786.735 729.500 L 1789.621 724.500 L 1798.282 729.500 L 1806.942 724.500 L 1804.055 719.500 L 1806.942 714.500 L 1798.282 709.500 L 1798.282 699.500 L 1798.282 689.500 L 1789.621 684.500 L 1792.508 679.500 L 1789.621 674.500 L 1780.961 679.500 L 1780.961 689.500 L 1775.188 689.500 L 1772.301 694.500 L 1769.414 699.500 L 1763.641 699.500 Z M 1786.735 709.500 L 1789.621 714.500 L 1780.961 719.500 L 1780.961 709.500 Z " fill="#dddddd" stroke="black" stroke-width="1.50" fill-rule="evenodd"/>
<path d="M 1885.460 702.000 L 1888.347 707.000 L 1891.234 712.000 L 1897.007 712.000 L 1897.007 722.000 L 1905.667 727.000 L 1908.554 722.000 L 1914.328 722.000 L 1920.101 722.000 L 1922.988 717.000 L 1931.648 722.000 L 1940.308 717.000 L 1937.422 712.000 L 1931.648 712.000 L 1931.648 702.000 L 1922.988 697.000 L 1914.328 692.000 L 1914.328 682.000 L 1908.554 682.000 L 1905.667 677.000 L 1897.007 682.000 L 1897.007 692.000 L 1891.234 692.000 L 1888.347 697.000 Z " fill="#dddddd" stroke="black" stroke-width="1.50" fill-rule="evenodd"/>
<path d="M 42.868 805.000 L 45.754 810.000 L 48.641 815.000 L 54.415 815.000 L 54.415 825.000 L 63.075 830.000 L 65.962 825.000 L 63.075 820.000 L 71.735 815.000 L 80.395 820.000 L 83.282 815.000 L 80.395 810.000 L 89.056 805.000 L 89.056 795.000 L 83.282 795.000 L 80.395 790.000 L 71.735 795.000 L 63.075 790.000 L 60.188 795.000 L 63.075 800.000 L 54.415 805.000 L 45.754 800.000 Z " fill="#dddddd" stroke="black" stroke-width="1.50" fill-rule="evenodd"/>
<path d="M 174.791 802.500 L 171.904 807.500 L 180.564 812.500 L 180.564 822.500 L 186.338 822.500 L 189.224 817.500 L 192.111 812.500 L 197.885 812.500 L 197.885 822.500 L 206.545 827.500 L 209.432 822.500 L 215.205 822.500 L 215.205 812.500 L 223.865 807.500 L 220.979 802.500 L 215.205 802.500 L 209.432 802.500 L 206.545 807.500 L 197.885 802.500 L 197.885 792.500 L 192.111 792.500 L 189.224 797.500 L 180.564 792.500 L 171.904 797.500 Z " fill="#dddddd" stroke="black" stroke-width="1.50" fill-rule="evenodd"/>
<path d="M 306.714 807.500 L 303.827 812.500 L 312.487 817.500 L 321.147 812.500 L 324.034 817.500 L 329.808 817.500 L 335.581 817.500 L 338.468 822.500 L 341.355 827.500 L 347.128 827.500 L 347.128 817.500 L 355.788 812.500 L 352.902 807.500 L 355.788 802.500 L 347.128 797.500 L 338.468 802.500 L 335.581 797.500 L 329.808 797.500 L 324.034 797.500 L 321.147 792.500 L 312.487 797.500 L 312.487 807.500 Z " fill="#dddddd" stroke="black" stroke-width="1.50" fill-rule="evenodd"/>
<path d="M 442.967 810.000 L 445.854 815.000 L 448.740 820.000 L 454.514 820.000 L 454.514 830.000 L 463.174 835.000 L 466.061 830.000 L 463.174 825.000 L 471.834 820.000 L 471.834 810.000 L 477.608 810.000 L 480.495 805.000 L 471.834 800.000 L 471.834 790.000 L 466.061 790.000 L 463.174 785.000 L 454.514 790.000 L 454.514 800.000 L 448.740 800.000 L 445.854 805.000 Z " fill="#dddddd" stroke="black" stroke-width="1.50" fill-rule="evenodd"/>
<path d="M 569.116 810.000 L 566.230 815.000 L 574.890 820.000 L 583.550 815.000 L 586.437 820.000 L 592.210 820.000 L 597.984 820.000 L 600.871 825.000 L 609.531 820.000 L 609.531 810.000 L 615.304 810.000 L 618.191 805.000 L 621.078 800.000 L 618.191 795.000 L 609.531 800.000 L 600.871 795.000 L 597.984 800.000 L 592.210 800.000 L 586.437 800.000 L 583.550 795.000 L 574.890 800.000 L 574.890 810.000 Z " fill="#dddddd" stroke="black" stroke-width="1.50" fill-rule="evenodd"/>
<path d="M 698.153 802.500 L 701.039 807.500 L 703.926 812.500 L 709.700 812.500 L 709.700 822.500 L 718.360 827.500 L 721.247 822.500 L 718.360 817.500 L 727.020 812.500 L 735.680 817.500 L 738.567 812.500 L 744.341 812.500 L 744.341 802.500 L 753.001 797.500 L 750.114 792.500 L 744.341 792.500 L 738.567 792.500 L 735.680 797.500 L 727.020 792.500 L 718.360 797.500 L 709.700 802.500 L 701.039 797.500 Z " fill="#dddddd" stroke="black" stroke-width="1.50" fill-rule="evenodd"/>
<path d="M 830.076 795.000 L 832.962 800.000 L 835.849 805.000 L 841.623 805.000 L 841.623 815.000 L 850.283 820.000 L 853.170 815.000 L 858.943 815.000 L 858.943 825.000 L 867.603 830.000 L 870.490 825.000 L 876.264 825.000 L 876.264 815.000 L 884.924 810.000 L 882.037 805.000 L 876.264 805.000 L 870.490 805.000 L 867.603 810.000 L 858.943 805.000 L 858.943 795.000 L 853.170 795.000 L 850.283 790.000 L 841.623 795.000 L 832.962 790.000 Z " fill="#dddddd" stroke="black" stroke-width="1.50" fill-rule="evenodd"/>
<path d="M 966.329 815.000 L 963.442 820.000 L 972.102 825.000 L 980.763 820.000 L 983.649 825.000 L 989.423 825.000 L 995.196 825.000 L 998.083 820.000 L 1000.970 815.000 L 1006.743 815.000 L 1006.743 805.000 L 1015.404 800.000 L 1012.517 795.000 L 1006.743 795.000 L 1000.970 795.000 L 998.083 800.000 L 989.423 795.000 L 980.763 800.000 L 972.102 805.000 L 972.102 815.000 Z " fill="#dddddd" stroke="black" stroke-width="1.50" fill-rule="evenodd"/>
<path d="M 1093.922 795.000 L 1096.809 800.000 L 1099.695 805.000 L 1105.469 805.000 L 1105.469 815.000 L 1114.129 820.000 L 1117.016 815.000 L 1122.789 815.000 L 1122.789 825.000 L 1131.450 830.000 L 1134.336 825.000 L 1140.110 825.000 L 1140.110 815.000 L 1148.770 810.000 L 1145.883 805.000 L 1140.110 805.000 L 1134.336 805.000 L 1131.450 810.000 L 1122.789 805.000 L 1122.789 795.000 L 1117.016 795.000 L 1114.129 790.000 L 1105.469 795.000 L 1096.809 790.000 Z " fill="#dddddd" stroke="black" stroke-width="1.50" fill-rule="evenodd"/>
<path d="M 1230.175 802.500 L 1227.288 807.500 L 1235.948 812.500 L 1235.948 822.500 L 1241.722 822.500 L 1244.609 817.500 L 1247.495 812.500 L 1253.269 812.500 L 1253.269 822.500 L 1261.929 827.500 L 1264.816 822.500 L 1270.589 822.500 L 1270.589 812.500 L 1279.250 807.500 L 1276.363 802.500 L 1270.589 802.500 L 1264.816 802.500 L 1261.929 807.500 L 1253.269 802.500 L 1253.269 792.500 L 1247.495 792.500 L 1244.609 797.500 L 1235.948 792.500 L 1227.288 797.500 Z " fill="#dddddd" stroke="black" stroke-width="1.50" fill-rule="evenodd"/>
<path d="M 1362.098 797.500 L 1359.211 802.500 L 1367.872 807.500 L 1367.872 817.500 L 1362.098 817.500 L 1359.211 822.500 L 1367.872 827.500 L 1376.532 822.500 L 1379.419 827.500 L 1385.192 827.500 L 1390.966 827.500 L 1393.852 832.500 L 1396.739 837.500 L 1402.513 837.500 L 1402.513 827.500 L 1411.173 822.500 L 1408.286 817.500 L 1411.173 812.500 L 1402.513 807.500 L 1393.852 812.500 L 1390.966 807.500 L 1393.852 802.500 L 1385.192 797.500 L 1385.192 787.500 L 1379.419 787.500 L 1376.532 782.500 L 1367.872 787.500 L 1367.872 797.500 Z " fill="#dddddd" stroke="black" stroke-width="1.50" fill-rule="evenodd"/>
<path d="M 1494.021 807.500 L 1491.134 812.500 L 1499.795 817.500 L 1499.795 827.500 L 1505.568 827.500 L 1508.455 832.500 L 1517.115 827.500 L 1517.115 837.500 L 1522.889 837.500 L 1525.775 832.500 L 1534.436 837.500 L 1543.096 832.500 L 1540.209 827.500 L 1543.096 822.500 L 1534.436 817.500 L 1534.436 807.500 L 1534.436 797.500 L 1525.775 792.500 L 1528.662 787.500 L 1525.775 782.500 L 1517.115 787.500 L 1517.115 797.500 L 1511.342 797.500 L 1508.455 802.500 L 1505.568 807.500 L 1499.795 807.500 Z M 1522.889 817.500 L 1525.775 822.500 L 1517.115 827.500 L 1517.115 817.500 Z " fill="#dddddd" stroke="black" stroke-width="1.50" fill-rule="evenodd"/>
<path d="M 1617.284 802.500 L 1614.397 807.500 L 1623.057 812.500 L 1631.718 807.500 L 1634.604 812.500 L 1640.378 812.500 L 1646.151 812.500 L 1649.038 817.500 L 1640.378 822.500 L 1640.378 832.500 L 1646.151 832.500 L 1649.038 837.500 L 1657.698 832.500 L 1666.359 837.500 L 1669.245 832.500 L 1666.359 827.500 L 1663.472 822.500 L 1657.698 822.500 L 1657.698 812.500 L 1666.359 807.500 L 1669.245 812.500 L 1675.019 812.500 L 1680.792 812.500 L 1683.679 807.500 L 1675.019 802.500 L 1675.019 792.500 L 1669.245 792.500 L 1666.359 787.500 L 1663.472 782.500 L 1657.698 782.500 L 1651.925 782.500 L 1649.038 787.500 L 1640.378 782.500 L 1631.718 787.500 L 1623.057 792.500 L 1623.057 802.500 Z " fill="#dddddd" stroke="black" stroke-width="1.50" fill-rule="evenodd"/>
<path d="M 1749.207 805.000 L 1746.320 810.000 L 1754.980 815.000 L 1763.641 810.000 L 1766.527 815.000 L 1772.301 815.000 L 1778.074 815.000 L 1780.961 820.000 L 1772.301 825.000 L 1772.301 835.000 L 1778.074 835.000 L 1780.961 840.000 L 1789.621 835.000 L 1798.282 840.000 L 1801.168 835.000 L 1798.282 830.000 L 1795.395 825.000 L 1789.621 825.000 L 1789.621 815.000 L 1798.282 810.000 L 1801.168 815.000 L 1806.942 815.000 L 1812.715 815.000 L 1815.602 810.000 L 1806.942 805.000 L 1806.942 795.000 L 1801.168 795.000 L 1798.282 790.000 L 1789.621 795.000 L 1789.621 785.000 L 1783.848 785.000 L 1780.961 780.000 L 1772.301 785.000 L 1763.641 780.000 L 1760.754 785.000 L 1763.641 790.000 L 1754.980 795.000 L 1754.980 805.000 Z M 1783.848 805.000 L 1780.961 800.000 L 1789.621 795.000 L 1789.621 805.000 Z " fill="#dddddd" stroke="black" stroke-width="1.50" fill-rule="evenodd"/>
<path d="M 1888.347 797.500 L 1882.573 797.500 L 1882.573 807.500 L 1891.234 812.500 L 1888.347 817.500 L 1891.234 822.500 L 1894.120 827.500 L 1891.234 832.500 L 1899.894 837.500 L 1908.554 832.500 L 1911.441 837.500 L 1917.214 837.500 L 1922.988 837.500 L 1925.875 832.500 L 1928.761 827.500 L 1934.535 827.500 L 1934.535 817.500 L 1943.195 812.500 L 1940.308 807.500 L 1934.535 807.500 L 1928.761 807.500 L 1925.875 812.500 L 1917.214 807.500 L 1917.214 797.500 L 1922.988 797.500 L 1925.875 792.500 L 1928.761 787.500 L 1925.875 782.500 L 1917.214 787.500 L 1908.554 782.500 L 1905.667 787.500 L 1899.894 787.500 L 1899.894 797.500 L 1891.234 802.500 Z " fill="#dddddd" stroke="black" stroke-width="1.50" fill-rule="evenodd"/>
<path d="M 41.424 910.500 L 35.651 910.500 L 35.651 920.500 L 44.311 925.500 L 41.424 930.500 L 44.311 935.500 L 47.198 940.500 L 52.971 940.500 L 58.745 940.500 L 61.631 945.500 L 70.292 940.500 L 78.952 945.500 L 81.839 940.500 L 78.952 935.500 L 76.065 930.500 L 70.292 930.500 L 70.292 920.500 L 78.952 915.500 L 81.839 920.500 L 87.612 920.500 L 93.386 920.500 L 96.272 915.500 L 87.612 910.500 L 87.612 900.500 L 81.839 900.500 L 78.952 895.500 L 76.065 890.500 L 70.292 890.500 L 64.518 890.500 L 61.631 895.500 L 52.971 890.500 L 44.311 895.500 L 47.198 900.500 L 52.971 900.500 L 52.971 910.500 L 44.311 915.500 Z " fill="#dddddd" stroke="black" stroke-width="1.50" fill-rule="evenodd"/>
<path d="M 166.130 910.500 L 163.244 915.500 L 171.904 920.500 L 180.564 915.500 L 183.451 920.500 L 189.224 920.500 L 194.998 920.500 L 197.885 925.500 L 189.224 930.500 L 189.224 940.500 L 194.998 940.500 L 197.885 945.500 L 206.545 940.500 L 215.205 945.500 L 218.092 940.500 L 215.205 935.500 L 212.318 930.500 L 206.545 930.500 L 206.545 920.500 L 215.205 915.500 L 218.092 920.500 L 223.865 920.500 L 229.639 920.500 L 232.526 915.500 L 223.865 910.500 L 223.865 900.500 L 218.092 900.500 L 215.205 895.500 L 212.318 890.500 L 206.545 890.500 L 200.771 890.500 L 197.885 895.500 L 189.224 890.500 L 180.564 895.500 L 171.904 900.500 L 171.904 910.500 Z " fill="#dddddd" stroke="black" stroke-width="1.50" fill-rule="evenodd"/>
<path d="M 298.053 910.500 L 295.167 915.500 L 303.827 920.500 L 303.827 930.500 L 309.600 930.500 L 312.487 935.500 L 321.147 930.500 L 321.147 940.500 L 326.921 940.500 L 329.808 945.500 L 338.468 940.500 L 347.128 945.500 L 350.015 940.500 L 347.128 935.500 L 344.241 930.500 L 338.468 930.500 L 338.468 920.500 L 347.128 915.500 L 350.015 920.500 L 355.788 920.500 L 361.562 920.500 L 364.449 915.500 L 355.788 910.500 L 355.788 900.500 L 350.015 900.500 L 347.128 895.500 L 344.241 890.500 L 338.468 890.500 L 332.694 890.500 L 329.808 895.500 L 321.147 890.500 L 312.487 895.500 L 315.374 900.500 L 321.147 900.500 L 321.147 910.500 L 312.487 915.500 L 309.600 910.500 L 303.827 910.500 Z M 326.921 920.500 L 329.808 925.500 L 321.147 930.500 L 321.147 920.500 Z " fill="#dddddd" stroke="black" stroke-width="1.50" fill-rule="evenodd"/>
<path d="M 429.976 913.000 L 427.090 918.000 L 435.750 923.000 L 435.750 933.000 L 441.523 933.000 L 444.410 938.000 L 453.070 933.000 L 453.070 943.000 L 458.844 943.000 L 461.731 948.000 L 470.391 943.000 L 479.051 948.000 L 481.938 943.000 L 479.051 938.000 L 476.164 933.000 L 470.391 933.000 L 470.391 923.000 L 479.051 918.000 L 481.938 923.000 L 487.711 923.000 L 493.485 923.000 L 496.372 918.000 L 487.711 913.000 L 487.711 903.000 L 481.938 903.000 L 479.051 898.000 L 470.391 903.000 L 461.731 898.000 L 464.617 893.000 L 461.731 888.000 L 453.070 893.000 L 453.070 903.000 L 447.297 903.000 L 444.410 908.000 L 441.523 913.000 L 435.750 913.000 Z M 458.844 923.000 L 461.731 928.000 L 453.070 933.000 L 453.070 923.000 Z " fill="#dddddd" stroke="black" stroke-width="1.50" fill-rule="evenodd"/>
<path d="M 561.899 910.500 L 559.013 915.500 L 567.673 920.500 L 567.673 930.500 L 573.446 930.500 L 576.333 935.500 L 584.993 930.500 L 584.993 940.500 L 590.767 940.500 L 593.654 945.500 L 602.314 940.500 L 610.974 945.500 L 613.861 940.500 L 610.974 935.500 L 608.087 930.500 L 602.314 930.500 L 602.314 920.500 L 610.974 915.500 L 613.861 920.500 L 619.634 920.500 L 625.408 920.500 L 628.295 915.500 L 619.634 910.500 L 619.634 900.500 L 613.861 900.500 L 610.974 895.500 L 608.087 890.500 L 602.314 890.500 L 596.540 890.500 L 593.654 895.500 L 584.993 890.500 L 576.333 895.500 L 579.220 900.500 L 584.993 900.500 L 584.993 910.500 L 576.333 915.500 L 573.446 910.500 L 567.673 910.500 Z M 590.767 920.500 L 593.654 925.500 L 584.993 930.500 L 584.993 920.500 Z " fill="#dddddd" stroke="black" stroke-width="1.50" fill-rule="evenodd"/>
<path d="M 693.823 913.000 L 690.936 918.000 L 699.596 923.000 L 708.256 918.000 L 711.143 923.000 L 716.917 923.000 L 722.690 923.000 L 725.577 928.000 L 716.917 933.000 L 716.917 943.000 L 722.690 943.000 L 725.577 948.000 L 734.237 943.000 L 742.897 948.000 L 745.784 943.000 L 742.897 938.000 L 740.011 933.000 L 734.237 933.000 L 734.237 923.000 L 742.897 918.000 L 745.784 923.000 L 751.558 923.000 L 757.331 923.000 L 760.218 918.000 L 751.558 913.000 L 751.558 903.000 L 745.784 903.000 L 742.897 898.000 L 734.237 903.000 L 734.237 893.000 L 728.464 893.000 L 725.577 888.000 L 716.917 893.000 L 708.256 888.000 L 705.370 893.000 L 708.256 898.000 L 699.596 903.000 L 699.596 913.000 Z M 728.464 913.000 L 725.577 908.000 L 734.237 903.000 L 734.237 913.000 Z " fill="#dddddd" stroke="black" stroke-width="1.50" fill-rule="evenodd"/>
<path d="M 825.746 913.000 L 822.859 918.000 L 831.519 923.000 L 831.519 933.000 L 837.293 933.000 L 840.179 938.000 L 848.840 933.000 L 848.840 943.000 L 854.613 943.000 L 857.500 948.000 L 866.160 943.000 L 874.820 948.000 L 877.707 943.000 L 874.820 938.000 L 871.934 933.000 L 866.160 933.000 L 866.160 923.000 L 874.820 918.000 L 877.707 923.000 L 883.481 923.000 L 889.254 923.000 L 892.141 918.000 L 883.481 913.000 L 883.481 903.000 L 877.707 903.000 L 874.820 898.000 L 866.160 903.000 L 866.160 893.000 L 860.387 893.000 L 857.500 888.000 L 848.840 893.000 L 840.179 888.000 L 837.293 893.000 L 840.179 898.000 L 843.066 903.000 L 848.840 903.000 L 848.840 913.000 L 840.179 918.000 L 837.293 913.000 L 831.519 913.000 Z M 854.613 923.000 L 857.500 928.000 L 848.840 933.000 L 848.840 923.000 Z M 860.387 913.000 L 857.500 908.000 L 866.160 903.000 L 866.160 913.000 Z " fill="#dddddd" stroke="black" stroke-width="1.50" fill-rule="evenodd"/>
<path d="M 964.885 908.000 L 959.112 908.000 L 959.112 918.000 L 967.772 923.000 L 964.885 928.000 L 967.772 933.000 L 976.432 928.000 L 976.432 938.000 L 982.206 938.000 L 985.093 943.000 L 993.753 938.000 L 1002.413 943.000 L 1005.300 938.000 L 1002.413 933.000 L 999.526 928.000 L 993.753 928.000 L 993.753 918.000 L 1002.413 913.000 L 1005.300 918.000 L 1011.073 918.000 L 1016.847 918.000 L 1019.734 913.000 L 1011.073 908.000 L 1011.073 898.000 L 1005.300 898.000 L 1002.413 893.000 L 993.753 898.000 L 993.753 908.000 L 987.979 908.000 L 985.093 903.000 L 976.432 908.000 L 967.772 903.000 Z M 982.206 918.000 L 985.093 923.000 L 976.432 928.000 L 976.432 918.000 Z " fill="#dddddd" stroke="black" stroke-width="1.50" fill-rule="evenodd"/>
<path d="M 1096.809 908.000 L 1091.035 908.000 L 1091.035 918.000 L 1099.695 923.000 L 1096.809 928.000 L 1099.695 933.000 L 1108.356 928.000 L 1108.356 938.000 L 1114.129 938.000 L 1117.016 943.000 L 1125.676 938.000 L 1134.336 943.000 L 1137.223 938.000 L 1134.336 933.000 L 1131.450 928.000 L 1125.676 928.000 L 1125.676 918.000 L 1134.336 913.000 L 1137.223 918.000 L 1142.997 918.000 L 1148.770 918.000 L 1151.657 913.000 L 1142.997 908.000 L 1142.997 898.000 L 1137.223 898.000 L 1134.336 893.000 L 1125.676 898.000 L 1125.676 908.000 L 1119.903 908.000 L 1117.016 903.000 L 1108.356 908.000 L 1099.695 903.000 Z M 1114.129 918.000 L 1117.016 923.000 L 1108.356 928.000 L 1108.356 918.000 Z " fill="#dddddd" stroke="black" stroke-width="1.50" fill-rule="evenodd"/>
<path d="M 1228.732 905.500 L 1222.958 905.500 L 1222.958 915.500 L 1231.618 920.500 L 1228.732 925.500 L 1231.618 930.500 L 1234.505 935.500 L 1231.618 940.500 L 1240.279 945.500 L 1248.939 940.500 L 1251.826 945.500 L 1257.599 945.500 L 1263.373 945.500 L 1266.259 940.500 L 1269.146 935.500 L 1274.920 935.500 L 1274.920 925.500 L 1283.580 920.500 L 1280.693 915.500 L 1274.920 915.500 L 1269.146 915.500 L 1266.259 920.500 L 1257.599 915.500 L 1257.599 905.500 L 1263.373 905.500 L 1266.259 900.500 L 1269.146 895.500 L 1266.259 890.500 L 1257.599 895.500 L 1248.939 890.500 L 1246.052 895.500 L 1240.279 895.500 L 1240.279 905.500 L 1231.618 910.500 Z " fill="#dddddd" stroke="black" stroke-width="1.50" fill-rule="evenodd"/>
<path d="M 1353.438 913.000 L 1350.551 918.000 L 1359.211 923.000 L 1359.211 933.000 L 1364.985 933.000 L 1367.872 938.000 L 1376.532 933.000 L 1376.532 943.000 L 1382.305 943.000 L 1385.192 948.000 L 1393.852 943.000 L 1402.513 948.000 L 1405.399 943.000 L 1402.513 938.000 L 1399.626 933.000 L 1393.852 933.000 L 1393.852 923.000 L 1402.513 918.000 L 1405.399 923.000 L 1411.173 923.000 L 1416.946 923.000 L 1419.833 918.000 L 1411.173 913.000 L 1411.173 903.000 L 1405.399 903.000 L 1402.513 898.000 L 1393.852 903.000 L 1385.192 898.000 L 1388.079 893.000 L 1385.192 888.000 L 1376.532 893.000 L 1376.532 903.000 L 1370.758 903.000 L 1367.872 908.000 L 1364.985 913.000 L 1359.211 913.000 Z M 1382.305 923.000 L 1385.192 928.000 L 1376.532 933.000 L 1376.532 923.000 Z " fill="#dddddd" stroke="black" stroke-width="1.50" fill-rule="evenodd"/>
<path d="M 1485.361 913.000 L 1482.474 918.000 L 1491.134 923.000 L 1499.795 918.000 L 1502.681 923.000 L 1508.455 923.000 L 1508.455 933.000 L 1499.795 938.000 L 1502.681 943.000 L 1508.455 943.000 L 1514.228 943.000 L 1517.115 938.000 L 1525.775 943.000 L 1534.436 938.000 L 1531.549 933.000 L 1525.775 933.000 L 1525.775 923.000 L 1534.436 918.000 L 1537.322 923.000 L 1543.096 923.000 L 1548.869 923.000 L 1551.756 918.000 L 1543.096 913.000 L 1543.096 903.000 L 1537.322 903.000 L 1534.436 898.000 L 1531.549 893.000 L 1525.775 893.000 L 1520.002 893.000 L 1517.115 898.000 L 1508.455 893.000 L 1499.795 898.000 L 1491.134 903.000 L 1491.134 913.000 Z " fill="#dddddd" stroke="black" stroke-width="1.50" fill-rule="evenodd"/>
<path d="M 1617.284 910.500 L 1614.397 915.500 L 1623.057 920.500 L 1623.057 930.500 L 1628.831 930.500 L 1631.718 935.500 L 1640.378 930.500 L 1640.378 940.500 L 1646.151 940.500 L 1649.038 945.500 L 1657.698 940.500 L 1666.359 945.500 L 1669.245 940.500 L 1666.359 935.500 L 1675.019 930.500 L 1675.019 920.500 L 1680.792 920.500 L 1683.679 915.500 L 1675.019 910.500 L 1666.359 915.500 L 1663.472 910.500 L 1657.698 910.500 L 1657.698 900.500 L 1666.359 895.500 L 1663.472 890.500 L 1657.698 890.500 L 1651.925 890.500 L 1649.038 895.500 L 1640.378 890.500 L 1631.718 895.500 L 1634.604 900.500 L 1640.378 900.500 L 1640.378 910.500 L 1631.718 915.500 L 1628.831 910.500 L 1623.057 910.500 Z M 1646.151 920.500 L 1649.038 925.500 L 1640.378 930.500 L 1640.378 920.500 Z " fill="#dddddd" stroke="black" stroke-width="1.50" fill-rule="evenodd"/>
<path d="M 1749.207 915.500 L 1746.320 920.500 L 1754.980 925.500 L 1754.980 935.500 L 1760.754 935.500 L 1763.641 940.500 L 1766.527 945.500 L 1772.301 945.500 L 1778.074 945.500 L 1780.961 940.500 L 1789.621 945.500 L 1798.282 940.500 L 1795.395 935.500 L 1789.621 935.500 L 1789.621 925.500 L 1798.282 920.500 L 1801.168 925.500 L 1806.942 925.500 L 1812.715 925.500 L 1815.602 920.500 L 1806.942 915.500 L 1806.942 905.500 L 1801.168 905.500 L 1798.282 900.500 L 1789.621 905.500 L 1780.961 900.500 L 1783.848 895.500 L 1780.961 890.500 L 1772.301 895.500 L 1772.301 905.500 L 1766.527 905.500 L 1763.641 910.500 L 1760.754 915.500 L 1754.980 915.500 Z " fill="#dddddd" stroke="black" stroke-width="1.50" fill-rule="evenodd"/>
<path d="M 1881.130 913.000 L 1878.243 918.000 L 1886.903 923.000 L 1886.903 933.000 L 1892.677 933.000 L 1895.564 938.000 L 1898.450 943.000 L 1904.224 943.000 L 1909.997 943.000 L 1912.884 938.000 L 1921.544 943.000 L 1930.205 938.000 L 1927.318 933.000 L 1921.544 933.000 L 1921.544 923.000 L 1930.205 918.000 L 1933.091 923.000 L 1938.865 923.000 L 1944.638 923.000 L 1947.525 918.000 L 1938.865 913.000 L 1938.865 903.000 L 1933.091 903.000 L 1930.205 898.000 L 1927.318 893.000 L 1921.544 893.000 L 1915.771 893.000 L 1912.884 898.000 L 1904.224 893.000 L 1895.564 898.000 L 1898.450 903.000 L 1904.224 903.000 L 1904.224 913.000 L 1895.564 918.000 L 1892.677 913.000 L 1886.903 913.000 Z " fill="#dddddd" stroke="black" stroke-width="1.50" fill-rule="evenodd"/>
<path d="M 34.207 1018.500 L 31.321 1023.500 L 39.981 1028.500 L 39.981 1038.500 L 45.754 1038.500 L 48.641 1043.500 L 57.301 1038.500 L 57.301 1028.500 L 63.075 1028.500 L 65.962 1033.500 L 68.848 1038.500 L 74.622 1038.500 L 74.622 1048.500 L 83.282 1053.500 L 86.169 1048.500 L 83.282 1043.500 L 91.942 1038.500 L 91.942 1028.500 L 97.716 1028.500 L 100.603 1023.500 L 91.942 1018.500 L 91.942 1008.500 L 86.169 1008.500 L 83.282 1003.500 L 80.395 998.500 L 74.622 998.500 L 68.848 998.500 L 65.962 1003.500 L 57.301 998.500 L 48.641 1003.500 L 51.528 1008.500 L 57.301 1008.500 L 57.301 1018.500 L 48.641 1023.500 L 45.754 1018.500 L 39.981 1018.500 Z " fill="#dddddd" stroke="black" stroke-width="1.50" fill-rule="evenodd"/>
<path d="M 166.130 1018.500 L 163.244 1023.500 L 171.904 1028.500 L 171.904 1038.500 L 177.677 1038.500 L 180.564 1043.500 L 189.224 1038.500 L 189.224 1048.500 L 194.998 1048.500 L 197.885 1053.500 L 206.545 1048.500 L 215.205 1053.500 L 218.092 1048.500 L 215.205 1043.500 L 212.318 1038.500 L 206.545 1038.500 L 206.545 1028.500 L 215.205 1023.500 L 218.092 1028.500 L 223.865 1028.500 L 229.639 1028.500 L 232.526 1023.500 L 223.865 1018.500 L 223.865 1008.500 L 218.092 1008.500 L 215.205 1003.500 L 212.318 998.500 L 206.545 998.500 L 200.771 998.500 L 197.885 1003.500 L 189.224 998.500 L 180.564 1003.500 L 183.451 1008.500 L 189.224 1008.500 L 189.224 1018.500 L 180.564 1023.500 L 177.677 1018.500 L 171.904 1018.500 Z M 194.998 1028.500 L 197.885 1033.500 L 189.224 1038.500 L 189.224 1028.500 Z " fill="#dddddd" stroke="black" stroke-width="1.50" fill-rule="evenodd"/>
<path d="M 302.383 1023.500 L 305.270 1028.500 L 308.157 1033.500 L 313.930 1033.500 L 313.930 1043.500 L 322.591 1048.500 L 325.477 1043.500 L 322.591 1038.500 L 331.251 1033.500 L 339.911 1038.500 L 337.024 1043.500 L 339.911 1048.500 L 342.798 1053.500 L 348.572 1053.500 L 348.572 1043.500 L 357.232 1038.500 L 354.345 1033.500 L 357.232 1028.500 L 348.572 1023.500 L 339.911 1028.500 L 337.024 1023.500 L 339.911 1018.500 L 331.251 1013.500 L 331.251 1003.500 L 325.477 1003.500 L 322.591 998.500 L 313.930 1003.500 L 313.930 1013.500 L 308.157 1013.500 L 305.270 1018.500 Z " fill="#dddddd" stroke="black" stroke-width="1.50" fill-rule="evenodd"/>
<path d="M 434.307 1023.500 L 437.193 1028.500 L 440.080 1033.500 L 445.854 1033.500 L 445.854 1043.500 L 454.514 1048.500 L 457.401 1043.500 L 454.514 1038.500 L 463.174 1033.500 L 471.834 1038.500 L 468.948 1043.500 L 471.834 1048.500 L 474.721 1053.500 L 480.495 1053.500 L 480.495 1043.500 L 489.155 1038.500 L 486.268 1033.500 L 489.155 1028.500 L 480.495 1023.500 L 489.155 1018.500 L 486.268 1013.500 L 480.495 1013.500 L 480.495 1003.500 L 471.834 998.500 L 468.948 1003.500 L 463.174 1003.500 L 463.174 1013.500 L 454.514 1018.500 L 445.854 1023.500 L 437.193 1018.500 Z M 468.948 1023.500 L 471.834 1018.500 L 480.495 1023.500 L 471.834 1028.500 Z " fill="#dddddd" stroke="black" stroke-width="1.50" fill-rule="evenodd"/>
<path d="M 561.899 1018.500 L 559.013 1023.500 L 567.673 1028.500 L 576.333 1023.500 L 579.220 1028.500 L 584.993 1028.500 L 590.767 1028.500 L 593.654 1033.500 L 596.540 1038.500 L 602.314 1038.500 L 602.314 1048.500 L 610.974 1053.500 L 613.861 1048.500 L 610.974 1043.500 L 619.634 1038.500 L 619.634 1028.500 L 625.408 1028.500 L 628.295 1023.500 L 619.634 1018.500 L 619.634 1008.500 L 613.861 1008.500 L 610.974 1003.500 L 608.087 998.500 L 602.314 998.500 L 596.540 998.500 L 593.654 1003.500 L 584.993 998.500 L 576.333 1003.500 L 567.673 1008.500 L 567.673 1018.500 Z " fill="#dddddd" stroke="black" stroke-width="1.50" fill-rule="evenodd"/>
<path d="M 693.823 1031.000 L 699.596 1031.000 L 699.596 1041.000 L 708.256 1046.000 L 705.370 1051.000 L 708.256 1056.000 L 716.917 1051.000 L 725.577 1056.000 L 728.464 1051.000 L 734.237 1051.000 L 734.237 1041.000 L 742.897 1046.000 L 745.784 1041.000 L 751.558 1041.000 L 751.558 1031.000 L 760.218 1026.000 L 757.331 1021.000 L 751.558 1021.000 L 751.558 1011.000 L 742.897 1006.000 L 745.784 1001.000 L 742.897 996.000 L 734.237 1001.000 L 734.237 1011.000 L 728.464 1011.000 L 725.577 1016.000 L 722.690 1021.000 L 716.917 1021.000 L 711.143 1021.000 L 708.256 1026.000 L 699.596 1021.000 L 690.936 1026.000 Z M 728.464 1031.000 L 734.237 1031.000 L 734.237 1041.000 L 725.577 1036.000 Z " fill="#dddddd" stroke="black" stroke-width="1.50" fill-rule="evenodd"/>
<path d="M 825.746 1021.000 L 822.859 1026.000 L 831.519 1031.000 L 831.519 1041.000 L 837.293 1041.000 L 840.179 1046.000 L 848.840 1041.000 L 848.840 1031.000 L 854.613 1031.000 L 857.500 1036.000 L 860.387 1041.000 L 866.160 1041.000 L 866.160 1051.000 L 874.820 1056.000 L 877.707 1051.000 L 874.820 1046.000 L 883.481 1041.000 L 883.481 1031.000 L 889.254 1031.000 L 892.141 1026.000 L 883.481 1021.000 L 883.481 1011.000 L 877.707 1011.000 L 874.820 1006.000 L 866.160 1011.000 L 857.500 1006.000 L 860.387 1001.000 L 857.500 996.000 L 848.840 1001.000 L 848.840 1011.000 L 843.066 1011.000 L 840.179 1016.000 L 837.293 1021.000 L 831.519 1021.000 Z " fill="#dddddd" stroke="black" stroke-width="1.50" fill-rule="evenodd"/>
<path d="M 957.669 1018.500 L 954.782 1023.500 L 963.442 1028.500 L 963.442 1038.500 L 969.216 1038.500 L 972.102 1043.500 L 980.763 1038.500 L 980.763 1028.500 L 986.536 1028.500 L 989.423 1033.500 L 992.310 1038.500 L 998.083 1038.500 L 998.083 1048.500 L 1006.743 1053.500 L 1009.630 1048.500 L 1006.743 1043.500 L 1015.404 1038.500 L 1015.404 1028.500 L 1021.177 1028.500 L 1024.064 1023.500 L 1015.404 1018.500 L 1015.404 1008.500 L 1009.630 1008.500 L 1006.743 1003.500 L 1003.857 998.500 L 998.083 998.500 L 992.310 998.500 L 989.423 1003.500 L 980.763 998.500 L 972.102 1003.500 L 974.989 1008.500 L 980.763 1008.500 L 980.763 1018.500 L 972.102 1023.500 L 969.216 1018.500 L 963.442 1018.500 Z " fill="#dddddd" stroke="black" stroke-width="1.50" fill-rule="evenodd"/>
<path d="M 1089.592 1021.000 L 1086.705 1026.000 L 1095.365 1031.000 L 1104.025 1026.000 L 1106.912 1031.000 L 1112.686 1031.000 L 1118.459 1031.000 L 1121.346 1036.000 L 1112.686 1041.000 L 1112.686 1051.000 L 1118.459 1051.000 L 1121.346 1056.000 L 1130.006 1051.000 L 1138.666 1056.000 L 1141.553 1051.000 L 1138.666 1046.000 L 1147.327 1041.000 L 1147.327 1031.000 L 1153.100 1031.000 L 1155.987 1026.000 L 1147.327 1021.000 L 1138.666 1026.000 L 1135.780 1021.000 L 1130.006 1021.000 L 1124.233 1021.000 L 1121.346 1016.000 L 1130.006 1011.000 L 1130.006 1001.000 L 1124.233 1001.000 L 1121.346 996.000 L 1112.686 1001.000 L 1104.025 996.000 L 1101.139 1001.000 L 1104.025 1006.000 L 1095.365 1011.000 L 1095.365 1021.000 Z " fill="#dddddd" stroke="black" stroke-width="1.50" fill-rule="evenodd"/>
</svg>
