<svg xmlns="http://www.w3.org/2000/svg" width="701" height="440" viewBox="0 0 701 440">
<rect width="100%" height="100%" fill="white"/>
<path d="M 22.660 34.000 L 19.774 39.000 L 28.434 44.000 L 37.094 39.000 L 39.981 44.000 L 37.094 49.000 L 45.754 54.000 L 45.754 64.000 L 51.528 64.000 L 54.415 69.000 L 63.075 64.000 L 63.075 54.000 L 68.848 54.000 L 71.735 49.000 L 74.622 44.000 L 80.395 44.000 L 80.395 34.000 L 71.735 29.000 L 74.622 24.000 L 71.735 19.000 L 63.075 24.000 L 63.075 34.000 L 57.301 34.000 L 54.415 39.000 L 45.754 34.000 L 45.754 24.000 L 39.981 24.000 L 37.094 19.000 L 28.434 24.000 L 28.434 34.000 Z " fill="#dddddd" stroke="black" stroke-width="1.50" fill-rule="evenodd"/>
<path d="M 80.395 34.000 L 80.395 44.000 L 74.622 44.000 L 71.735 49.000 L 63.075 44.000 L 54.415 49.000 L 51.528 44.000 L 54.415 39.000 L 57.301 34.000 L 63.075 34.000 L 63.075 24.000 L 71.735 19.000 L 74.622 24.000 L 71.735 29.000 Z " fill="#d9e9f7" stroke="#666666" stroke-width="0.80" fill-rule="evenodd"/>
<path d="M 51.528 64.000 L 45.754 64.000 L 45.754 54.000 L 37.094 49.000 L 39.981 44.000 L 45.754 44.000 L 51.528 44.000 L 54.415 49.000 L 63.075 44.000 L 71.735 49.000 L 68.848 54.000 L 63.075 54.000 L 63.075 64.000 L 54.415 69.000 Z " fill="#d9e9f7" stroke="#666666" stroke-width="0.80" fill-rule="evenodd"/>
<path d="M 39.981 44.000 L 37.094 39.000 L 28.434 44.000 L 19.774 39.000 L 22.660 34.000 L 28.434 34.000 L 28.434 24.000 L 37.094 19.000 L 39.981 24.000 L 45.754 24.000 L 45.754 34.000 L 54.415 39.000 L 51.528 44.000 L 45.754 44.000 Z " fill="#d9e9f7" stroke="#666666" stroke-width="0.80" fill-rule="evenodd"/>
<circle cx="-29.301" cy="64.000" r="2.8" fill="#d60000" stroke="white" stroke-width="0.8"/>
<path d="M 127.159 34.000 L 124.272 39.000 L 132.933 44.000 L 124.272 49.000 L 127.159 54.000 L 132.933 54.000 L 132.933 64.000 L 141.593 69.000 L 144.480 64.000 L 150.253 64.000 L 156.027 64.000 L 158.913 59.000 L 167.574 64.000 L 176.234 59.000 L 173.347 54.000 L 176.234 49.000 L 167.574 44.000 L 167.574 34.000 L 161.800 34.000 L 158.913 39.000 L 150.253 34.000 L 150.253 24.000 L 144.480 24.000 L 141.593 19.000 L 132.933 24.000 L 132.933 34.000 Z M 144.480 44.000 L 141.593 49.000 L 132.933 44.000 L 141.593 39.000 Z " fill="#dddddd" stroke="black" stroke-width="1.50" fill-rule="evenodd"/>
<path d="M 132.933 64.000 L 141.593 69.000 L 144.480 64.000 L 150.253 64.000 L 150.253 54.000 L 158.913 49.000 L 156.027 44.000 L 150.253 44.000 L 144.480 44.000 L 141.593 49.000 L 132.933 44.000 L 124.272 49.000 L 127.159 54.000 L 132.933 54.000 Z " fill="#d9e9f7" stroke="#666666" stroke-width="0.80" fill-rule="evenodd"/>
<path d="M 173.347 54.000 L 176.234 49.000 L 167.574 44.000 L 167.574 34.000 L 161.800 34.000 L 158.913 39.000 L 156.027 44.000 L 158.913 49.000 L 150.253 54.000 L 150.253 64.000 L 156.027 64.000 L 158.913 59.000 L 167.574 64.000 L 176.234 59.000 Z " fill="#d9e9f7" stroke="#666666" stroke-width="0.80" fill-rule="evenodd"/>
<path d="M 156.027 44.000 L 158.913 39.000 L 150.253 34.000 L 150.253 24.000 L 144.480 24.000 L 141.593 19.000 L 132.933 24.000 L 132.933 34.000 L 127.159 34.000 L 124.272 39.000 L 132.933 44.000 L 141.593 39.000 L 144.480 44.000 L 150.253 44.000 Z " fill="#bcd0e2" stroke="#666666" stroke-width="0.80" fill-rule="evenodd"/>
<circle cx="75.198" cy="64.000" r="2.8" fill="#d60000" stroke="white" stroke-width="0.8"/>
<path d="M 225.885 31.500 L 222.998 36.500 L 231.658 41.500 L 240.318 36.500 L 243.205 41.500 L 248.979 41.500 L 248.979 51.500 L 240.318 56.500 L 243.205 61.500 L 240.318 66.500 L 248.979 71.500 L 257.639 66.500 L 260.526 71.500 L 266.299 71.500 L 266.299 61.500 L 257.639 56.500 L 260.526 51.500 L 257.639 46.500 L 266.299 41.500 L 266.299 31.500 L 272.073 31.500 L 274.959 26.500 L 277.846 21.500 L 274.959 16.500 L 266.299 21.500 L 257.639 16.500 L 254.752 21.500 L 248.979 21.500 L 243.205 21.500 L 240.318 16.500 L 231.658 21.500 L 231.658 31.500 Z " fill="#dddddd" stroke="black" stroke-width="1.50" fill-rule="evenodd"/>
<path d="M 248.979 71.500 L 240.318 66.500 L 243.205 61.500 L 240.318 56.500 L 248.979 51.500 L 248.979 41.500 L 254.752 41.500 L 257.639 46.500 L 260.526 51.500 L 257.639 56.500 L 266.299 61.500 L 266.299 71.500 L 260.526 71.500 L 257.639 66.500 Z " fill="#d9e9f7" stroke="#666666" stroke-width="0.80" fill-rule="evenodd"/>
<path d="M 225.885 31.500 L 231.658 31.500 L 231.658 21.500 L 240.318 16.500 L 243.205 21.500 L 248.979 21.500 L 248.979 31.500 L 257.639 36.500 L 254.752 41.500 L 248.979 41.500 L 243.205 41.500 L 240.318 36.500 L 231.658 41.500 L 222.998 36.500 Z " fill="#d9e9f7" stroke="#666666" stroke-width="0.80" fill-rule="evenodd"/>
<path d="M 254.752 21.500 L 257.639 16.500 L 266.299 21.500 L 274.959 16.500 L 277.846 21.500 L 274.959 26.500 L 272.073 31.500 L 266.299 31.500 L 266.299 41.500 L 257.639 46.500 L 254.752 41.500 L 257.639 36.500 L 248.979 31.500 L 248.979 21.500 Z " fill="#d9e9f7" stroke="#666666" stroke-width="0.80" fill-rule="evenodd"/>
<circle cx="173.923" cy="61.500" r="2.8" fill="#d60000" stroke="white" stroke-width="0.8"/>
<path d="M 323.167 34.000 L 320.280 39.000 L 328.940 44.000 L 337.600 39.000 L 340.487 44.000 L 337.600 49.000 L 346.261 54.000 L 346.261 64.000 L 352.034 64.000 L 354.921 69.000 L 363.581 64.000 L 363.581 54.000 L 369.355 54.000 L 372.241 49.000 L 375.128 44.000 L 380.902 44.000 L 380.902 34.000 L 372.241 29.000 L 375.128 24.000 L 372.241 19.000 L 363.581 24.000 L 363.581 34.000 L 357.808 34.000 L 354.921 39.000 L 346.261 34.000 L 346.261 24.000 L 340.487 24.000 L 337.600 19.000 L 328.940 24.000 L 328.940 34.000 Z " fill="#dddddd" stroke="black" stroke-width="1.50" fill-rule="evenodd"/>
<path d="M 328.940 24.000 L 337.600 19.000 L 340.487 24.000 L 346.261 24.000 L 346.261 34.000 L 354.921 39.000 L 352.034 44.000 L 346.261 44.000 L 340.487 44.000 L 337.600 39.000 L 328.940 44.000 L 320.280 39.000 L 323.167 34.000 L 328.940 34.000 Z " fill="#d9e9f7" stroke="#666666" stroke-width="0.80" fill-rule="evenodd"/>
<path d="M 375.128 24.000 L 372.241 29.000 L 380.902 34.000 L 380.902 44.000 L 375.128 44.000 L 372.241 49.000 L 363.581 44.000 L 354.921 49.000 L 352.034 44.000 L 354.921 39.000 L 357.808 34.000 L 363.581 34.000 L 363.581 24.000 L 372.241 19.000 Z " fill="#d9e9f7" stroke="#666666" stroke-width="0.80" fill-rule="evenodd"/>
<path d="M 369.355 54.000 L 363.581 54.000 L 363.581 64.000 L 354.921 69.000 L 352.034 64.000 L 346.261 64.000 L 346.261 54.000 L 337.600 49.000 L 340.487 44.000 L 346.261 44.000 L 352.034 44.000 L 354.921 49.000 L 363.581 44.000 L 372.241 49.000 Z " fill="#d9e9f7" stroke="#666666" stroke-width="0.80" fill-rule="evenodd"/>
<circle cx="271.205" cy="64.000" r="2.8" fill="#d60000" stroke="white" stroke-width="0.8"/>
<path d="M 423.335 31.500 L 420.449 36.500 L 429.109 41.500 L 437.769 36.500 L 440.656 41.500 L 446.429 41.500 L 446.429 51.500 L 437.769 56.500 L 440.656 61.500 L 437.769 66.500 L 446.429 71.500 L 455.090 66.500 L 457.976 71.500 L 463.750 71.500 L 463.750 61.500 L 455.090 56.500 L 457.976 51.500 L 455.090 46.500 L 463.750 41.500 L 472.410 46.500 L 475.297 41.500 L 481.070 41.500 L 481.070 31.500 L 472.410 26.500 L 475.297 21.500 L 472.410 16.500 L 463.750 21.500 L 463.750 31.500 L 457.976 31.500 L 455.090 36.500 L 446.429 31.500 L 446.429 21.500 L 440.656 21.500 L 437.769 16.500 L 429.109 21.500 L 429.109 31.500 Z " fill="#dddddd" stroke="black" stroke-width="1.50" fill-rule="evenodd"/>
<path d="M 481.070 31.500 L 481.070 41.500 L 475.297 41.500 L 472.410 46.500 L 463.750 41.500 L 455.090 46.500 L 452.203 41.500 L 455.090 36.500 L 457.976 31.500 L 463.750 31.500 L 463.750 21.500 L 472.410 16.500 L 475.297 21.500 L 472.410 26.500 Z " fill="#d9e9f7" stroke="#666666" stroke-width="0.80" fill-rule="evenodd"/>
<path d="M 457.976 71.500 L 455.090 66.500 L 446.429 71.500 L 437.769 66.500 L 440.656 61.500 L 437.769 56.500 L 446.429 51.500 L 446.429 41.500 L 452.203 41.500 L 455.090 46.500 L 457.976 51.500 L 455.090 56.500 L 463.750 61.500 L 463.750 71.500 Z " fill="#d9e9f7" stroke="#666666" stroke-width="0.80" fill-rule="evenodd"/>
<path d="M 440.656 41.500 L 437.769 36.500 L 429.109 41.500 L 420.449 36.500 L 423.335 31.500 L 429.109 31.500 L 429.109 21.500 L 437.769 16.500 L 440.656 21.500 L 446.429 21.500 L 446.429 31.500 L 455.090 36.500 L 452.203 41.500 L 446.429 41.500 Z " fill="#d9e9f7" stroke="#666666" stroke-width="0.80" fill-rule="evenodd"/>
<circle cx="371.374" cy="61.500" r="2.8" fill="#d60000" stroke="white" stroke-width="0.8"/>
<path d="M 523.504 34.000 L 520.617 39.000 L 529.278 44.000 L 520.617 49.000 L 523.504 54.000 L 529.278 54.000 L 529.278 64.000 L 537.938 69.000 L 540.825 64.000 L 546.598 64.000 L 546.598 54.000 L 555.258 49.000 L 558.145 54.000 L 563.919 54.000 L 563.919 64.000 L 572.579 69.000 L 575.466 64.000 L 572.579 59.000 L 581.239 54.000 L 581.239 44.000 L 575.466 44.000 L 572.579 39.000 L 563.919 44.000 L 555.258 39.000 L 546.598 34.000 L 546.598 24.000 L 540.825 24.000 L 537.938 19.000 L 529.278 24.000 L 529.278 34.000 Z M 540.825 44.000 L 537.938 49.000 L 529.278 44.000 L 537.938 39.000 Z " fill="#dddddd" stroke="black" stroke-width="1.50" fill-rule="evenodd"/>
<path d="M 529.278 64.000 L 537.938 69.000 L 540.825 64.000 L 546.598 64.000 L 546.598 54.000 L 555.258 49.000 L 552.372 44.000 L 546.598 44.000 L 540.825 44.000 L 537.938 49.000 L 529.278 44.000 L 520.617 49.000 L 523.504 54.000 L 529.278 54.000 Z " fill="#d9e9f7" stroke="#666666" stroke-width="0.80" fill-rule="evenodd"/>
<path d="M 575.466 64.000 L 572.579 59.000 L 581.239 54.000 L 581.239 44.000 L 575.466 44.000 L 572.579 39.000 L 563.919 44.000 L 555.258 39.000 L 552.372 44.000 L 555.258 49.000 L 558.145 54.000 L 563.919 54.000 L 563.919 64.000 L 572.579 69.000 Z " fill="#d9e9f7" stroke="#666666" stroke-width="0.80" fill-rule="evenodd"/>
<path d="M 552.372 44.000 L 555.258 39.000 L 546.598 34.000 L 546.598 24.000 L 540.825 24.000 L 537.938 19.000 L 529.278 24.000 L 529.278 34.000 L 523.504 34.000 L 520.617 39.000 L 529.278 44.000 L 537.938 39.000 L 540.825 44.000 L 546.598 44.000 Z " fill="#bcd0e2" stroke="#666666" stroke-width="0.80" fill-rule="evenodd"/>
<circle cx="471.543" cy="64.000" r="2.8" fill="#d60000" stroke="white" stroke-width="0.8"/>
<path d="M 626.560 31.500 L 623.673 36.500 L 632.333 41.500 L 640.993 36.500 L 643.880 41.500 L 649.654 41.500 L 649.654 51.500 L 658.314 56.500 L 655.427 61.500 L 658.314 66.500 L 661.201 71.500 L 666.974 71.500 L 666.974 61.500 L 675.634 56.500 L 672.748 51.500 L 675.634 46.500 L 666.974 41.500 L 666.974 31.500 L 672.748 31.500 L 675.634 26.500 L 678.521 21.500 L 675.634 16.500 L 666.974 21.500 L 658.314 16.500 L 655.427 21.500 L 649.654 21.500 L 643.880 21.500 L 640.993 16.500 L 632.333 21.500 L 632.333 31.500 Z " fill="#dddddd" stroke="black" stroke-width="1.50" fill-rule="evenodd"/>
<path d="M 632.333 21.500 L 640.993 16.500 L 643.880 21.500 L 649.654 21.500 L 649.654 31.500 L 658.314 36.500 L 655.427 41.500 L 649.654 41.500 L 643.880 41.500 L 640.993 36.500 L 632.333 41.500 L 623.673 36.500 L 626.560 31.500 L 632.333 31.500 Z " fill="#d9e9f7" stroke="#666666" stroke-width="0.80" fill-rule="evenodd"/>
<path d="M 678.521 21.500 L 675.634 26.500 L 672.748 31.500 L 666.974 31.500 L 666.974 41.500 L 658.314 46.500 L 655.427 41.500 L 658.314 36.500 L 649.654 31.500 L 649.654 21.500 L 655.427 21.500 L 658.314 16.500 L 666.974 21.500 L 675.634 16.500 Z " fill="#d9e9f7" stroke="#666666" stroke-width="0.80" fill-rule="evenodd"/>
<path d="M 672.748 51.500 L 675.634 56.500 L 666.974 61.500 L 666.974 71.500 L 661.201 71.500 L 658.314 66.500 L 655.427 61.500 L 658.314 56.500 L 649.654 51.500 L 649.654 41.500 L 655.427 41.500 L 658.314 46.500 L 666.974 41.500 L 675.634 46.500 Z " fill="#d9e9f7" stroke="#666666" stroke-width="0.80" fill-rule="evenodd"/>
<circle cx="574.598" cy="61.500" r="2.8" fill="#d60000" stroke="white" stroke-width="0.8"/>
<path d="M 25.547 122.000 L 22.660 127.000 L 31.321 132.000 L 39.981 127.000 L 42.868 132.000 L 39.981 137.000 L 48.641 142.000 L 48.641 152.000 L 54.415 152.000 L 57.301 157.000 L 65.962 152.000 L 65.962 142.000 L 71.735 142.000 L 74.622 137.000 L 65.962 132.000 L 65.962 122.000 L 71.735 122.000 L 74.622 117.000 L 77.509 112.000 L 74.622 107.000 L 65.962 112.000 L 57.301 107.000 L 54.415 112.000 L 48.641 112.000 L 42.868 112.000 L 39.981 107.000 L 31.321 112.000 L 31.321 122.000 Z " fill="#dddddd" stroke="black" stroke-width="1.50" fill-rule="evenodd"/>
<path d="M 31.321 112.000 L 39.981 107.000 L 42.868 112.000 L 48.641 112.000 L 48.641 122.000 L 57.301 127.000 L 54.415 132.000 L 48.641 132.000 L 42.868 132.000 L 39.981 127.000 L 31.321 132.000 L 22.660 127.000 L 25.547 122.000 L 31.321 122.000 Z " fill="#d9e9f7" stroke="#666666" stroke-width="0.80" fill-rule="evenodd"/>
<path d="M 77.509 112.000 L 74.622 117.000 L 71.735 122.000 L 65.962 122.000 L 65.962 132.000 L 57.301 137.000 L 54.415 132.000 L 57.301 127.000 L 48.641 122.000 L 48.641 112.000 L 54.415 112.000 L 57.301 107.000 L 65.962 112.000 L 74.622 107.000 Z " fill="#d9e9f7" stroke="#666666" stroke-width="0.80" fill-rule="evenodd"/>
<path d="M 71.735 142.000 L 65.962 142.000 L 65.962 152.000 L 57.301 157.000 L 54.415 152.000 L 48.641 152.000 L 48.641 142.000 L 39.981 137.000 L 42.868 132.000 L 48.641 132.000 L 54.415 132.000 L 57.301 137.000 L 65.962 132.000 L 74.622 137.000 Z " fill="#d9e9f7" stroke="#666666" stroke-width="0.80" fill-rule="evenodd"/>
<circle cx="-26.415" cy="152.000" r="2.8" fill="#d60000" stroke="white" stroke-width="0.8"/>
<path d="M 125.716 119.500 L 122.829 124.500 L 131.489 129.500 L 140.150 124.500 L 143.036 129.500 L 148.810 129.500 L 148.810 139.500 L 140.150 144.500 L 143.036 149.500 L 140.150 154.500 L 148.810 159.500 L 157.470 154.500 L 160.357 159.500 L 166.130 159.500 L 166.130 149.500 L 157.470 144.500 L 160.357 139.500 L 157.470 134.500 L 166.130 129.500 L 166.130 119.500 L 171.904 119.500 L 174.791 114.500 L 177.677 109.500 L 174.791 104.500 L 166.130 109.500 L 157.470 104.500 L 154.583 109.500 L 148.810 109.500 L 143.036 109.500 L 140.150 104.500 L 131.489 109.500 L 131.489 119.500 Z " fill="#dddddd" stroke="black" stroke-width="1.50" fill-rule="evenodd"/>
<path d="M 131.489 109.500 L 140.150 104.500 L 143.036 109.500 L 148.810 109.500 L 148.810 119.500 L 157.470 124.500 L 154.583 129.500 L 148.810 129.500 L 143.036 129.500 L 140.150 124.500 L 131.489 129.500 L 122.829 124.500 L 125.716 119.500 L 131.489 119.500 Z " fill="#d9e9f7" stroke="#666666" stroke-width="0.80" fill-rule="evenodd"/>
<path d="M 177.677 109.500 L 174.791 114.500 L 171.904 119.500 L 166.130 119.500 L 166.130 129.500 L 157.470 134.500 L 154.583 129.500 L 157.470 124.500 L 148.810 119.500 L 148.810 109.500 L 154.583 109.500 L 157.470 104.500 L 166.130 109.500 L 174.791 104.500 Z " fill="#d9e9f7" stroke="#666666" stroke-width="0.80" fill-rule="evenodd"/>
<path d="M 160.357 139.500 L 157.470 144.500 L 166.130 149.500 L 166.130 159.500 L 160.357 159.500 L 157.470 154.500 L 148.810 159.500 L 140.150 154.500 L 143.036 149.500 L 140.150 144.500 L 148.810 139.500 L 148.810 129.500 L 154.583 129.500 L 157.470 134.500 Z " fill="#d9e9f7" stroke="#666666" stroke-width="0.80" fill-rule="evenodd"/>
<circle cx="73.754" cy="149.500" r="2.8" fill="#d60000" stroke="white" stroke-width="0.8"/>
<path d="M 225.885 122.000 L 222.998 127.000 L 231.658 132.000 L 222.998 137.000 L 225.885 142.000 L 231.658 142.000 L 231.658 152.000 L 240.318 157.000 L 243.205 152.000 L 248.979 152.000 L 254.752 152.000 L 257.639 157.000 L 266.299 152.000 L 274.959 157.000 L 277.846 152.000 L 274.959 147.000 L 272.073 142.000 L 266.299 142.000 L 266.299 132.000 L 257.639 127.000 L 248.979 122.000 L 248.979 112.000 L 243.205 112.000 L 240.318 107.000 L 231.658 112.000 L 231.658 122.000 Z M 243.205 132.000 L 240.318 137.000 L 231.658 132.000 L 240.318 127.000 Z " fill="#dddddd" stroke="black" stroke-width="1.50" fill-rule="evenodd"/>
<path d="M 231.658 152.000 L 240.318 157.000 L 243.205 152.000 L 248.979 152.000 L 248.979 142.000 L 257.639 137.000 L 254.752 132.000 L 248.979 132.000 L 243.205 132.000 L 240.318 137.000 L 231.658 132.000 L 222.998 137.000 L 225.885 142.000 L 231.658 142.000 Z " fill="#d9e9f7" stroke="#666666" stroke-width="0.80" fill-rule="evenodd"/>
<path d="M 277.846 152.000 L 274.959 147.000 L 272.073 142.000 L 266.299 142.000 L 266.299 132.000 L 257.639 127.000 L 254.752 132.000 L 257.639 137.000 L 248.979 142.000 L 248.979 152.000 L 254.752 152.000 L 257.639 157.000 L 266.299 152.000 L 274.959 157.000 Z " fill="#d9e9f7" stroke="#666666" stroke-width="0.80" fill-rule="evenodd"/>
<path d="M 254.752 132.000 L 257.639 127.000 L 248.979 122.000 L 248.979 112.000 L 243.205 112.000 L 240.318 107.000 L 231.658 112.000 L 231.658 122.000 L 225.885 122.000 L 222.998 127.000 L 231.658 132.000 L 240.318 127.000 L 243.205 132.000 L 248.979 132.000 Z " fill="#bcd0e2" stroke="#666666" stroke-width="0.80" fill-rule="evenodd"/>
<circle cx="173.923" cy="152.000" r="2.8" fill="#d60000" stroke="white" stroke-width="0.8"/>
<path d="M 326.053 122.000 L 323.167 127.000 L 331.827 132.000 L 323.167 137.000 L 326.053 142.000 L 331.827 142.000 L 331.827 152.000 L 340.487 157.000 L 343.374 152.000 L 349.147 152.000 L 354.921 152.000 L 357.808 157.000 L 366.468 152.000 L 375.128 157.000 L 378.015 152.000 L 375.128 147.000 L 372.241 142.000 L 366.468 142.000 L 366.468 132.000 L 357.808 127.000 L 349.147 122.000 L 349.147 112.000 L 343.374 112.000 L 340.487 107.000 L 331.827 112.000 L 331.827 122.000 Z M 343.374 132.000 L 340.487 137.000 L 331.827 132.000 L 340.487 127.000 Z " fill="#dddddd" stroke="black" stroke-width="1.50" fill-rule="evenodd"/>
<path d="M 331.827 112.000 L 340.487 107.000 L 343.374 112.000 L 349.147 112.000 L 349.147 122.000 L 357.808 127.000 L 354.921 132.000 L 349.147 132.000 L 343.374 132.000 L 340.487 127.000 L 331.827 132.000 L 323.167 127.000 L 326.053 122.000 L 331.827 122.000 Z " fill="#d9e9f7" stroke="#666666" stroke-width="0.80" fill-rule="evenodd"/>
<path d="M 378.015 152.000 L 375.128 157.000 L 366.468 152.000 L 357.808 157.000 L 354.921 152.000 L 349.147 152.000 L 349.147 142.000 L 357.808 137.000 L 354.921 132.000 L 357.808 127.000 L 366.468 132.000 L 366.468 142.000 L 372.241 142.000 L 375.128 147.000 Z " fill="#bcd0e2" stroke="#666666" stroke-width="0.80" fill-rule="evenodd"/>
<path d="M 354.921 132.000 L 357.808 137.000 L 349.147 142.000 L 349.147 152.000 L 343.374 152.000 L 340.487 157.000 L 331.827 152.000 L 331.827 142.000 L 326.053 142.000 L 323.167 137.000 L 331.827 132.000 L 340.487 137.000 L 343.374 132.000 L 349.147 132.000 Z " fill="#bcd0e2" stroke="#666666" stroke-width="0.80" fill-rule="evenodd"/>
<circle cx="274.092" cy="152.000" r="2.8" fill="#d60000" stroke="white" stroke-width="0.8"/>
<path d="M 423.335 122.000 L 420.449 127.000 L 429.109 132.000 L 420.449 137.000 L 423.335 142.000 L 429.109 142.000 L 429.109 152.000 L 437.769 157.000 L 440.656 152.000 L 446.429 152.000 L 446.429 142.000 L 455.090 137.000 L 457.976 142.000 L 463.750 142.000 L 463.750 152.000 L 472.410 157.000 L 475.297 152.000 L 472.410 147.000 L 481.070 142.000 L 481.070 132.000 L 475.297 132.000 L 472.410 127.000 L 463.750 132.000 L 455.090 127.000 L 446.429 122.000 L 446.429 112.000 L 440.656 112.000 L 437.769 107.000 L 429.109 112.000 L 429.109 122.000 Z M 440.656 132.000 L 437.769 137.000 L 429.109 132.000 L 437.769 127.000 Z " fill="#dddddd" stroke="black" stroke-width="1.50" fill-rule="evenodd"/>
<path d="M 481.070 142.000 L 481.070 132.000 L 475.297 132.000 L 472.410 127.000 L 463.750 132.000 L 455.090 127.000 L 452.203 132.000 L 455.090 137.000 L 457.976 142.000 L 463.750 142.000 L 463.750 152.000 L 472.410 157.000 L 475.297 152.000 L 472.410 147.000 Z " fill="#d9e9f7" stroke="#666666" stroke-width="0.80" fill-rule="evenodd"/>
<path d="M 440.656 112.000 L 437.769 107.000 L 429.109 112.000 L 429.109 122.000 L 423.335 122.000 L 420.449 127.000 L 429.109 132.000 L 437.769 127.000 L 440.656 132.000 L 446.429 132.000 L 452.203 132.000 L 455.090 127.000 L 446.429 122.000 L 446.429 112.000 Z " fill="#bcd0e2" stroke="#666666" stroke-width="0.80" fill-rule="evenodd"/>
<path d="M 440.656 132.000 L 437.769 137.000 L 429.109 132.000 L 420.449 137.000 L 423.335 142.000 L 429.109 142.000 L 429.109 152.000 L 437.769 157.000 L 440.656 152.000 L 446.429 152.000 L 446.429 142.000 L 455.090 137.000 L 452.203 132.000 L 446.429 132.000 Z " fill="#d9e9f7" stroke="#666666" stroke-width="0.80" fill-rule="evenodd"/>
<circle cx="371.374" cy="152.000" r="2.8" fill="#d60000" stroke="white" stroke-width="0.8"/>
<path d="M 523.504 122.000 L 520.617 127.000 L 529.278 132.000 L 520.617 137.000 L 523.504 142.000 L 529.278 142.000 L 529.278 152.000 L 537.938 157.000 L 540.825 152.000 L 546.598 152.000 L 546.598 142.000 L 555.258 137.000 L 558.145 142.000 L 563.919 142.000 L 563.919 152.000 L 572.579 157.000 L 575.466 152.000 L 572.579 147.000 L 581.239 142.000 L 581.239 132.000 L 575.466 132.000 L 572.579 127.000 L 563.919 132.000 L 555.258 127.000 L 546.598 122.000 L 546.598 112.000 L 540.825 112.000 L 537.938 107.000 L 529.278 112.000 L 529.278 122.000 Z M 540.825 132.000 L 537.938 137.000 L 529.278 132.000 L 537.938 127.000 Z " fill="#dddddd" stroke="black" stroke-width="1.50" fill-rule="evenodd"/>
<path d="M 529.278 112.000 L 537.938 107.000 L 540.825 112.000 L 546.598 112.000 L 546.598 122.000 L 555.258 127.000 L 552.372 132.000 L 546.598 132.000 L 540.825 132.000 L 537.938 127.000 L 529.278 132.000 L 520.617 127.000 L 523.504 122.000 L 529.278 122.000 Z " fill="#d9e9f7" stroke="#666666" stroke-width="0.80" fill-rule="evenodd"/>
<path d="M 575.466 132.000 L 581.239 132.000 L 581.239 142.000 L 572.579 147.000 L 575.466 152.000 L 572.579 157.000 L 563.919 152.000 L 563.919 142.000 L 558.145 142.000 L 555.258 137.000 L 552.372 132.000 L 555.258 127.000 L 563.919 132.000 L 572.579 127.000 Z " fill="#bcd0e2" stroke="#666666" stroke-width="0.80" fill-rule="evenodd"/>
<path d="M 552.372 132.000 L 555.258 137.000 L 546.598 142.000 L 546.598 152.000 L 540.825 152.000 L 537.938 157.000 L 529.278 152.000 L 529.278 142.000 L 523.504 142.000 L 520.617 137.000 L 529.278 132.000 L 537.938 137.000 L 540.825 132.000 L 546.598 132.000 Z " fill="#bcd0e2" stroke="#666666" stroke-width="0.80" fill-rule="evenodd"/>
<circle cx="471.543" cy="152.000" r="2.8" fill="#d60000" stroke="white" stroke-width="0.8"/>
<path d="M 628.003 122.000 L 625.116 127.000 L 633.777 132.000 L 625.116 137.000 L 628.003 142.000 L 633.777 142.000 L 633.777 152.000 L 642.437 157.000 L 645.324 152.000 L 651.097 152.000 L 656.871 152.000 L 659.757 147.000 L 668.418 152.000 L 677.078 147.000 L 674.191 142.000 L 677.078 137.000 L 668.418 132.000 L 668.418 122.000 L 662.644 122.000 L 659.757 127.000 L 651.097 122.000 L 651.097 112.000 L 645.324 112.000 L 642.437 107.000 L 633.777 112.000 L 633.777 122.000 Z M 645.324 132.000 L 642.437 137.000 L 633.777 132.000 L 642.437 127.000 Z " fill="#dddddd" stroke="black" stroke-width="1.50" fill-rule="evenodd"/>
<path d="M 633.777 112.000 L 642.437 107.000 L 645.324 112.000 L 651.097 112.000 L 651.097 122.000 L 659.757 127.000 L 656.871 132.000 L 651.097 132.000 L 645.324 132.000 L 642.437 127.000 L 633.777 132.000 L 625.116 127.000 L 628.003 122.000 L 633.777 122.000 Z " fill="#d9e9f7" stroke="#666666" stroke-width="0.80" fill-rule="evenodd"/>
<path d="M 674.191 142.000 L 677.078 147.000 L 668.418 152.000 L 659.757 147.000 L 656.871 152.000 L 651.097 152.000 L 651.097 142.000 L 659.757 137.000 L 656.871 132.000 L 659.757 127.000 L 662.644 122.000 L 668.418 122.000 L 668.418 132.000 L 677.078 137.000 Z " fill="#bcd0e2" stroke="#666666" stroke-width="0.80" fill-rule="evenodd"/>
<path d="M 656.871 132.000 L 659.757 137.000 L 651.097 142.000 L 651.097 152.000 L 645.324 152.000 L 642.437 157.000 L 633.777 152.000 L 633.777 142.000 L 628.003 142.000 L 625.116 137.000 L 633.777 132.000 L 642.437 137.000 L 645.324 132.000 L 651.097 132.000 Z " fill="#bcd0e2" stroke="#666666" stroke-width="0.80" fill-rule="evenodd"/>
<circle cx="576.042" cy="152.000" r="2.8" fill="#d60000" stroke="white" stroke-width="0.8"/>
<path d="M 25.547 210.000 L 22.660 215.000 L 31.321 220.000 L 39.981 215.000 L 42.868 220.000 L 39.981 225.000 L 48.641 230.000 L 48.641 240.000 L 54.415 240.000 L 57.301 245.000 L 65.962 240.000 L 65.962 230.000 L 71.735 230.000 L 74.622 225.000 L 65.962 220.000 L 65.962 210.000 L 71.735 210.000 L 74.622 205.000 L 77.509 200.000 L 74.622 195.000 L 65.962 200.000 L 57.301 195.000 L 54.415 200.000 L 48.641 200.000 L 42.868 200.000 L 39.981 195.000 L 31.321 200.000 L 31.321 210.000 Z " fill="#dddddd" stroke="black" stroke-width="1.50" fill-rule="evenodd"/>
<path d="M 65.962 240.000 L 57.301 245.000 L 54.415 240.000 L 48.641 240.000 L 48.641 230.000 L 39.981 225.000 L 42.868 220.000 L 48.641 220.000 L 54.415 220.000 L 57.301 225.000 L 65.962 220.000 L 74.622 225.000 L 71.735 230.000 L 65.962 230.000 Z " fill="#d9e9f7" stroke="#666666" stroke-width="0.80" fill-rule="evenodd"/>
<path d="M 25.547 210.000 L 31.321 210.000 L 31.321 200.000 L 39.981 195.000 L 42.868 200.000 L 48.641 200.000 L 48.641 210.000 L 57.301 215.000 L 54.415 220.000 L 48.641 220.000 L 42.868 220.000 L 39.981 215.000 L 31.321 220.000 L 22.660 215.000 Z " fill="#d9e9f7" stroke="#666666" stroke-width="0.80" fill-rule="evenodd"/>
<path d="M 54.415 220.000 L 57.301 215.000 L 48.641 210.000 L 48.641 200.000 L 54.415 200.000 L 57.301 195.000 L 65.962 200.000 L 74.622 195.000 L 77.509 200.000 L 74.622 205.000 L 71.735 210.000 L 65.962 210.000 L 65.962 220.000 L 57.301 225.000 Z " fill="#d9e9f7" stroke="#666666" stroke-width="0.80" fill-rule="evenodd"/>
<circle cx="-14.868" cy="240.000" r="2.8" fill="#d60000" stroke="white" stroke-width="0.8"/>
<path d="M 122.829 210.000 L 119.942 215.000 L 128.603 220.000 L 137.263 215.000 L 140.150 220.000 L 137.263 225.000 L 145.923 230.000 L 145.923 240.000 L 151.697 240.000 L 154.583 245.000 L 163.244 240.000 L 163.244 230.000 L 169.017 230.000 L 171.904 225.000 L 174.791 220.000 L 180.564 220.000 L 180.564 210.000 L 171.904 205.000 L 174.791 200.000 L 171.904 195.000 L 163.244 200.000 L 163.244 210.000 L 157.470 210.000 L 154.583 215.000 L 145.923 210.000 L 145.923 200.000 L 140.150 200.000 L 137.263 195.000 L 128.603 200.000 L 128.603 210.000 Z " fill="#dddddd" stroke="black" stroke-width="1.50" fill-rule="evenodd"/>
<path d="M 163.244 240.000 L 154.583 245.000 L 151.697 240.000 L 145.923 240.000 L 145.923 230.000 L 137.263 225.000 L 140.150 220.000 L 145.923 220.000 L 151.697 220.000 L 154.583 225.000 L 163.244 220.000 L 171.904 225.000 L 169.017 230.000 L 163.244 230.000 Z " fill="#d9e9f7" stroke="#666666" stroke-width="0.80" fill-rule="evenodd"/>
<path d="M 122.829 210.000 L 128.603 210.000 L 128.603 200.000 L 137.263 195.000 L 140.150 200.000 L 145.923 200.000 L 145.923 210.000 L 154.583 215.000 L 151.697 220.000 L 145.923 220.000 L 140.150 220.000 L 137.263 215.000 L 128.603 220.000 L 119.942 215.000 Z " fill="#d9e9f7" stroke="#666666" stroke-width="0.80" fill-rule="evenodd"/>
<path d="M 151.697 220.000 L 154.583 215.000 L 157.470 210.000 L 163.244 210.000 L 163.244 200.000 L 171.904 195.000 L 174.791 200.000 L 171.904 205.000 L 180.564 210.000 L 180.564 220.000 L 174.791 220.000 L 171.904 225.000 L 163.244 220.000 L 154.583 225.000 Z " fill="#d9e9f7" stroke="#666666" stroke-width="0.80" fill-rule="evenodd"/>
<circle cx="82.415" cy="240.000" r="2.8" fill="#d60000" stroke="white" stroke-width="0.8"/>
<path d="M 227.328 210.000 L 224.441 215.000 L 233.101 220.000 L 224.441 225.000 L 227.328 230.000 L 233.101 230.000 L 233.101 240.000 L 241.762 245.000 L 244.648 240.000 L 250.422 240.000 L 256.195 240.000 L 259.082 235.000 L 267.742 240.000 L 276.403 235.000 L 273.516 230.000 L 276.403 225.000 L 267.742 220.000 L 267.742 210.000 L 261.969 210.000 L 259.082 215.000 L 250.422 210.000 L 250.422 200.000 L 244.648 200.000 L 241.762 195.000 L 233.101 200.000 L 233.101 210.000 Z M 244.648 220.000 L 241.762 225.000 L 233.101 220.000 L 241.762 215.000 Z " fill="#dddddd" stroke="black" stroke-width="1.50" fill-rule="evenodd"/>
<path d="M 267.742 240.000 L 276.403 235.000 L 273.516 230.000 L 276.403 225.000 L 267.742 220.000 L 267.742 210.000 L 261.969 210.000 L 259.082 215.000 L 256.195 220.000 L 259.082 225.000 L 250.422 230.000 L 250.422 240.000 L 256.195 240.000 L 259.082 235.000 Z " fill="#d9e9f7" stroke="#666666" stroke-width="0.80" fill-rule="evenodd"/>
<path d="M 244.648 200.000 L 241.762 195.000 L 233.101 200.000 L 233.101 210.000 L 227.328 210.000 L 224.441 215.000 L 233.101 220.000 L 241.762 215.000 L 244.648 220.000 L 250.422 220.000 L 256.195 220.000 L 259.082 215.000 L 250.422 210.000 L 250.422 200.000 Z " fill="#bcd0e2" stroke="#666666" stroke-width="0.80" fill-rule="evenodd"/>
<path d="M 256.195 220.000 L 250.422 220.000 L 244.648 220.000 L 241.762 225.000 L 233.101 220.000 L 224.441 225.000 L 227.328 230.000 L 233.101 230.000 L 233.101 240.000 L 241.762 245.000 L 244.648 240.000 L 250.422 240.000 L 250.422 230.000 L 259.082 225.000 Z " fill="#d9e9f7" stroke="#666666" stroke-width="0.80" fill-rule="evenodd"/>
<circle cx="186.913" cy="240.000" r="2.8" fill="#d60000" stroke="white" stroke-width="0.8"/>
<path d="M 326.053 207.500 L 323.167 212.500 L 331.827 217.500 L 340.487 212.500 L 343.374 217.500 L 349.147 217.500 L 349.147 227.500 L 357.808 232.500 L 354.921 237.500 L 357.808 242.500 L 360.694 247.500 L 366.468 247.500 L 366.468 237.500 L 375.128 232.500 L 372.241 227.500 L 375.128 222.500 L 366.468 217.500 L 366.468 207.500 L 372.241 207.500 L 375.128 202.500 L 378.015 197.500 L 375.128 192.500 L 366.468 197.500 L 357.808 192.500 L 354.921 197.500 L 349.147 197.500 L 343.374 197.500 L 340.487 192.500 L 331.827 197.500 L 331.827 207.500 Z " fill="#dddddd" stroke="black" stroke-width="1.50" fill-rule="evenodd"/>
<path d="M 349.147 207.500 L 349.147 197.500 L 354.921 197.500 L 357.808 192.500 L 366.468 197.500 L 375.128 192.500 L 378.015 197.500 L 375.128 202.500 L 372.241 207.500 L 366.468 207.500 L 366.468 217.500 L 357.808 222.500 L 354.921 217.500 L 357.808 212.500 Z " fill="#d9e9f7" stroke="#666666" stroke-width="0.80" fill-rule="evenodd"/>
<path d="M 354.921 217.500 L 357.808 222.500 L 366.468 217.500 L 375.128 222.500 L 372.241 227.500 L 375.128 232.500 L 366.468 237.500 L 366.468 247.500 L 360.694 247.500 L 357.808 242.500 L 354.921 237.500 L 357.808 232.500 L 349.147 227.500 L 349.147 217.500 Z " fill="#d9e9f7" stroke="#666666" stroke-width="0.80" fill-rule="evenodd"/>
<path d="M 343.374 197.500 L 349.147 197.500 L 349.147 207.500 L 357.808 212.500 L 354.921 217.500 L 349.147 217.500 L 343.374 217.500 L 340.487 212.500 L 331.827 217.500 L 323.167 212.500 L 326.053 207.500 L 331.827 207.500 L 331.827 197.500 L 340.487 192.500 Z " fill="#d9e9f7" stroke="#666666" stroke-width="0.80" fill-rule="evenodd"/>
<circle cx="302.959" cy="227.500" r="2.8" fill="#d60000" stroke="white" stroke-width="0.8"/>
<path d="M 426.222 207.500 L 423.335 212.500 L 431.996 217.500 L 431.996 227.500 L 437.769 227.500 L 440.656 232.500 L 449.316 227.500 L 457.976 232.500 L 455.090 237.500 L 457.976 242.500 L 460.863 247.500 L 466.637 247.500 L 466.637 237.500 L 475.297 232.500 L 472.410 227.500 L 475.297 222.500 L 466.637 217.500 L 466.637 207.500 L 472.410 207.500 L 475.297 202.500 L 478.184 197.500 L 475.297 192.500 L 466.637 197.500 L 457.976 192.500 L 455.090 197.500 L 449.316 197.500 L 449.316 207.500 L 440.656 212.500 L 437.769 207.500 L 431.996 207.500 Z " fill="#dddddd" stroke="black" stroke-width="1.50" fill-rule="evenodd"/>
<path d="M 449.316 227.500 L 440.656 232.500 L 437.769 227.500 L 431.996 227.500 L 431.996 217.500 L 423.335 212.500 L 426.222 207.500 L 431.996 207.500 L 437.769 207.500 L 440.656 212.500 L 449.316 207.500 L 457.976 212.500 L 455.090 217.500 L 449.316 217.500 Z " fill="#d9e9f7" stroke="#666666" stroke-width="0.80" fill-rule="evenodd"/>
<path d="M 455.090 217.500 L 457.976 212.500 L 449.316 207.500 L 449.316 197.500 L 455.090 197.500 L 457.976 192.500 L 466.637 197.500 L 475.297 192.500 L 478.184 197.500 L 475.297 202.500 L 472.410 207.500 L 466.637 207.500 L 466.637 217.500 L 457.976 222.500 Z " fill="#d9e9f7" stroke="#666666" stroke-width="0.80" fill-rule="evenodd"/>
<path d="M 455.090 237.500 L 457.976 232.500 L 449.316 227.500 L 449.316 217.500 L 455.090 217.500 L 457.976 222.500 L 466.637 217.500 L 475.297 222.500 L 472.410 227.500 L 475.297 232.500 L 466.637 237.500 L 466.637 247.500 L 460.863 247.500 L 457.976 242.500 Z " fill="#d9e9f7" stroke="#666666" stroke-width="0.80" fill-rule="evenodd"/>
<circle cx="403.128" cy="227.500" r="2.8" fill="#d60000" stroke="white" stroke-width="0.8"/>
<path d="M 526.391 210.000 L 523.504 215.000 L 532.164 220.000 L 540.825 215.000 L 543.711 220.000 L 540.825 225.000 L 549.485 230.000 L 549.485 240.000 L 555.258 240.000 L 558.145 245.000 L 566.805 240.000 L 566.805 230.000 L 572.579 230.000 L 575.466 225.000 L 566.805 220.000 L 566.805 210.000 L 572.579 210.000 L 575.466 205.000 L 578.352 200.000 L 575.466 195.000 L 566.805 200.000 L 558.145 195.000 L 555.258 200.000 L 549.485 200.000 L 543.711 200.000 L 540.825 195.000 L 532.164 200.000 L 532.164 210.000 Z " fill="#dddddd" stroke="black" stroke-width="1.50" fill-rule="evenodd"/>
<path d="M 549.485 210.000 L 549.485 200.000 L 555.258 200.000 L 558.145 195.000 L 566.805 200.000 L 575.466 195.000 L 578.352 200.000 L 575.466 205.000 L 572.579 210.000 L 566.805 210.000 L 566.805 220.000 L 558.145 225.000 L 555.258 220.000 L 558.145 215.000 Z " fill="#d9e9f7" stroke="#666666" stroke-width="0.80" fill-rule="evenodd"/>
<path d="M 555.258 220.000 L 558.145 225.000 L 566.805 220.000 L 575.466 225.000 L 572.579 230.000 L 566.805 230.000 L 566.805 240.000 L 558.145 245.000 L 555.258 240.000 L 549.485 240.000 L 549.485 230.000 L 540.825 225.000 L 543.711 220.000 L 549.485 220.000 Z " fill="#d9e9f7" stroke="#666666" stroke-width="0.80" fill-rule="evenodd"/>
<path d="M 543.711 200.000 L 549.485 200.000 L 549.485 210.000 L 558.145 215.000 L 555.258 220.000 L 549.485 220.000 L 543.711 220.000 L 540.825 215.000 L 532.164 220.000 L 523.504 215.000 L 526.391 210.000 L 532.164 210.000 L 532.164 200.000 L 540.825 195.000 Z " fill="#d9e9f7" stroke="#666666" stroke-width="0.80" fill-rule="evenodd"/>
<circle cx="503.297" cy="230.000" r="2.8" fill="#d60000" stroke="white" stroke-width="0.8"/>
<path d="M 626.560 207.500 L 623.673 212.500 L 632.333 217.500 L 640.993 212.500 L 643.880 217.500 L 649.654 217.500 L 649.654 227.500 L 640.993 232.500 L 643.880 237.500 L 640.993 242.500 L 649.654 247.500 L 658.314 242.500 L 661.201 247.500 L 666.974 247.500 L 666.974 237.500 L 658.314 232.500 L 661.201 227.500 L 658.314 222.500 L 666.974 217.500 L 666.974 207.500 L 672.748 207.500 L 675.634 202.500 L 678.521 197.500 L 675.634 192.500 L 666.974 197.500 L 658.314 192.500 L 655.427 197.500 L 649.654 197.500 L 643.880 197.500 L 640.993 192.500 L 632.333 197.500 L 632.333 207.500 Z " fill="#dddddd" stroke="black" stroke-width="1.50" fill-rule="evenodd"/>
<path d="M 649.654 207.500 L 649.654 197.500 L 655.427 197.500 L 658.314 192.500 L 666.974 197.500 L 675.634 192.500 L 678.521 197.500 L 675.634 202.500 L 672.748 207.500 L 666.974 207.500 L 666.974 217.500 L 658.314 222.500 L 655.427 217.500 L 658.314 212.500 Z " fill="#d9e9f7" stroke="#666666" stroke-width="0.80" fill-rule="evenodd"/>
<path d="M 655.427 217.500 L 658.314 222.500 L 661.201 227.500 L 658.314 232.500 L 666.974 237.500 L 666.974 247.500 L 661.201 247.500 L 658.314 242.500 L 649.654 247.500 L 640.993 242.500 L 643.880 237.500 L 640.993 232.500 L 649.654 227.500 L 649.654 217.500 Z " fill="#d9e9f7" stroke="#666666" stroke-width="0.80" fill-rule="evenodd"/>
<path d="M 643.880 197.500 L 649.654 197.500 L 649.654 207.500 L 658.314 212.500 L 655.427 217.500 L 649.654 217.500 L 643.880 217.500 L 640.993 212.500 L 632.333 217.500 L 623.673 212.500 L 626.560 207.500 L 632.333 207.500 L 632.333 197.500 L 640.993 192.500 Z " fill="#d9e9f7" stroke="#666666" stroke-width="0.80" fill-rule="evenodd"/>
<circle cx="603.466" cy="227.500" r="2.8" fill="#d60000" stroke="white" stroke-width="0.8"/>
<path d="M 25.547 295.500 L 22.660 300.500 L 31.321 305.500 L 39.981 300.500 L 42.868 305.500 L 48.641 305.500 L 48.641 315.500 L 57.301 320.500 L 54.415 325.500 L 57.301 330.500 L 60.188 335.500 L 65.962 335.500 L 65.962 325.500 L 74.622 320.500 L 71.735 315.500 L 74.622 310.500 L 65.962 305.500 L 65.962 295.500 L 71.735 295.500 L 74.622 290.500 L 77.509 285.500 L 74.622 280.500 L 65.962 285.500 L 57.301 280.500 L 54.415 285.500 L 48.641 285.500 L 42.868 285.500 L 39.981 280.500 L 31.321 285.500 L 31.321 295.500 Z " fill="#dddddd" stroke="black" stroke-width="1.50" fill-rule="evenodd"/>
<path d="M 65.962 305.500 L 74.622 310.500 L 71.735 315.500 L 74.622 320.500 L 65.962 325.500 L 65.962 335.500 L 60.188 335.500 L 57.301 330.500 L 54.415 325.500 L 57.301 320.500 L 48.641 315.500 L 48.641 305.500 L 54.415 305.500 L 57.301 310.500 Z " fill="#d9e9f7" stroke="#666666" stroke-width="0.80" fill-rule="evenodd"/>
<path d="M 54.415 305.500 L 48.641 305.500 L 42.868 305.500 L 39.981 300.500 L 31.321 305.500 L 22.660 300.500 L 25.547 295.500 L 31.321 295.500 L 31.321 285.500 L 39.981 280.500 L 42.868 285.500 L 48.641 285.500 L 48.641 295.500 L 57.301 300.500 Z " fill="#d9e9f7" stroke="#666666" stroke-width="0.80" fill-rule="evenodd"/>
<path d="M 71.735 295.500 L 65.962 295.500 L 65.962 305.500 L 57.301 310.500 L 54.415 305.500 L 57.301 300.500 L 48.641 295.500 L 48.641 285.500 L 54.415 285.500 L 57.301 280.500 L 65.962 285.500 L 74.622 280.500 L 77.509 285.500 L 74.622 290.500 Z " fill="#d9e9f7" stroke="#666666" stroke-width="0.80" fill-rule="evenodd"/>
<circle cx="2.453" cy="315.500" r="2.8" fill="#d60000" stroke="white" stroke-width="0.8"/>
<path d="M 125.716 298.000 L 122.829 303.000 L 131.489 308.000 L 122.829 313.000 L 125.716 318.000 L 131.489 318.000 L 131.489 328.000 L 140.150 333.000 L 143.036 328.000 L 148.810 328.000 L 154.583 328.000 L 157.470 333.000 L 166.130 328.000 L 174.791 333.000 L 177.677 328.000 L 174.791 323.000 L 171.904 318.000 L 166.130 318.000 L 166.130 308.000 L 157.470 303.000 L 148.810 298.000 L 148.810 288.000 L 143.036 288.000 L 140.150 283.000 L 131.489 288.000 L 131.489 298.000 Z M 143.036 308.000 L 140.150 313.000 L 131.489 308.000 L 140.150 303.000 Z " fill="#dddddd" stroke="black" stroke-width="1.50" fill-rule="evenodd"/>
<path d="M 148.810 318.000 L 148.810 328.000 L 154.583 328.000 L 157.470 333.000 L 166.130 328.000 L 174.791 333.000 L 177.677 328.000 L 174.791 323.000 L 171.904 318.000 L 166.130 318.000 L 166.130 308.000 L 157.470 303.000 L 154.583 308.000 L 157.470 313.000 Z " fill="#d9e9f7" stroke="#666666" stroke-width="0.80" fill-rule="evenodd"/>
<path d="M 154.583 308.000 L 157.470 303.000 L 148.810 298.000 L 148.810 288.000 L 143.036 288.000 L 140.150 283.000 L 131.489 288.000 L 131.489 298.000 L 125.716 298.000 L 122.829 303.000 L 131.489 308.000 L 140.150 303.000 L 143.036 308.000 L 148.810 308.000 Z " fill="#bcd0e2" stroke="#666666" stroke-width="0.80" fill-rule="evenodd"/>
<path d="M 143.036 328.000 L 148.810 328.000 L 148.810 318.000 L 157.470 313.000 L 154.583 308.000 L 148.810 308.000 L 143.036 308.000 L 140.150 313.000 L 131.489 308.000 L 122.829 313.000 L 125.716 318.000 L 131.489 318.000 L 131.489 328.000 L 140.150 333.000 Z " fill="#d9e9f7" stroke="#666666" stroke-width="0.80" fill-rule="evenodd"/>
<circle cx="102.622" cy="318.000" r="2.8" fill="#d60000" stroke="white" stroke-width="0.8"/>
<path d="M 222.998 295.500 L 225.885 300.500 L 228.771 305.500 L 234.545 305.500 L 234.545 315.500 L 243.205 320.500 L 246.092 315.500 L 251.865 315.500 L 251.865 325.500 L 260.526 330.500 L 263.412 325.500 L 269.186 325.500 L 269.186 315.500 L 277.846 310.500 L 274.959 305.500 L 269.186 305.500 L 269.186 295.500 L 277.846 290.500 L 274.959 285.500 L 269.186 285.500 L 263.412 285.500 L 260.526 290.500 L 251.865 285.500 L 243.205 290.500 L 234.545 295.500 L 225.885 290.500 Z " fill="#dddddd" stroke="black" stroke-width="1.50" fill-rule="evenodd"/>
<path d="M 251.865 305.500 L 260.526 310.500 L 263.412 305.500 L 269.186 305.500 L 269.186 295.500 L 277.846 290.500 L 274.959 285.500 L 269.186 285.500 L 263.412 285.500 L 260.526 290.500 L 251.865 285.500 L 243.205 290.500 L 246.092 295.500 L 251.865 295.500 Z " fill="#d9e9f7" stroke="#666666" stroke-width="0.80" fill-rule="evenodd"/>
<path d="M 246.092 315.500 L 243.205 310.500 L 251.865 305.500 L 251.865 295.500 L 246.092 295.500 L 243.205 290.500 L 234.545 295.500 L 225.885 290.500 L 222.998 295.500 L 225.885 300.500 L 228.771 305.500 L 234.545 305.500 L 234.545 315.500 L 243.205 320.500 Z " fill="#d9e9f7" stroke="#666666" stroke-width="0.80" fill-rule="evenodd"/>
<path d="M 274.959 305.500 L 269.186 305.500 L 263.412 305.500 L 260.526 310.500 L 251.865 305.500 L 243.205 310.500 L 246.092 315.500 L 251.865 315.500 L 251.865 325.500 L 260.526 330.500 L 263.412 325.500 L 269.186 325.500 L 269.186 315.500 L 277.846 310.500 Z " fill="#d9e9f7" stroke="#666666" stroke-width="0.80" fill-rule="evenodd"/>
<circle cx="199.904" cy="295.500" r="2.8" fill="#d60000" stroke="white" stroke-width="0.8"/>
<path d="M 323.167 293.000 L 326.053 298.000 L 328.940 303.000 L 334.714 303.000 L 334.714 313.000 L 343.374 318.000 L 352.034 323.000 L 352.034 333.000 L 357.808 333.000 L 360.694 328.000 L 363.581 323.000 L 360.694 318.000 L 369.355 313.000 L 369.355 303.000 L 369.355 293.000 L 378.015 288.000 L 375.128 283.000 L 369.355 283.000 L 363.581 283.000 L 360.694 288.000 L 352.034 283.000 L 343.374 288.000 L 334.714 293.000 L 326.053 288.000 Z " fill="#dddddd" stroke="black" stroke-width="1.50" fill-rule="evenodd"/>
<path d="M 352.034 303.000 L 343.374 308.000 L 346.261 313.000 L 343.374 318.000 L 352.034 323.000 L 352.034 333.000 L 357.808 333.000 L 360.694 328.000 L 363.581 323.000 L 360.694 318.000 L 369.355 313.000 L 369.355 303.000 L 363.581 303.000 L 360.694 308.000 Z " fill="#d9e9f7" stroke="#666666" stroke-width="0.80" fill-rule="evenodd"/>
<path d="M 346.261 293.000 L 352.034 293.000 L 352.034 303.000 L 360.694 308.000 L 363.581 303.000 L 369.355 303.000 L 369.355 293.000 L 378.015 288.000 L 375.128 283.000 L 369.355 283.000 L 363.581 283.000 L 360.694 288.000 L 352.034 283.000 L 343.374 288.000 Z " fill="#d9e9f7" stroke="#666666" stroke-width="0.80" fill-rule="evenodd"/>
<path d="M 328.940 303.000 L 334.714 303.000 L 334.714 313.000 L 343.374 318.000 L 346.261 313.000 L 343.374 308.000 L 352.034 303.000 L 352.034 293.000 L 346.261 293.000 L 343.374 288.000 L 334.714 293.000 L 326.053 288.000 L 323.167 293.000 L 326.053 298.000 Z " fill="#d9e9f7" stroke="#666666" stroke-width="0.80" fill-rule="evenodd"/>
<circle cx="282.752" cy="303.000" r="2.8" fill="#d60000" stroke="white" stroke-width="0.8"/>
<path d="M 423.335 298.000 L 426.222 303.000 L 429.109 308.000 L 434.882 308.000 L 434.882 318.000 L 443.543 323.000 L 446.429 318.000 L 452.203 318.000 L 452.203 328.000 L 460.863 333.000 L 463.750 328.000 L 469.523 328.000 L 469.523 318.000 L 478.184 313.000 L 475.297 308.000 L 469.523 308.000 L 463.750 308.000 L 460.863 303.000 L 469.523 298.000 L 469.523 288.000 L 463.750 288.000 L 460.863 283.000 L 452.203 288.000 L 443.543 283.000 L 440.656 288.000 L 443.543 293.000 L 434.882 298.000 L 426.222 293.000 Z " fill="#dddddd" stroke="black" stroke-width="1.50" fill-rule="evenodd"/>
<path d="M 452.203 308.000 L 452.203 298.000 L 446.429 298.000 L 443.543 293.000 L 434.882 298.000 L 426.222 293.000 L 423.335 298.000 L 426.222 303.000 L 429.109 308.000 L 434.882 308.000 L 434.882 318.000 L 443.543 323.000 L 446.429 318.000 L 443.543 313.000 Z " fill="#d9e9f7" stroke="#666666" stroke-width="0.80" fill-rule="evenodd"/>
<path d="M 463.750 308.000 L 460.863 313.000 L 452.203 308.000 L 443.543 313.000 L 446.429 318.000 L 452.203 318.000 L 452.203 328.000 L 460.863 333.000 L 463.750 328.000 L 469.523 328.000 L 469.523 318.000 L 478.184 313.000 L 475.297 308.000 L 469.523 308.000 Z " fill="#d9e9f7" stroke="#666666" stroke-width="0.80" fill-rule="evenodd"/>
<path d="M 440.656 288.000 L 443.543 293.000 L 446.429 298.000 L 452.203 298.000 L 452.203 308.000 L 460.863 313.000 L 463.750 308.000 L 460.863 303.000 L 469.523 298.000 L 469.523 288.000 L 463.750 288.000 L 460.863 283.000 L 452.203 288.000 L 443.543 283.000 Z " fill="#d9e9f7" stroke="#666666" stroke-width="0.80" fill-rule="evenodd"/>
<circle cx="400.241" cy="298.000" r="2.8" fill="#d60000" stroke="white" stroke-width="0.8"/>
<path d="M 523.504 295.500 L 526.391 300.500 L 529.278 305.500 L 535.051 305.500 L 535.051 315.500 L 543.711 320.500 L 546.598 315.500 L 552.372 315.500 L 552.372 325.500 L 561.032 330.500 L 563.919 325.500 L 569.692 325.500 L 569.692 315.500 L 578.352 310.500 L 575.466 305.500 L 569.692 305.500 L 569.692 295.500 L 578.352 290.500 L 575.466 285.500 L 569.692 285.500 L 563.919 285.500 L 561.032 290.500 L 552.372 285.500 L 543.711 290.500 L 535.051 295.500 L 526.391 290.500 Z " fill="#dddddd" stroke="black" stroke-width="1.50" fill-rule="evenodd"/>
<path d="M 552.372 305.500 L 552.372 295.500 L 546.598 295.500 L 543.711 290.500 L 535.051 295.500 L 526.391 290.500 L 523.504 295.500 L 526.391 300.500 L 529.278 305.500 L 535.051 305.500 L 535.051 315.500 L 543.711 320.500 L 546.598 315.500 L 543.711 310.500 Z " fill="#d9e9f7" stroke="#666666" stroke-width="0.80" fill-rule="evenodd"/>
<path d="M 563.919 305.500 L 561.032 310.500 L 552.372 305.500 L 543.711 310.500 L 546.598 315.500 L 552.372 315.500 L 552.372 325.500 L 561.032 330.500 L 563.919 325.500 L 569.692 325.500 L 569.692 315.500 L 578.352 310.500 L 575.466 305.500 L 569.692 305.500 Z " fill="#d9e9f7" stroke="#666666" stroke-width="0.80" fill-rule="evenodd"/>
<path d="M 563.919 285.500 L 561.032 290.500 L 552.372 285.500 L 543.711 290.500 L 546.598 295.500 L 552.372 295.500 L 552.372 305.500 L 561.032 310.500 L 563.919 305.500 L 569.692 305.500 L 569.692 295.500 L 578.352 290.500 L 575.466 285.500 L 569.692 285.500 Z " fill="#d9e9f7" stroke="#666666" stroke-width="0.80" fill-rule="evenodd"/>
<circle cx="500.410" cy="295.500" r="2.8" fill="#d60000" stroke="white" stroke-width="0.8"/>
<path d="M 623.673 295.500 L 626.560 300.500 L 629.446 305.500 L 635.220 305.500 L 635.220 315.500 L 643.880 320.500 L 646.767 315.500 L 652.540 315.500 L 652.540 325.500 L 661.201 330.500 L 664.087 325.500 L 669.861 325.500 L 669.861 315.500 L 678.521 310.500 L 675.634 305.500 L 669.861 305.500 L 669.861 295.500 L 678.521 290.500 L 675.634 285.500 L 669.861 285.500 L 664.087 285.500 L 661.201 290.500 L 652.540 285.500 L 643.880 290.500 L 635.220 295.500 L 626.560 290.500 Z " fill="#dddddd" stroke="black" stroke-width="1.50" fill-rule="evenodd"/>
<path d="M 652.540 325.500 L 661.201 330.500 L 664.087 325.500 L 669.861 325.500 L 669.861 315.500 L 678.521 310.500 L 675.634 305.500 L 669.861 305.500 L 664.087 305.500 L 661.201 310.500 L 652.540 305.500 L 643.880 310.500 L 646.767 315.500 L 652.540 315.500 Z " fill="#d9e9f7" stroke="#666666" stroke-width="0.80" fill-rule="evenodd"/>
<path d="M 675.634 285.500 L 669.861 285.500 L 664.087 285.500 L 661.201 290.500 L 652.540 285.500 L 643.880 290.500 L 646.767 295.500 L 652.540 295.500 L 652.540 305.500 L 661.201 310.500 L 664.087 305.500 L 669.861 305.500 L 669.861 295.500 L 678.521 290.500 Z " fill="#d9e9f7" stroke="#666666" stroke-width="0.80" fill-rule="evenodd"/>
<path d="M 646.767 315.500 L 643.880 310.500 L 652.540 305.500 L 652.540 295.500 L 646.767 295.500 L 643.880 290.500 L 635.220 295.500 L 626.560 290.500 L 623.673 295.500 L 626.560 300.500 L 629.446 305.500 L 635.220 305.500 L 635.220 315.500 L 643.880 320.500 Z " fill="#d9e9f7" stroke="#666666" stroke-width="0.80" fill-rule="evenodd"/>
<circle cx="600.579" cy="315.500" r="2.8" fill="#d60000" stroke="white" stroke-width="0.8"/>
<path d="M 22.660 386.000 L 25.547 391.000 L 28.434 396.000 L 34.207 396.000 L 34.207 406.000 L 42.868 411.000 L 45.754 406.000 L 51.528 406.000 L 51.528 416.000 L 60.188 421.000 L 63.075 416.000 L 68.848 416.000 L 68.848 406.000 L 77.509 401.000 L 74.622 396.000 L 68.848 396.000 L 63.075 396.000 L 60.188 391.000 L 68.848 386.000 L 68.848 376.000 L 63.075 376.000 L 60.188 371.000 L 51.528 376.000 L 42.868 371.000 L 39.981 376.000 L 42.868 381.000 L 34.207 386.000 L 25.547 381.000 Z " fill="#dddddd" stroke="black" stroke-width="1.50" fill-rule="evenodd"/>
<path d="M 68.848 386.000 L 68.848 376.000 L 63.075 376.000 L 60.188 371.000 L 51.528 376.000 L 42.868 371.000 L 39.981 376.000 L 42.868 381.000 L 45.754 386.000 L 51.528 386.000 L 51.528 396.000 L 60.188 401.000 L 63.075 396.000 L 60.188 391.000 Z " fill="#d9e9f7" stroke="#666666" stroke-width="0.80" fill-rule="evenodd"/>
<path d="M 22.660 386.000 L 25.547 391.000 L 28.434 396.000 L 34.207 396.000 L 34.207 406.000 L 42.868 411.000 L 45.754 406.000 L 42.868 401.000 L 51.528 396.000 L 51.528 386.000 L 45.754 386.000 L 42.868 381.000 L 34.207 386.000 L 25.547 381.000 Z " fill="#d9e9f7" stroke="#666666" stroke-width="0.80" fill-rule="evenodd"/>
<path d="M 63.075 396.000 L 60.188 401.000 L 51.528 396.000 L 42.868 401.000 L 45.754 406.000 L 51.528 406.000 L 51.528 416.000 L 60.188 421.000 L 63.075 416.000 L 68.848 416.000 L 68.848 406.000 L 77.509 401.000 L 74.622 396.000 L 68.848 396.000 Z " fill="#d9e9f7" stroke="#666666" stroke-width="0.80" fill-rule="evenodd"/>
<circle cx="-0.434" cy="406.000" r="2.8" fill="#d60000" stroke="white" stroke-width="0.8"/>
<path d="M 122.829 386.000 L 125.716 391.000 L 128.603 396.000 L 134.376 396.000 L 134.376 406.000 L 143.036 411.000 L 145.923 406.000 L 151.697 406.000 L 151.697 416.000 L 160.357 421.000 L 163.244 416.000 L 169.017 416.000 L 169.017 406.000 L 177.677 401.000 L 174.791 396.000 L 169.017 396.000 L 163.244 396.000 L 160.357 391.000 L 169.017 386.000 L 169.017 376.000 L 163.244 376.000 L 160.357 371.000 L 151.697 376.000 L 143.036 371.000 L 140.150 376.000 L 143.036 381.000 L 134.376 386.000 L 125.716 381.000 Z " fill="#dddddd" stroke="black" stroke-width="1.50" fill-rule="evenodd"/>
<path d="M 151.697 416.000 L 160.357 421.000 L 163.244 416.000 L 169.017 416.000 L 169.017 406.000 L 177.677 401.000 L 174.791 396.000 L 169.017 396.000 L 163.244 396.000 L 160.357 401.000 L 151.697 396.000 L 143.036 401.000 L 145.923 406.000 L 151.697 406.000 Z " fill="#d9e9f7" stroke="#666666" stroke-width="0.80" fill-rule="evenodd"/>
<path d="M 163.244 396.000 L 160.357 391.000 L 169.017 386.000 L 169.017 376.000 L 163.244 376.000 L 160.357 371.000 L 151.697 376.000 L 143.036 371.000 L 140.150 376.000 L 143.036 381.000 L 145.923 386.000 L 151.697 386.000 L 151.697 396.000 L 160.357 401.000 Z " fill="#d9e9f7" stroke="#666666" stroke-width="0.80" fill-rule="evenodd"/>
<path d="M 145.923 406.000 L 143.036 401.000 L 151.697 396.000 L 151.697 386.000 L 145.923 386.000 L 143.036 381.000 L 134.376 386.000 L 125.716 381.000 L 122.829 386.000 L 125.716 391.000 L 128.603 396.000 L 134.376 396.000 L 134.376 406.000 L 143.036 411.000 Z " fill="#d9e9f7" stroke="#666666" stroke-width="0.80" fill-rule="evenodd"/>
<circle cx="99.735" cy="406.000" r="2.8" fill="#d60000" stroke="white" stroke-width="0.8"/>
<path d="M 227.328 396.000 L 224.441 401.000 L 233.101 406.000 L 241.762 401.000 L 244.648 406.000 L 241.762 411.000 L 238.875 416.000 L 241.762 421.000 L 250.422 416.000 L 259.082 421.000 L 261.969 416.000 L 267.742 416.000 L 267.742 406.000 L 259.082 401.000 L 261.969 396.000 L 267.742 396.000 L 273.516 396.000 L 276.403 391.000 L 267.742 386.000 L 267.742 376.000 L 261.969 376.000 L 259.082 371.000 L 250.422 376.000 L 250.422 386.000 L 244.648 386.000 L 241.762 381.000 L 238.875 376.000 L 233.101 376.000 L 233.101 386.000 L 224.441 391.000 Z " fill="#dddddd" stroke="black" stroke-width="1.50" fill-rule="evenodd"/>
<path d="M 267.742 406.000 L 267.742 416.000 L 261.969 416.000 L 259.082 421.000 L 250.422 416.000 L 241.762 421.000 L 238.875 416.000 L 241.762 411.000 L 244.648 406.000 L 250.422 406.000 L 250.422 396.000 L 259.082 391.000 L 261.969 396.000 L 259.082 401.000 Z " fill="#d9e9f7" stroke="#666666" stroke-width="0.80" fill-rule="evenodd"/>
<path d="M 244.648 406.000 L 241.762 401.000 L 233.101 406.000 L 224.441 401.000 L 227.328 396.000 L 224.441 391.000 L 233.101 386.000 L 233.101 376.000 L 238.875 376.000 L 241.762 381.000 L 244.648 386.000 L 241.762 391.000 L 250.422 396.000 L 250.422 406.000 Z " fill="#d9e9f7" stroke="#666666" stroke-width="0.80" fill-rule="evenodd"/>
<path d="M 261.969 396.000 L 259.082 391.000 L 250.422 396.000 L 241.762 391.000 L 244.648 386.000 L 250.422 386.000 L 250.422 376.000 L 259.082 371.000 L 261.969 376.000 L 267.742 376.000 L 267.742 386.000 L 276.403 391.000 L 273.516 396.000 L 267.742 396.000 Z " fill="#d9e9f7" stroke="#666666" stroke-width="0.80" fill-rule="evenodd"/>
<circle cx="181.140" cy="416.000" r="2.8" fill="#d60000" stroke="white" stroke-width="0.8"/>
</svg>
